<mxfile host="app.diagrams.net" agent="Mozilla/5.0 (Macintosh; Intel Mac OS X 10_15_7) AppleWebKit/537.36 (KHTML, like Gecko) Chrome/128.0.0.0 Safari/537.36" version="24.7.12">
  <diagram name="페이지-1" id="zXD31sBn51YZbagEIcyw">
    <mxGraphModel dx="2419" dy="852" grid="1" gridSize="10" guides="1" tooltips="1" connect="1" arrows="1" fold="1" page="1" pageScale="1" pageWidth="827" pageHeight="1169" background="none" math="0" shadow="0">
      <root>
        <mxCell id="0" />
        <mxCell id="1" parent="0" />
        <mxCell id="JzWSMjGw9r-YvIYQEvcD-87" style="edgeStyle=orthogonalEdgeStyle;rounded=0;orthogonalLoop=1;jettySize=auto;html=1;exitX=0;exitY=0;exitDx=326.5;exitDy=120;exitPerimeter=0;fontFamily=Helvetica;fontSize=12;fontColor=default;entryX=1;entryY=0.5;entryDx=0;entryDy=0;" edge="1" parent="1" source="JzWSMjGw9r-YvIYQEvcD-78" target="JzWSMjGw9r-YvIYQEvcD-22">
          <mxGeometry relative="1" as="geometry">
            <Array as="points">
              <mxPoint x="280" y="1110" />
              <mxPoint x="280" y="723" />
            </Array>
          </mxGeometry>
        </mxCell>
        <mxCell id="JzWSMjGw9r-YvIYQEvcD-88" style="edgeStyle=orthogonalEdgeStyle;rounded=0;orthogonalLoop=1;jettySize=auto;html=1;exitX=0.997;exitY=0.427;exitDx=0;exitDy=0;exitPerimeter=0;fontFamily=Helvetica;fontSize=12;fontColor=default;" edge="1" parent="1" source="JzWSMjGw9r-YvIYQEvcD-78" target="JzWSMjGw9r-YvIYQEvcD-57">
          <mxGeometry relative="1" as="geometry" />
        </mxCell>
        <mxCell id="JzWSMjGw9r-YvIYQEvcD-78" value="Face Detection Model" style="shape=folder;fontStyle=1;tabWidth=110;tabHeight=30;tabPosition=left;html=1;boundedLbl=1;folderSymbol=triangle;whiteSpace=wrap;align=center;verticalAlign=top;spacingLeft=4;fontFamily=Helvetica;fontSize=12;fontColor=default;fillColor=none;" vertex="1" parent="1">
          <mxGeometry x="-640" y="990" width="326.5" height="210" as="geometry" />
        </mxCell>
        <mxCell id="JzWSMjGw9r-YvIYQEvcD-1" value="" style="shape=image;verticalLabelPosition=bottom;labelBackgroundColor=default;verticalAlign=top;aspect=fixed;imageAspect=0;image=data:image/png,iVBORw0KGgoAAAANSUhEUgAABTgAAAOaCAYAAAC87T0kAAAMP2lDQ1BJQ0MgUHJvZmlsZQAASImVVwdYU8kWnltSIbQAAlJCb4KAlABSQmgBpBfBRkgChBJjIIjY0UUF1y4WsKGrIoodEDtiZxHsfVFEQVkXC3blTQrouq98b75v7vz3nzP/OXPuzL13AFA/xRWLc1ANAHJF+ZLYkADG2OQUBqkbEAEV0IAVIHN5eWJWdHQEgGWw/Xt5dxMgsvaag0zrn/3/tWjyBXk8AJBoiNP4ebxciA8BgFfyxJJ8AIgy3nxqvliGYQXaEhggxAtlOEOBK2U4TYH3yW3iY9kQNwNAVuVyJRkAqLVBnlHAy4Aaan0QO4n4QhEA6gyIfXNzJ/MhToXYBtqIIZbpM9N+0Mn4m2bakCaXmzGEFXORF3KgME+cw532f6bjf5fcHOmgDytYVTMlobGyOcO83c6eHC7DqhD3itIioyDWgviDkC+3hxilZkpDExT2qCEvjw1zBnQhduJzA8MhNoQ4WJQTGaHk09KFwRyI4QpBC4X5nHiI9SBeKMgLilPabJZMjlX6QuvSJWyWkr/Alcj9ynw9lGYnsJT6rzMFHKU+plaUGZ8EMRViiwJhYiTEahA75mXHhSttRhdlsiMHbSTSWFn8FhDHCkQhAQp9rCBdEhyrtC/NzRucL7Y5U8iJVOID+ZnxoYr8YM08rjx+OBesTSBiJQzqCPLGRgzOhS8IDFLMHesWiBLilDofxPkBsYqxOFWcE620x80EOSEy3gxi17yCOOVYPDEfLkiFPp4uzo+OV8SJF2Vxw6IV8eDLQARgg0DAAFJY08BkkAWErb31vfBO0RMMuEACMoAAOCiZwRFJ8h4RvMaBIvAnRAKQNzQuQN4rAAWQ/zrEKq4OIF3eWyAfkQ2eQpwLwkEOvJfKR4mGvCWCJ5AR/sM7F1YejDcHVln/v+cH2e8MCzIRSkY66JGhPmhJDCIGEkOJwURb3AD3xb3xCHj1h9UFZ+Keg/P4bk94SmgnPCbcIHQQ7kwSFkt+inIM6ID6wcpcpP2YC9wKarrhAbgPVIfKuC5uABxwV+iHhftBz26QZSvjlmWF8ZP232bww9NQ2lGcKChlGMWfYvPzSDU7NbchFVmuf8yPIta0oXyzh3p+9s/+Ift82Ib/bIktxA5i57HT2EXsGFYPGNhJrAFrwY7L8NDqeiJfXYPeYuXxZEMd4T/8DT5ZWSbznGqcepy+KPryBYWydzRgTxZPkwgzMvMZLPhFEDA4Ip7jCIaLk4srALLvi+L19SZG/t1AdFu+c/P+AMDn5MDAwNHvXNhJAPZ7wO1/5Dtnw4SfDhUALhzhSSUFCg6XXQjwLaEOd5o+MAbmwAbOxwW4A2/gD4JAGIgC8SAZTITRZ8J1LgFTwQwwF5SAMrAMrAbrwSawFewEe8ABUA+OgdPgHLgM2sANcA+uni7wAvSBd+AzgiAkhIbQEX3EBLFE7BEXhIn4IkFIBBKLJCOpSAYiQqTIDGQeUoasQNYjW5BqZD9yBDmNXETakTvII6QHeY18QjFUFdVGjVArdCTKRFloOBqPTkAz0CloETofXYKuRavQ3Wgdehq9jN5AO9AXaD8GMBVMFzPFHDAmxsaisBQsHZNgs7BSrByrwmqxRvicr2EdWC/2ESfidJyBO8AVHIon4Dx8Cj4LX4yvx3fidXgzfg1/hPfh3wg0giHBnuBF4BDGEjIIUwklhHLCdsJhwlm4l7oI74hEoi7RmugB92IyMYs4nbiYuIG4l3iK2E7sJPaTSCR9kj3JhxRF4pLySSWkdaTdpJOkq6Qu0geyCtmE7EIOJqeQReRicjl5F/kE+Sr5GfkzRYNiSfGiRFH4lGmUpZRtlEbKFUoX5TNVk2pN9aHGU7Ooc6lrqbXUs9T71DcqKipmKp4qMSpClTkqa1X2qVxQeaTyUVVL1U6VrTpeVaq6RHWH6inVO6pvaDSaFc2flkLLpy2hVdPO0B7SPqjR1RzVOGp8tdlqFWp1alfVXqpT1C3VWeoT1YvUy9UPql9R79WgaFhpsDW4GrM0KjSOaNzS6NekazprRmnmai7W3KV5UbNbi6RlpRWkxdear7VV64xWJx2jm9PZdB59Hn0b/Sy9S5uoba3N0c7SLtPeo92q3aejpeOqk6hTqFOhc1ynQxfTtdLl6OboLtU9oHtT99Mwo2GsYYJhi4bVDrs67L3ecD1/PYFeqd5evRt6n/QZ+kH62frL9ev1HxjgBnYGMQZTDTYanDXoHa493Hs4b3jp8APD7xqihnaGsYbTDbcathj2GxkbhRiJjdYZnTHqNdY19jfOMl5lfMK4x4Ru4msiNFllctLkOUOHwWLkMNYymhl9poamoaZS0y2mraafzazNEsyKzfaaPTCnmjPN081XmTeZ91mYWIyxmGFRY3HXkmLJtMy0XGN53vK9lbVVktUCq3qrbms9a451kXWN9X0bmo2fzRSbKpvrtkRbpm227QbbNjvUzs0u067C7oo9au9uL7TfYN8+gjDCc4RoRNWIWw6qDiyHAocah0eOuo4RjsWO9Y4vR1qMTBm5fOT5kd+c3JxynLY53XPWcg5zLnZudH7tYufCc6lwuT6KNip41OxRDaNeudq7Clw3ut52o7uNcVvg1uT21d3DXeJe697jYeGR6lHpcYupzYxmLmZe8CR4BnjO9jzm+dHL3Svf64DXX94O3tneu7y7R1uPFozeNrrTx8yH67PFp8OX4Zvqu9m3w8/Uj+tX5ffY39yf77/d/xnLlpXF2s16GeAUIAk4HPCe7cWeyT4ViAWGBJYGtgZpBSUErQ96GGwWnBFcE9wX4hYyPeRUKCE0PHR56C2OEYfHqeb0hXmEzQxrDlcNjwtfH/44wi5CEtE4Bh0TNmblmPuRlpGiyPooEMWJWhn1INo6ekr00RhiTHRMRczTWOfYGbHn4+hxk+J2xb2LD4hfGn8vwSZBmtCUqJ44PrE68X1SYNKKpI6xI8fOHHs52SBZmNyQQkpJTNme0j8uaNzqcV3j3caXjL85wXpC4YSLEw0m5kw8Pkl9EnfSwVRCalLqrtQv3ChuFbc/jZNWmdbHY/PW8F7w/fmr+D0CH8EKwbN0n/QV6d0ZPhkrM3oy/TLLM3uFbOF64aus0KxNWe+zo7J3ZA/kJOXszSXnpuYeEWmJskXNk40nF05uF9uLS8QdU7ymrJ7SJwmXbM9D8ibkNeRrwx/5FqmN9BfpowLfgoqCD1MTpx4s1CwUFbZMs5u2aNqzouCi36bj03nTm2aYzpg749FM1swts5BZabOaZpvPnj+7a07InJ1zqXOz5/5e7FS8ovjtvKR5jfON5s+Z3/lLyC81JWolkpJbC7wXbFqILxQubF00atG6Rd9K+aWXypzKysu+LOYtvvSr869rfx1Ykr6kdan70o3LiMtEy24u91u+c4XmiqIVnSvHrKxbxVhVuurt6kmrL5a7lm9aQ10jXdOxNmJtwzqLdcvWfVmfuf5GRUDF3krDykWV7zfwN1zd6L+xdpPRprJNnzYLN9/eErKlrsqqqnwrcWvB1qfbEred/435W/V2g+1l27/uEO3o2Bm7s7nao7p6l+GupTVojbSmZ/f43W17Avc01DrUbtmru7dsH9gn3fd8f+r+mwfCDzQdZB6sPWR5qPIw/XBpHVI3ra6vPrO+oyG5of1I2JGmRu/Gw0cdj+44Znqs4rjO8aUnqCfmnxg4WXSy/5T4VO/pjNOdTZOa7p0Ze+Z6c0xz69nwsxfOBZ87c551/uQFnwvHLnpdPHKJean+svvluha3lsO/u/1+uNW9te6Kx5WGNs+2xvbR7Seu+l09fS3w2rnrnOuXb0TeaL+ZcPP2rfG3Om7zb3ffybnz6m7B3c/35twn3C99oPGg/KHhw6o/bP/Y2+HecfxR4KOWx3GP73XyOl88yXvypWv+U9rT8mcmz6q7XbqP9QT3tD0f97zrhfjF596SPzX/rHxp8/LQX/5/tfSN7et6JXk18HrxG/03O966vm3qj+5/+C733ef3pR/0P+z8yPx4/lPSp2efp34hfVn71fZr47fwb/cHcgcGxFwJV/4rgMGKpqcD8HoHALRkAOjwfEYdpzj/yQuiOLPKEfhPWHFGlBd3AGrh/3tML/y7uQXAvm3w+AX11ccDEE0DIN4ToKNGDdXBs5r8XCkrRHgO2BzyNS03Dfybojhz/hD3zy2QqbqCn9t/AR4BfE4wFjLJAAAAimVYSWZNTQAqAAAACAAEARoABQAAAAEAAAA+ARsABQAAAAEAAABGASgAAwAAAAEAAgAAh2kABAAAAAEAAABOAAAAAAAAAJAAAAABAAAAkAAAAAEAA5KGAAcAAAASAAAAeKACAAQAAAABAAAFOKADAAQAAAABAAADmgAAAABBU0NJSQAAAFNjcmVlbnNob3TV0rSjAAAACXBIWXMAABYlAAAWJQFJUiTwAAAB12lUWHRYTUw6Y29tLmFkb2JlLnhtcAAAAAAAPHg6eG1wbWV0YSB4bWxuczp4PSJhZG9iZTpuczptZXRhLyIgeDp4bXB0az0iWE1QIENvcmUgNi4wLjAiPgogICA8cmRmOlJERiB4bWxuczpyZGY9Imh0dHA6Ly93d3cudzMub3JnLzE5OTkvMDIvMjItcmRmLXN5bnRheC1ucyMiPgogICAgICA8cmRmOkRlc2NyaXB0aW9uIHJkZjphYm91dD0iIgogICAgICAgICAgICB4bWxuczpleGlmPSJodHRwOi8vbnMuYWRvYmUuY29tL2V4aWYvMS4wLyI+CiAgICAgICAgIDxleGlmOlBpeGVsWURpbWVuc2lvbj45MjI8L2V4aWY6UGl4ZWxZRGltZW5zaW9uPgogICAgICAgICA8ZXhpZjpQaXhlbFhEaW1lbnNpb24+MTMzNjwvZXhpZjpQaXhlbFhEaW1lbnNpb24+CiAgICAgICAgIDxleGlmOlVzZXJDb21tZW50PlNjcmVlbnNob3Q8L2V4aWY6VXNlckNvbW1lbnQ+CiAgICAgIDwvcmRmOkRlc2NyaXB0aW9uPgogICA8L3JkZjpSREY+CjwveDp4bXBtZXRhPgplBW+UAAAAHGlET1QAAAACAAAAAAAAAc0AAAAoAAABzQAAAc0AAG8JxgGz2AAAQABJREFUeAHs3QmcZFdZN/4z3TPTs89kDwnZd7KRECABDCQkYVEREUUQEQFFfBVBBBQh4vpH0VdQEXwR2UREQPZ9CUtIQghhSYAsZN/32Xt6nf95bs2tqV6naqZ7uk/N9/rprqpbdzn3ey7j5DfPuWfBCSc9amuyECBAgAABAgQIECBAgAABAgQIECBAoECBBQLOAntNkwkQIECAAAECBAgQIECAAAECBAgQqAQEnG4EAgQIECBAgAABAgQIECBAgAABAgSKFRBwFtt1Gk6AAAECBAgQIECAAAECBAgQIECAgIDTPUCAAAECBAgQIECAAAECBAgQIECAQLECAs5iu07DCRAgQIAAAQIECBAgQIAAAQIECBAQcLoHCBAgQIAAAQIECBAgQIAAAQIECBAoVkDAWWzXaTgBAgQIECBAgAABAgQIECBAgAABAgJO9wABAgQIECBAgAABAgQIECBAgAABAsUKCDiL7ToNJ0CAAAECBAgQIECAAAECBAgQIEBAwOkeIECAAAECBAgQIECAAAECBAgQIECgWAEBZ7Fdp+EECBAgQIAAAQIECBAgQIAAAQIECAg43QMECBAgQIAAAQIECBAgQIAAAQIECBQrIOAstus0nAABAgQIECBAgAABAgQIECBAgAABAad7gAABAgQIECBAgAABAgQIECBAgACBYgUEnMV2nYYTIECAAAECBAgQIECAAAECBAgQICDgdA8QIECAAAECBAgQIECAAAECBAgQIFCsgICz2K7TcAIECBAgQIAAAQIECBAgQIAAAQIEBJzuAQIECBAgQIAAAQIECBAgQIAAAQIEihUQcBbbdRpOgAABAgQIECBAgAABAgQIECBAgICA0z1AgAABAgQIECBAgAABAgQIECBAgECxAgLOYrtOwwkQIECAAAECBAgQIECAAAECBAgQEHC6BwgQIECAAAECBAgQIECAAAECBAgQKFZAwFls12k4AQIECBAgQIAAAQIECBAgQIAAAQICTvcAAQIECBAgQIAAAQIECBAgQIAAAQLFCgg4i+06DSdAgAABAgQIECBAgAABAgQIECBAQMDpHiBAgAABAgQIECBAgAABAgQIECBAoFgBAWexXafhBAgQIECAAAECBAgQIECAAAECBAgION0DBAgQIECAAAECBAgQIECAAAECBAgUKyDgLLbrNJwAAQIECBAgQIAAAQIECBAgQIAAAQGne4AAAQIECBAgQIAAAQIECBAgQIAAgWIFBJzFdp2GEyBAgAABAgQIECBAgAABAgQIECAg4HQPECBAgAABAgQIECBAgAABAgQIECBQrICAs9iu03ACBAgQIECAAAECBAgQIECAAAECBASc7gECBAgQIECAAAECBAgQIECAAAECBIoVEHAW23UaToAAAQIECBAgQIAAAQIECBAgQICAgNM9QIAAAQIECBAgQIAAAQIECBAgQIBAsQICzmK7TsMJECBAgAABAgQIECBAgAABAgQIEBBwugcIECBAgAABAgQIECBAgAABAgQIEChWQMBZbNdpOAECBAgQIECAAAECBAgQIECAAAECAk73AAECBAgQIECAAAECBAgQIECAAAECxQoIOIvtOg0nQIAAAQIECBAgQIAAAQIECBAgQEDA6R4gQIAAAQIECBAgQIAAAQIECBAgQKBYAQFnsV2n4QQIECBAgAABAgQIECBAgAABAgQICDjdAwQIECBAgAABAgQIECBAgAABAgQIFCsg4Cy26zScAAECBAgQIECAAAECBAgQIECAAAEBp3uAAAECBAgQIECAAAECBAgQIECAAIFiBQScxXadhhMgQIAAAQIECBAgQIAAAQIECBAgIOB0DxAgQIAAAQIECBAgQIAAAQIECBAgUKyAgLPYrtNwAgQIECBAgAABAgQIECBAgAABAgQEnO4BAgQIECBAgAABAgQIECBAgAABAgSKFRBwFtt1Gk6AAAECBAgQIECAAAECBAgQIECAgIDTPUCAAAECBAgQIECAAAECBAgQIECAQLECAs5iu07DCRAgQIAAAQIECBAgQIAAAQIECBAQcLoHCBAgQIAAAQIECBAgQIAAAQIECBAoVkDAWWzXaTgBAgQIECBAgAABAgQIECBAgAABAgJO9wABAgQIECBAgAABAgQIECBAgAABAsUKCDiL7ToNJ0CAAAECBAgQIECAAAECBAgQIEBAwOkeIECAAAECBAgQIECAAAECBAgQIECgWAEBZ7Fdp+EECBAgQIAAAQIECBAgQIAAAQIECAg43QMECBAgQIAAAQIECBAgQIAAAQIECBQrIOAstus0nAABAgQIECBAgAABAgQIECBAgAABAad7gAABAgQIECBAgAABAgQIECBAgACBYgUEnMV2nYYTIECAAAECBAgQIECAAAECBAgQICDgdA8QIECAAAECBAgQIECAAAECBAgQIFCsgICz2K7TcAIECBAgQIAAAQIECBAgQIAAAQIEBJzuAQIECBAgQIAAAQIECBAgQIAAAQIEihUQcBbbdRpOgAABAgQIECBAgAABAgQIECBAgICA0z1AgAABAgQIECBAgAABAgQIECBAgECxAgLOYrtOwwkQIECAAAECBAgQIECAAAECBAgQEHC6BwgQIECAAAECBAgQIECAAAECBAgQKFZAwFls12k4AQIECBAgQIAAAQIECBAgQIAAAQICTvcAAQIECBAgQIAAAQIECBAgQIAAAQLFCgg4i+06DSdAgAABAgQIECBAgAABAgQIECBAQMDpHiBAgAABAgQIECBAgAABAgQIECBAoFgBAWexXafhBAgQIECAAAECBAgQIECAAAECBAgION0DBAgQIECAAAECBAgQIECAAAECBAgUKyDgLLbrNJwAAQIECBAgQIAAAQIECBAgQIAAAQGne4AAAQIECBAgQIAAAQIECBAgQIAAgWIFBJzFdp2GEyBAgAABAgQIECBAgAABAgQIECAg4HQPECBAgAABAgQIECBAgAABAgQIECBQrICAs9iu03ACBAgQIECAAAECBAgQIECAAAECBASc7gECBAgQIECAAAECBAgQIECAAAECBIoVEHAW23UaToAAAQIECBAgQIAAAQIECBAgQICAgNM9QIAAAQIECBAgQIAAAQIECBAgQIBAsQICzmK7TsMJECBAgAABAgQIECBAgAABAgQIEBBwugcIECBAgAABAgQIECBAgAABAgQIEChWQMBZbNdpOAECBAgQIECAAAECBAgQIECAAAECAk73AAECBAgQIECAAAECBAgQIECAAAECxQoIOIvtOg0nQIAAAQIECBAgQIAAAQIECBAgQEDA6R4gQIAAAQIECBAgQIAAAQIECBAgQKBYAQFnsV2n4QQIECBAgAABAgQIECBAgAABAgQICDjdAwQIECBAgAABAgQIECBAgAABAgQIFCsg4Cy26zScAAECBAgQIECAAAECBAgQIECAAAEBp3uAAAECBAgQIECAAAECBAgQIECAAIFiBQScxXadhhMgQIAAAQIECBAgQIAAAQIECBAgIOB0DxAgQIAAAQIECBAgQIAAAQIECBAgUKyAgLPYrtNwAgQIECBAgAABAgQIECBAgAABAgQEnO4BAgQIECBAgAABAgQIECBAgAABAgSKFRBwFtt1Gk6AAAECBAgQIECAAAECBAgQIECAgIDTPUCAAAECBAgQIECAAAECBAgQIECAQLECAs5iu07DCRAgQIAAAQIECBAgQIAAAQIECBAQcLoHCBAgQIAAAQIECBAgQIAAAQIECBAoVkDAWWzXaTgBAgQIECBAgAABAgQIECBAgAABAgJO9wABAgQIECBAgAABAgQIECBAgAABAsUKCDiL7ToNJ0CAAAECBAgQIECAAAECBAgQIEBAwOkeIECAAAECBAgQIECAAAECBAgQIECgWAEBZ7Fdp+EECBAgQIAAAQIECBAgQIAAAQIECAg43QMECBAgQIAAAQIECBAgQIAAAQIECBQrIOAstus0nAABAgQIECBAgAABAgQIECBAgAABAad7gAABAgQIECBAgAABAgQIECBAgACBYgUEnMV2nYYTIECAAAECBAgQIECAAAECBAgQICDgdA8QIECAAAECBAgQIECAAAECBAgQIFCsgICz2K7TcAIECBAgQIAAAQIECBAgQIAAAQIEBJzuAQIECBAgQIAAAQIECBAgQIAAAQIEihUQcBbbdRpOgAABAgQIECBAgAABAgQIECBAgICA0z1AgAABAgQIECBAgAABAgQIECBAgECxAgLOYrtOwwkQIECAAAECBAgQIECAAAECBAgQEHC6BwgQIECAAAECBAgQIECAAAECBAgQKFZAwFls12k4AQIECBAgQIAAAQIECBAgQIAAAQICTvcAAQIECBAgQIAAAQIECBAgQIAAAQLFCgg4i+06DSdAgAABAgQIECBAgAABAgQIECBAQMDpHiBAgAABAgQIECBAgAABAgQIECBAoFgBAWexXafhBAgQIECAAAECBAgQIECAAAECBAgION0DBAgQIECAAAECBAgQIECAAAECBAgUKyDgLLbrNJwAAQIECBAgQIAAAQIECBAgQIAAAQGne4AAAQIECBAgQIAAAQIECBAgQIAAgWIFBJzFdp2GEyBAgAABAgQIECBAgAABAgQIECAg4HQPECBAgAABAgQIECBAgAABAgQIECBQrICAs9iu03ACBAgQIECAAAECBAgQIECAAAECBASc7gECBAgQIECAAAECBAgQIECAAAECBIoVEHAW23UaToAAAQIECBAgQIAAAQIECBAgQICAgNM9QIAAAQIECBAgQIAAAQIECBAgQIBAsQICzmK7TsMJECBAgAABAgQIECBAgAABAgQIEBBwugcIECBAgAABAgQIECBAgAABAgQIEChWQMBZbNdpOAECBAgQIECAAAECBAgQIECAAAECAk73AAECBAgQIECAAAECBAgQIECAAAECxQoIOIvtOg0nQIAAAQIECBAgQIAAAQIECBAgQEDA6R4gQIAAAQIECBAgQIAAAQIECBAgQKBYAQFnsV2n4QQIECBAgAABAgQIECBAgAABAgQICDjdAwQIECBAgAABAgQIECBAgAABAgQIFCsg4Cy26zScAAECBAgQIECAAAECBAgQIECAAAEBp3uAAAECBAgQIECAAAECBAgQIECAAIFiBQScxXadhhMgQIAAAQIECBAgQIAAAQIECBAgIOB0DxAgQIAAAQIECBAgQIAAAQIECBAgUKyAgLPYrtNwAgQIECBAgAABAgQIECBAgAABAgQEnO4BAgQIECBAgAABAgQIECBAgAABAgSKFRBwFtt1Gk6AAAECBAgQIECAAAECBAgQIECAgIDTPUCAAAECBAgQIECAAAECBAgQIECAQLECAs5iu07DCRAgQIAAAQIECBAgQIAAAQIECBAQcLoHCBAgQIAAAQIECBAgQIAAAQIECBAoVkDAWWzXaTgBAgQIECBAgAABAgQIECBAgAABAgJO9wABAgQIECBAgAABAgQIECBAgAABAsUKCDiL7ToNJ0CAAAECBAgQIECAAAECBAgQIEBAwOkeIECAAAECBAgQIECAAAECBAgQIECgWAEBZ7Fdp+EECBAgQIAAAQIECBAgQIAAAQIECAg43QMECBAgQIAAAQIECBAgQIAAAQIECBQrIOAstus0nAABAgQIECBAgAABAgQIECBAgAABAad7gAABAgQIECBAgAABAgQIECBAgACBYgUEnMV2nYYTIECAAAECBAgQIECAAAECBAgQICDgdA8QIECAAAECBAgQIECAAAECBAgQIFCsgICz2K7TcAIECBAgQIAAAQIECBAgQIAAAQIEBJzuAQIECBAgQIAAAQIECBAgQIAAAQIEihUQcBbbdRpOgAABAgQIECBAgAABAgQIECBAgICA0z1AgAABAgQIECBAgAABAgQIECBAgECxAgLOYrtOwwkQIECAAAECBAgQIECAAAECBAgQEHC6BwgQIECAAAECBAgQIECAAAECBAgQKFZAwFls12k4AQIECBAgQIAAAQIECBAgQIAAAQICTvcAAQIECBAgQIAAAQIECBAgQIAAAQLFCgg4i+06DSdAgAABAgQIECBAgAABAgQIECBAQMDpHiBAgAABAgQIECBAgAABAgQIECBAoFgBAWexXafhBAgQIECAAAECBAgQIECAAAECBAgION0DBAgQIECAAAECBAgQIECAAAECBAgUKyDgLLbrNJwAAQIECBAgQIAAAQIECBAgQIAAAQGne4AAAQIECBAgQIAAAQIECBAgQIAAgWIFBJzFdp2GEyBAgAABAgQIECBAgAABAgQIECAg4HQPECBAgAABAgQIECBAgAABAgQIECBQrICAs9iu03ACBAgQIECAAAECBAgQIECAAAECBASc7gECBAgQIECAAAECBAgQIECAAAECBIoVEHAW23UaToAAAQIECBAgQIAAAQIECBAgQICAgNM9QIAAAQIECBAgQIAAAQIECBAgQIBAsQICzmK7TsMJECBAgAABAgQIECBAgAABAgQIEBBwugcIECBAgAABAgQIECBAgAABAgQIEChWQMBZbNdpOAECBAgQIECAAAECBAgQIECAAAECAk73AAECBAgQIECAAAECBAgQIECAAAECxQoIOIvtOg0nQIAAAQIECBAgQIAAAQIECBAgQEDA6R4gQIAAAQIECBAgQIAAAQIECBAgQKBYAQFnsV2n4QQIECBAgAABAgQIECBAgAABAgQICDjdAwQIECBAgAABAgQIECBAgAABAgQIFCsg4Cy26zScAAECBAgQIECAAAECBAgQIECAAAEBp3uAAAECBAgQIECAAAECBAgQIECAAIFiBQScxXadhhMgQIAAAQIECBAgQIAAAQIECBAgIOB0DxAgQIAAAQIECBAgQIAAAQIECBAgUKyAgLPYrtNwAgQIECBAgAABAgQIECBAgAABAgQEnO4BAgQIECBAgAABAgQIECBAgAABAgSKFRBwFtt1Gk6AAAECBAgQIECAAAECBAgQIECAgIDTPUCAAAECBAgQIECAAAECBAgQIECAQLECAs5iu07DCRAgQIAAAQIECBAgQIAAAQIECBAQcLoHCBAgQIAAAQIECBAgQIAAAQIECBAoVkDAWWzXaTgBAgQIECBAgAABAgQIECBAgAABAgJO9wABAgQIECBAgAABAgQIECBAgAABAsUKCDiL7ToNJ0CAAAECBAgQIECAAAECBAgQIEBAwOkeIECAAAECBAgQIECAAAECBAgQIECgWAEBZ7Fdp+EECBAgQIAAAQIECBAgQIAAAQIECAg43QMECBAgQIAAAQIECBAgQIAAAQIECBQrIOAstus0nAABAgQIECBAgAABAgQIECBAgAABAad7gAABAgQIECBAgAABAgQIECBAgACBYgUEnMV2nYYTIECAAAECBAgQIECAAAECBAgQICDgdA8QIECAAAECBAgQIECAAAECBAgQIFCsgICz2K7TcAIECBAgQIAAAQIECBAgQIAAAQIEBJzuAQIECBAgQIAAAQIECBAgQIAAAQIEihUQcBbbdRpOgAABAgQIECBAgAABAgQIECBAgICA0z1AgAABAgQIECBAgAABAgQIECBAgECxAgLOYrtOwwkQIECAAAECBAgQIECAAAECBAgQEHC6BwgQIECAAAECBAgQIECAAAECBAgQKFZAwFls12k4AQIECBAgQIAAAQIECBAgQIAAAQICTvcAAQIECBAgQIAAAQIECBAgQIAAAQLFCgg4i+06DSdAgAABAgQIECBAgAABAgQIECBAQMDpHiBAgAABAgQIECBAgAABAgQIECBAoFgBAWexXafhBAgQIECAAAECBAgQIECAAAECBAgION0DBAgQIECAAAECBAgQIECAAAECBAgUKyDgLLbrNJwAAQIECBAgQIAAAQIECBAgQIAAAQGne4AAAQIECBAgQIAAAQIECBAgQIAAgWIFBJzFdp2GEyBAgAABAgQIECBAgAABAgQIECAg4HQPECBAgAABAgQIECBAgAABAgQIECBQrICAs9iu03ACBAgQIECAAAECBAgQIECAAAECBASc7gECBAgQIECAAAECBAgQIECAAAECBIoVEHAW23UaToAAAQIECBAgQIAAAQIECBAgQICAgNM9QIAAAQIECBAgQIAAAQIECBAgQIBAsQICzmK7TsMJECBAgAABAgQIECBAgAABAgQIEBBwugcIECBAgAABAgQIECBAgAABAgQIEChWQMBZbNdpOAECBAgQIECAAAECBAgQIECAAAECAk73AAECBAgQIECAAAECBAgQIECAAAECxQoIOIvtOg0nQIAAAQIECBAgQIAAAQIECBAgQEDA6R4gQIAAAQIECBAgQIAAAQIECBAgQKBYAQFnsV2n4QQIECBAgAABAgQIECBAgAABAgQICDjdAwQIECBAgAABAgQIECBAgAABAgQIFCsg4Cy26zScAAECBAgQIECAAAECBAgQIECAAAEBp3uAAAECBAgQIECAAAECBAgQIECAAIFiBQScxXadhhMgQIAAAQIECBAgQIAAAQIECBAgIOB0DxAgQIAAAQIECBAgQIAAAQIECBAgUKyAgLPYrtNwAgQIECBAgAABAgQIECBAgAABAgQEnO4BAgQIECBAgAABAgQIECBAgAABAgSKFRBwFtt1Gk6AAAECBAgQIECAAAECBAgQIECAgIDTPUCAAAECBAgQIECAAAECBAgQIECAQLECAs5iu07DCRAgQIAAAQIECBAgQIAAAQIECBAQcLoHCBAgQIAAAQIECBAgQIAAAQIECBAoVkDAWWzXaTgBAgQIECBAgAABAgQIECBAgAABAgJO9wABAgQIECBAgAABAgQIECBAgAABAsUKCDiL7ToNJ0CAAAECBAgQIECAAAECBAgQIEBAwOkeIECAAAECBAgQIECAAAECBAgQIECgWAEBZ7Fdp+EECBAgQIAAAQIECBAgQIAAAQIECAg43QMECBAgQIAAAQIECBAgQIAAAQIECBQrIOAstus0nAABAgQIECBAgAABAgQIECBAgAABAad7gAABAgQIECBAgAABAgQIECBAgACBYgUEnMV2nYYTIECAAAECBAgQIECAAAECBAgQICDgdA8QIECAAAECBAgQIECAAAECBAgQIFCsgICz2K7TcAIECBAgQIAAAQIECBAgQIAAAQIEBJzuAQIECBAgQIAAAQIECBAgQIAAAQIEihUQcBbbdRpOgAABAgQIECBAgAABAgQIECBAgICA0z1AgAABAgQIECBAgAABAgQIECBAgECxAgLOYrtOwwkQIECAAAECBAgQIECAAAECBAgQEHC6BwgQIECAAAECBAgQIECAAAECBAgQKFZAwFls12k4AQIECBAgQIAAAQIECBAgQIAAAQICTvcAAQIECBAgQIAAAQIECBAgQIAAAQLFCgg4i+06DSdAgAABAgQIECBAgAABAgQIECBAQMDpHiBAgAABAgQIECBAgAABAgQIECBAoFgBAWexXafhBAgQIECAAAECBAgQIECAAAECBAgION0DBAgQIECAAAECBAgQIECAAAECBAgUKyDgLLbrNJwAAQIECBAgQIAAAQIECBAgQIAAAQGne4AAAQIECBAgQIAAAQJdLNDXtzQdffypXXyFLq1dgRuvvzr1b97Y7ua2I0CAQDECAs5iukpDCRAgQIAAAQIECBAg0LlABJynnP6EdNst13W+sz26RuCgQ45KP7nqcgFn1/SoCyFAoFVAwNmq4T0BAgQIECBAgAABAgS6TKAOOH981be77MpcTicCx514hoCzEzDbEiBQlICAs6ju0lgCBAgQIECAAAECBAh0JiDg7MyrW7cWcHZrz7ouAgRCQMDpPiBAgAABAgQIECBAgEAXCwg4u7hzO7g0AWcHWDYlQKA4AQFncV2mwQQIECBAgAABAgQIEGhfQMDZvlU3byng7ObedW0ECAg43QMECBAgQIAAAQIECBDoYgEBZxd3bgeXJuDsAMumBAgUJyDgLK7LNJgAAQIECBAgQIAAAQLtCwg427fq5i0FnN3cu66NAAEBp3uAAAECBAgQIECAAAECXSwg4Ozizu3g0gScHWDZlACB4gQEnMV1mQYTIECAAAECBAgQIECgfQEBZ/tW3bylgLObe9e1ESAg4HQPECBAgAABAgQIECBAoIsFBJxd3LkdXJqAswMsmxIgUJyAgLO4LtNgAgQIECBAgAABAgQItC8g4Gzfqpu3FHB2c++6NgIEBJzuAQIECBAgQIAAAQIECHSxQKcBZ19fXzr44YekgYEt6c477khbt26tdJ7wM09M++2/f/X+lptvSld+94pJ1RYuXJjOO/8p1ff33nvPpNvM1coVK1akBQsWVKfv7+9Pw8PDc9WU3X5eAeduJ3dCAgR2o4CAczdiOxUBAgQIECBAgAABAgR2t0C7AWdvb2/6pV9+TjryyKOaTRwaGkr/8OY3VZ+f+KRz0/4HHJCOOOLIdMftt6cP/Od7m9u1vlm2fHl6+R/8Yfr8Zz+Tvv/9K1u/mpH3jzrj0enkU05N7/mPf+/4eH/8ujeM2eeBB+5Pl192WfrBD743Zn03fhBwdmOvuiYCBGoBAWct4ZUAAQIECBAgQIAAAQJdKNBuwPmLz3p2Ou74E9K3Lv5GuuI7l6fVa9akJ+VQ878/+IExKr//B69MDz7w4JQBZ09PTxWC3nX3XWnzpk1j9p2JD0992s+mU059ZPq7N/11x4eLgPO2225NX7voK2m/ffdPTzj77LRixcr09rf9c1q3bm3HxytpBwFnSb2lrQQIdCog4OxUzPYECBAgQIAAAQIECBAoSKCdgHPZsmXp5a94Vbrt1lunDC7rS54u4Hz2r/xqioAzlghKo9KzdTnwYQ9L55xzXtpr773T+vXr0pe/9IV09113VZscdNDB6YnnnJu+c/m305lnPS4tXrw4XfKti9M1P/lx9f0jTjwpnfrI09J+++2for233HJztT6G0X/9a1+t3u/oVwSccbyPf+yj1aZnnvm49KRzn5w++pH/Sddfd2217rjjjk+nnnZ6+vpFX01nP+mc6nx33XVn+thHP1x9v/fe+6QLnvK06ho2btyQLv7G19NNN92YTjv9UemQQw5Nn/zExyY0I4b3x9D/r3z5i9XrGY9+bDr2uOPSkiVL04MPPpC++IXPpYcefLC530knnZKiUjWqYe/JQfHnP/eZtHnz5ub3O2pjc8OWNwLOFgxvCRDoOgEBZ9d1qQsiQIAAAQIECBAgQIDAdoF2As6jjzk2PTsPT//cZz69w+Ha0wWcz/iFX0x9S5ako446esIQ9UMOPTT92vN/Iw0ODlaBYAx1X7RoUfqnt/xDiudhnnjSyennn/HM6pmfd955R9przV5VwPeuf/+3dN+991bHPOERJ6ZDDj0srV69Ol191Q+ri7znnrurUHT7FU/9LgLOu3NgeOkl30r7739AOuPRj0nxzNB//Ie/az6P80nnPLkKWGN4fjx/9Pbbb0uH5nPGUP24thh+H8/xvOXmm3NbDk0xtD+G6x/0sIPTOU8+L/3fv//b6hpbW/GHf/TaKpD96Ic/lKICNYLa6669prruI448Moek30hXXfWDapefOfuJ6fFPODtt2LAhxTNMw2lTroR92z+/pXnI6dpYPzO1ufG2NwLO8SI+EyDQTQICzm7qTddCgAABAgQIECBAgACBcQLtBJyPfexZVTj33x/8z3TzTTeNO8LYj9MFnLHlVM/gfOnv/J+0KgeTEQCOjIxUwWIEf1GlefE3v94MOKOCs650fOWrXpO+8fWv5W2+2WzErg5Rbx5o25uo5qyrRGNVHR5ee81P0sf+9yPVVlGVOjo6ms598vnpMY89M33wv95fBZxRZRrXEJWqn/3Mp9JvvfRlVTXoTTfekM5+4jnpe1d+N4eYm9Mr/vDV6Quf/2z1Od7HcPh3v+ud21qw/SXC1le9+o9ThLb1M0YPPeyw9Lxfe0G1fayPZbo2bj/a2HcCzrEePhEg0F0CAs7u6k9XQ4AAAQIECBAgQIAAgTEC7QScj37MY9OTz7sgfSg/bzOGW0+37GzA+Zo//tNq+HpUcNZLBIRr1z6U3vGv/9IMOP/zfe+pqiZjm9bKx3qfXQ046yHqUcEZQ+Kj2jQqMGN4fix1ePhfH3hfuvWWW+rTVq+/+tznp8MOPzy9+W//pgo8Y+XvvfwV+bp6q0rUV7/2den737uyav8vPPNZ6btXfKd65uczf/GXcgXmW3NV5vpqIqdjcsVsVJLedOON+Xmn364qNONYMUz/BS98UVU5GhWk9RJOcdwYqh7LdG2s9xn/KuAcL+IzAQLdJCDg7KbedC0ECBAgQIAAAQIECBAYJ9BOwBkh3y8/57nNKsNxhxjzcWcDzmp4eH7e5mWXXTLmeFHhGMO96yHqrRP+RAVnDBH/8Ic+2NxnpgLOOOCKFStyQPnKScPDN/3NXzbPWb/59d/4zXTAAQemv/+7/69elV78kpdWEzJFZeoLX/SSKsR96KGH0uGHH5G2bOmvQsy4tno2+qgGjedrnv6oM9Jee+1dhZkf/p//Tjfe8NNqBvtf+dXnpR/+4PvpxlwF2rrcf/996f777qtW1QHnZG1s3af1vYCzVcN7AgS6TUDA2W096noIECBAgAABAgQIECDQItBOwLlk6dL0B3mSoZjw573veVfL3hPfxjDsWN75b2+f+GVeM9UQ9Qgro1pzsqHZcaB2A86oNI1nZ8Ys6lM9b3LShuWV4ycZqgPOm3PVaj1b/HThYVRlxnNA3/62f8rDzNdVp4mqzZgw6d/e/raqsjKqYYeHh9PnPvvpFNvHd+vXr08feP97JzRr1arV6Xd+9/eqStF4PEDdnp9ef136SH5e51TLdG2cah8B51Qy1hMg0A0CAs5u6EXXQIAAAQIECBAgQIAAgSkE2gk4Y9eY4CdCxhgKfcUVl+eJfNakmPCmfhZkffgn5pnFzzzr8dVzMuOZkPfcfXc1qc6SPAFPBKUxw/kLfuNF6Zt5dvEf/eiqNJyHWm/cuDGHf+dW+1199Q/T5ZddlkZGR9Kpp56WHrj//mpio3YDzocfckh6/q+/MA/tvjxd9cMfVBP1RIjYzlJPMnTZpZekfffdN5108ilpTZ7MqH4+ZhxjuvAwhqc/93m/Xg0v//IXv1BVYcbs7vEM0Yu/+Y1q0qGYSCmC1whgI7wMx9bniMZETNHumJn9sFzl+YvPenb+/qLqWaRx/t988W9VM7d/O1e6fu/KK9PKVSvTo/Os6xfnWelVcIaQhQABAhMFBJwTTawhQIAAAQIECBAgQIBA1wi0G3DGzOARvkWFYr3E7OZv/ce/rz9Wr8uXL08/+3PPSEcceVQ1m3gMr77hp9dX604+5dQx28aHmFAnhp3H0OzYL4LMeomJe77wuc+OCzi3V0dG1edtt92aPpLP0bq88Ddfkg448MDq/DF0+9//3ztav57yfQScrcvAwED1nMwIGOulDmKnGv4dFaRRpVkvt9xyc/Xs0riWMIxnjcYs8O9/77ur55rGtlG1Wk8QFEP8ly9fUe0eQeh9992b3vee/2jO4h5VnDFMPZ4RWi/x3NL3vvtd6YEH7q9W7aiN9X6tryo4WzW8J0Cg2wQEnN3Wo66HAAECBAgQIECAAAECLQLtBpz1LhFERrgWz49cu3ZtvXrGXuvjR2j30EMPdjzMfMYasgsHitnO991vv/TQgw+mCEk7XSLEXLlqVbr3nnuqGeUn27+vry/tvc8+aeOGjdXkRJNt08k6AWcnWrYlQKA0AQFnaT2mvQQIECBAgAABAgQIEOhAoNOAs4ND27QgAQFnQZ2lqQQIdCwg4OyYzA4ECBAgQIAAAQIECBAoR0DAWU5fzWZLBZyzqevYBAjMtYCAc657wPkJECBAgAABAgQIECAwiwICzlnELejQAs6COktTCRDoWEDA2TGZHQgQIECAAAECBAgQIFCOgICznL6azZYKOGdT17EJEJhrAQHnXPeA8xMgQIAAAQIECBAgQGAWBQScs4hb0KEFnAV1lqYSINCxgICzYzI7ECBAgAABAgQIECBAoBwBAWc5fTWbLRVwzqauYxMgMNcCAs657gHnJ0CAAAECBAgQIECAwCwKCDhnEbegQws4C+osTSVAoGMBAWfHZHYgQIAAAQIECBAgQIBAOQICznL6ajZbKuCcTV3HJkBgrgUEnHPdA85PgAABAgQIECBAgACBWRQQcM4ibkGHFnAW1FmaSoBAxwICzo7J7ECAAAECBAgQIECAAIFyBASc5fTVbLZUwDmbuo5NgMBcCwg457oHnJ8AAQIECBAgQIAAAQKzKCDgnEXcgg4t4CyoszSVAIGOBQScHZPZgQABAgQIECBAgAABAuUI1AHnli2by2n0DLd0wYKe6ohbt47O8JHLOdyixX3pJ1ddnvo3byyn0VpKgACBNgUEnG1C2YwAAQIECBAgQIAAAQIlCkTAuXTZ8hKbPmNtPumRj6uOdfX3L5mxY5Z4oIGBLQLOEjtOmwkQ2KGAgHOHRDYgQIAAAQIECBAgQIAAgZIFnnDOM6rmX3zRJ0u+DG0nQIAAgSkEBJxTwFhNgAABAgQIECBAgAABAt0hIODsjn50FQQIEJhKQMA5lYz1BAgQIECAAAECBAgQINAVAgLOruhGF0GAAIEpBQScU9L4ggABAgQIECBAgAABAgS6QUDA2Q296BoIECAwtYCAc2ob3xAgQIAAAQIECBAgQIBAFwgIOLugE10CAQIEphEQcE6D4ysCBAgQIECAAAECBAgQKF9AwFl+H7oCAgQITCcg4JxOx3cECBAgQIAAAQIECBAgULyAgLP4LnQBBAgQmFZAwDktjy8JECBAgAABAgQIECBAoHQBAWfpPaj9BAgQmF5AwDm9j28JECBAgAABAgQIECBAoHABAWfhHaj5BAgQ2IGAgHMHQL4mQIAAAQIECBAgQIAAgbIFBJxl95/WEyBAYEcCAs4dCfmeAAECBAgQIECAAAECBIoWEHAW3X0aT4AAgR0KCDh3SGQDAgQIECBAgAABAgQIEChZQMBZcu9pOwECBHYsIODcsZEtCBAgQIAAAQIECBAgQKBgAQFnwZ2n6QQIEGhDQMDZBpJNCBAgQIAAAQIECBAgQKBcAQFnuX2n5QQIEGhHQMDZjpJtCBAgQIAAAQIECBAgQKBYgbPOfnrq7V2YLr7ok8Veg4YTIECAwNQCAs6pbXxDgAABAgQIECBAgAABAl0gUAWcPb3p4q99qguuxiUQIECAwHgBAed4EZ8JECBAgAABAgQIECBAoKsEBJxd1Z0uhgABAhMEBJwTSKwgQIAAAQIECBAgQIAAgW4SEHB2U2+6FgIECEwUEHBONLGGAAECBAgQIECAAAECBLpIQMDZRZ3pUggQIDCJgIBzEhSrCBAgQIAAAQIECBAgQKB7BASc3dOXroQAAQKTCQg4J1OxjgABAgQIECBAgAABAgS6RkDA2TVd6UIIECAwqYCAc1IWKwkQIECAAAECBAgQIECgWwQEnN3Sk66DAAECkwsIOCd3sZYAAQIECBAgQIAAAQIEukRAwNklHekyCBAgMIWAgHMKGKsJECBAgAABAgQIECBAoDsEBJzd0Y+uggABAlMJCDinkrGeAAECBAgQIECAAAECBLpCQMDZFd3oIggQIDClgIBzShpfECBAgAABAgQIECBAgEB3CCzYdhlbu+NyXAUBAgQIjBEQcI7h8IEAAQIECBAgQIAAAQIECBAgQIAAgZIEBJwl9Za2EiBAgAABAgQIECBAYDcILFq0KC1duixt2LA+bd3aqHpsXbd06dK0cOGiSVsS2w8ODqS+viWTfh8rN27ckOJ49Tajo6PVuil3mOSLuj3x1fDwUNq8efMkW1lFgAABAnuCgIBzT+hl10iAAAECBAgQIECAAIEOBM5/ytPT2U88J735b/8qrV+3rtrznCefn8598gXpLf/wt+nFv/WytHLVqimP+MMffC+dcuppU37/3ne/M512+hljthkYGEjX/ORH6TOf+kTq799xWPnEJz05nXfBU5vniIDz+uuuSZ/99CeKCzsPOujg9JznPj+97z3vSg88cH/zmrwhQIAAgfYEBJztOdmKAAECBAgQIECAAAECe4zAjgLOvr6+tCRXccbyzF98dlq1ek0O5/69+hzVmOvWrk177b139fmMR5+ZTj7l1PS/H/lQWrdubbXujttvS8945i9VAec73/G2tGz58vSYx56Vjjn2uHTDT69P7/mP/1dtN92vOuD86If/O23p70+nPerR6REnnpRuvunG9K53vn26Xefdd3HdL3jhS9I73vbWdMcdt8+79mkQAQIE5ruAgHO+95D2ESBAgAABAgQIECBAYDcL7CjgbK0yfOnvvjwdcMCB6S/+7HWTtjKqPqP68x9z5eeDLdWJv/yc51UB5xte9+rmfm94419V7//yja9vrpvqTR1w/vNb/z7de8891Wav/7O/Sr29venPL/yT5m6PPO1R6bFnPT6tWLEi3XnHHemTH/9I2rRpU/P7885/anrESSenjRs2pO9/77vppJNPTf/z3x9IW7b0pzMe/dh06GGHV+Fs7BDB7nN/7TfSRV/9Urrl5puqYyxbtiz93DOelQ455NC0ZWBLuvRb30xXfvc7zePHMPzHPf5n0gk5fI2h/fffd1/69Cc/VlVq7rff/unnf+FZaXlu2/77H5Duvvuu1J8rUYeGhtL73/uu5jGiHSef8si07377pfXr16evfeVL6dprf9L83hsCBAjs6QICzj39DnD9BAgQIECAAAECBAgQGCdQB5yf+8ynchi4sfo2Arbjjj+hGqI+GwHnggUL0oV//jf5eZrD6a//4g3jWjTx4/iAs6enp9o/nhv6D3/3N9UO556Xw9Vzz8+h4Lp09113paOPObZ61ueb39QIUiNcjMrRqCyN869atbraL/Zfu/ahatj4sccdn+rAdcWKlem1r7swh6QfTd+5/LIq8Hzt6/4sP490Ybr++mvT/vsdkNbstVf60Affn66+6ofVsaJSNQLKH//o6jx0flM65pjj0le/8sX0vSuvSHvttXeKNq5Zs1c6/Igjc/Xqdfm5pxuqgDPOEUtd3RmB6l133Zke/vBD0oMPPpA+/KH/qr73iwABAgRSEnC6CwgQIECAAAECBAgQIEBgjEAdcI5Zue1DPINzJgPOD37gfWl5HqIeIeBBBz+8qo786pe/ONmpx6yrA86rr/pBFYpGcBhD3T/xsY+k715xeTWJ0Rve+NfprjvvSG/PQ79jOeLIo9KLXvI76V//5S058LwzvfEv31RVVEYVaCwvf+WrU1RVthtw/tzPP7OqDv23f/2ndHsedh/L77/ij/IkS4Mp1sXyujf8RVr70IPVOasVk/yqQ8zJhqg//wUvqkLOP3v9ayfZ0yoCBAgQCAEBp/uAAAECBAgQIECAAAECBMYI1AFnBH31czOjEjKGms90wFmfeGRkpJokKIaHxxDtHS11wBmTE0UFZQxNj7DzQx/8z2rXh+ch4y992e9Xs8APDQ02D7d4cV+6IldfXnTRl9OrX/v6dNml38oTG328+r6u6Gw34Pzd339letjDDqpmja9PsGjR4qoaNALJeB7pr/36C9PxJ5yYh8ffnn56/XXp0ksunjBj/HQB56POeEx65rN+ueqH6669pmr7nTm0tRAgQIDAdgEB53YL7wgQIECAAAECBAgQIEAgC9QB51SzqM9kBWcEgVu3bq1+OsGvA876GZxP+9mfz8+6PDvFpEPxLM06NIznYcbs6q3Lvffek4aHhtMr/+iP05e/+Pn09a99pfr6iefkmdnzMzmnCjhXr1mT/ug1f9ocov7KV702Pz9zZfr4//5P6+Gr9z+6+qrqmiJ4feyZj6t+9t5n32rdf773P9J1LW2q2zpZBWcc7LjjTkhPOve8dHAenh5D6b918dfT5z/76QnntIIAAQJ7qoCAc0/teddNgAABAgQIECBAgACBKQR2Z8DZOsnQFM2ZdPX4gDOCv9f88RvS4r7F+RmeF+Zh7yvSa/7kDemaa36cPvC+d096jHjm50033tCc0CdmMo+wsQ44n/5zz0hnnvWE9MY3/HFVjVlXU9bP4Pz1F744HXXUMfkZnX+aogJ1R0sEpH/4R39SnbN1pvh4/uaLf+tl6b3vfmdV5TnVcRYtWpRe/opX56H4y5rPBZ1qW+sJECCwJwkIOPek3natBAgQIECAAAECBAgQaEOgxIAzLuvUR56env0rz01f+Nxn0sXf/FqKIeQxw/s3v3FRNSnQ6lVr0lmPf0L1nM+YeT0CzSOPOjpXYH64qoyMoeAxWVEdcB519DHphS/67XTJt76Rq0CvTb/07F9NK1aubFZwHnb4Eeklv/276Y48/PyrX/pCuvueu9IJeTj6vvk5nvWw95gtPiYUuv2229JRRx+dfvV5L0hf/lKuGr2oUTUa7Y5zxvNAb7/t1vT5z326mkn9vvvuja/Sk897SjWp0HV51vSYlOg3cnvuvffu9M53vK363i8CBAgQ8AxO9wABAgQIECBAgAABAgQIjBM4/4KnpbOfdG4aM0Q9P4MzZvze6Wdw/v2bqqCuPlUEf6ecelra1QrOf3rLm9N99zbCwDh2TOrT29tTVTiuXLkqveA3X5IOPPBh9Wmr52W+423/lCJAjPW/nZ/TGZWRscTM6TGjeR1wRvAY3x+cJz+KJULOqPD8RJ7hPJ7jGcuZZz0+Pe1nn1GFlNWK/CuGyMdQ+Vhe+ycXVqFovI+h+Pfcc3c1AVHMFt+6xBD7qBaNc8Z2F/7pa6qvIxA98aSTm5vGjPD/9f73VKFqc6U3BAgQ2MMFVHDu4TeAyydAgAABAgQIECBAgEC3C/T1Lcmzo++X1m9Yn9avWzfmciNQjImC1uX1EV4+69nPaQac9YYxtHxgy0DasqW/XjXmNYbH75OfrxlB6f333zdhkqQIWlevXp3uyjO3tzOUfczB84do/7777psD4gdTf//m8V/7TIAAgT1eQMC5x98CAAgQIECAAAECBAgQIEAgBE47/YxJA046BAgQIDC/BQSc87t/tI4AAQIECBAgQIAAAQIEdpPAI048uXqG5z/m4fQbcrWnhQABAgTKEBBwltFPWkmAAAECBAgQIECAAAECOynwmMc/JfXmoeiXfvNzO3kEuxEgQIDAfBYQcM7n3tE2AgQIECBAgAABAgQIENhlgbPOfnoOOHvTxV/71C4fywEIECBAYP4JCDjnX59oEQECBAgQIECAAAECBAjMoICAcwYxHYoAAQLzUEDAOQ87RZMIECBAgAABAgQIECBAYOYEBJwzZ+lIBAgQmI8CAs752CvaRIAAAQIECBAgQIAAAQIzJiDgnDFKByJAgMC8FBBwzstu0SgCBAgQIECAAAECBAgQmCmBKuDsXZguvuiTM3VIxyFAgACBeSQg4JxHnaEpBAgQIECAAAECBAgQIDDzAgLOmTd1RAIECMwnAQHnfOoNbSFAgAABAgQIECBAgACBGRd4wjnPqI6pgnPGaR2QAAEC80JAwDkvukEjCBAgQIAAAQIECBAgQGC2BAScsyXruAQIEJgfAgLO+dEPWkGAAAECBAgQIECAAAECsyQg4JwlWIclQIDAPBEQcM6TjtAMAgQIECBAgAABAgQIEJgdAQHn7Lg6KgECBOaLgIBzvvSEdhAgQIAAAQIECBAgQIDArAgIOGeF1UEJECAwbwQEnPOmKzSEAAECBAgQIECAAAECBGZDQMA5G6qOSYAAgfkjIOCcP32hJQQIECBAgAABAgQIECAwCwICzllAdUgCBAjMIwEB5zzqDE0hQIAAAQIECBAgQIAAgV0TOODAQyYc4JgTTqvWXf+T70347p67b5uwzgoCBAgQKEtAwFlWf2ktAQIECBAgQIAAAQIECEwjUFdrTrPJmK8uvuiTYz77QIAAAQLlCQg4y+szLSZAgAABAgQIECBAgACBKQQOPfy4dPChR6fe3t4ptmisHh4eSnfedmO69eZrp93OlwQIECAw/wUEnPO/j7SQAAECBAgQIECAAAECBDoQaLeKU/VmB6g2JUCAwDwWEHDO487RNAIECBAgQIAAAQIECBDoXGBHVZyqNzs3tQcBAgTms4CAcz73jrYRIECAAAECBAgQIECAwE4J7KiKU/XmTrHaiQABAvNSQMA5L7tFowgQIECAAAECBAgQIEBgVwSmquJUvbkrqvYlQIDA/BQQcM7PftEqAgQIECBAgAABAgQIENhFgamqOFVv7iKs3QkQIDDPBASc86xDNIcAAQIECBAgQIAAAQIEZkZgfBWn6s2ZcXUUAgQIzDcBAed86xHtIUCAAAECBAgQIECAAIEZExhfxal6c8ZoHYgAAQLzRkDAOW+6QkMIECBAgAABAgQIECBAYKYF6irOrVtH05233ZhuvfnamT6F4xEgQIDAHAsIOOe4A5yeAAECBAgQIECAAAECnQj0LOhka9uGwCPPOLuC+P4V3wDSocDo1g53sDkBAgTmQEDAOQfoTkmAAAECBAgQIECAAIGdFVi6OKUFQs6d5bNfBwJbc7jZP9jBDjYlQIDAHAkIOOcI3mkJECBAgAABAgQIECCwMwJ1wHnUUY/amd3tQ6AtgRtu+G4ScLZFZSMCBOaBgIBzHnSCJhAgQIAAAQIECBAgQKBdgTrgvPDCL6Rly1a1u5vtCLQtELPNv/71Zws42xazIQECcy0g4JzrHnB+AgQIECBAgAABAgQIdCAg4OwAy6Y7JSDg3Ck2OxEgMIcCAs45xHdqAgQIECBAgAABAgQIdCog4OxUzPadCgg4OxWzPQECcy0g4JzrHnB+AgQIECBAgAABAgQIdCAg4OwAy6Y7JSDg3Ck2OxEgMIcCAs45xHdqAgQIECBAgAABAgQIdCog4OxUzPadCgg4OxWzPQECcy0g4JzrHnB+AgQIECBAgAABAgQIdCAg4OwAy6Y7JSDg3Ck2OxEgMIcCAs45xHdqAgQIECBAgAABAgQIdCog4OxUzPadCgg4OxWzPQECcy0g4JzrHnB+AgQIECBAgAABAgQIdCAg4OwAy6Y7JSDg3Ck2OxEgMIcCAs45xHdqAgQIECBAgAABAgQIdCog4OxUzPadCgg4OxWzPQECcy0g4JzrHnB+AgQIECBAgAABAgQIdCAg4OwAy6Y7JSDg3Ck2OxEgMIcCAs45xHdqAgQIECBAgAABAgQIdCrQTsC5detw2ppGq0MvWNCbFqTeTk8zr7YfHLknjY4OpCWLDp3Rdm1NI2nr1pEJx+wGswkX1bJiy9BNqbdnVVrUu0/L2u1vBZzbLbwjQKAMAQFnGf2klQQIECBAgAABAgQIEKgE2gk4Nw78MI2Mrm+K9Szoy2HWfjkgPLy5bne92bDlytS36OC0uPeAnT7lpoGr08jWTWnVksfu9DEm23Hz4DVpaOT+CV8tXnhgWrro6AnrZ2vFyOjGFG1Z3ndi6lmwdLZO0zzuuv5L8v2wb1q2+NjmutY3As5WDe8JEChBQMBZQi9pIwECBAgQIECAAAECBLYJtB9wbkgr+k7OweCWNDB0Wxrd2l8FnH0LH75bLdf1X5z6Fh6Sz33YTp832h6Vlr09K3b6GJPtWAecy/tOGvN1hIwRCu+uZXjkobRp8Ee5vx4549c42TUIOCdTsY4AgZIFBJwl9562EyBAgAABAgQIECCwxwm0H3BuTKuXPq7yGd06kDZs+U5amIclL+87pVoXw9j7h36aKz03phiSvXjhQWOqLAeGb6+qG7duHczfL64qQPsWHjzGu3GMG/IxNlTrF/auyUHmkXlIfE8V2KWto2l4dKUHwZgAAC7JSURBVF21f++2ysSli4/J4eGSMceZ6sOWoZubx+7pWTqhqjKGmA8O35Hb+UAOQIer6seli49quwqyDjhXL33CVE2ojj04cndasvCwtGX4ljxUfnMVQi5bfEK1T4Sv/YM3VAFyOEWQu7BnzbbjbU1RfRoVoUMj9+Vr2Vy978vWKRs19v1pfh3KP3Hc5dluYUoLetLyxSc22zQ0cm8aGL4rX+Ngde6oLl2wYFH1/eDw3dl4fdW3gyN35v2jDYePCUqjD8Jyaz7P4oUH5Pe3qeBs6npDgEA3CAg4u6EXXQMBAgQIECBAgAABAnuMwM4EnBFibhz4fhVgRsAYweCG/m9Xz+lc2LtXDu36c8C2JQ9ZPr4KvgJzfR7G3JMrJnt7llUhaBwjQtClOcCMJQLF9Vsuz+9G8zYrq9AygsZGFeKyKjyNgHMwh3NREbkwbxNLXw4A262OHMjh5ejopjQ0+mDec8GEIeoR0EbAF8OtFyxYmIZH1ubjH5qvc//qXDv6VQecYdK6NPZfUK2KYDDC3ghtow29vavyedbl8PisbDCSDb6d12+tQs0IEuP98lw5u7BndeUbjrFEqBtB8ki+nniWaN/CQyvzgaFb8+tAFQRHMNqTQ9IIOOsh8lvy9wPDt1bre3IAGtfYk8PNlUseUx23voZoW5wzws5ow+qlj6++j1Cz0cb6+7XV+kXZyBD1isIvAgS6QEDA2QWd6BIIECBAgAABAgQIENhzBNoPONfnQPJhOYQbyNWDEWptzeHjaVVg2T90Qw4G78qfT63CydCLZ2VGABfrYolJihqhXvUxf39FXjfSDBn7B6/P4eU9Ocw7qQr3GvuM5H0iGIwwsLHMxBD1qZ7BuX7LZVVwGKHqzizbw8Gxe69acmYVmMbaOuBsPLPy+G0bbs2vC/J3N+Xw8Y6mQfis7780m67KjqdUhlVQvGBZDiRPr/aNsDHCzto5Vk41RD36IPaPofn1NUaIumngqupzrK+voQ5Vo9pz8+B1+fvTq76Ofo7+XpUD0agwjUrSzYPX5lBYwFl1iF8ECHSFgICzK7rRRRAgQIAAAQIECBAgsKcIdBJwRlVjVFrGsmTREblqsDHEfOPA96pKwtbZ1SOci6VR+begqigcHL4nb7e2OkYdeK7aNuw9AtEYYl1XClY7T/JrNgPOzYM/zoHdg1UAGNWPcX310O1JmjJhVR0OTjdEvQ446wCx9SARvA5nn9osvtuQq1q35v+LCZHqgDLaFf6xNMLajfn7M6vP8WuqgDOG/m8c+EG13fi+qidCGn8N9eMIoio1JnaqzperOut+a1TeXibgbOp7Q4BANwgIOLuhF10DAQIECBAgQIAAAQJ7jED7AWf9DM6t1fD0GBq9csmjc/VgX6MaMw9dHj80OxCjUrEe0t6Yff2AqhJwy1B+/mSuBq2f6xnP9IwAb0czm89mwBl1pvFsysHhO6vh3tH+eHZlDLtvZxkfDk62Tx1wThaCRvgYrrVJ7B/h8ejolhwo5iHs2yowW8PlmEwogst2As46+Iygcvw19eSq0Hh8QFxDbBfni6Uekh5D3CME3TgQQfRQSz9tTev6vyXgrLT8IkCgWwQEnN3Sk66DAAECBAgQIECAAIE9QqDzgDM/JTNPThOVhfGMxqhEjJAtnuXYCOYaz5psxauf+7hyyRnVcOr4LoZKx8DsOsyrqxfroc+t+7e+j4AzhsovXXRU6+rqfVQ/bh74SfV+Wd8JzaHu4zdsVD1uagnpxm8R1xgTKV2x7RrHzoo+cevGml0NOGOodwz5roPjOGqEhxEMh13bAee2Yeetw/3jWDGpUDzndFHv3vl5mY+IVROWHQWc2wPaeCbngipcjWDWEPUJlFYQIFCwgICz4M7TdAIECBAgQIAAAQIE9jyBnQk4Q6kO8+JZkKN52PqmgR9WQ7tjdvCeXAk4nId6j+Qh5zGJ0Ege0rwxf9+38OFVEBaT3AyN3J+P0tMMOCOcjOAxJhCKCsWoJowJc2KSn9ZZ0hsVhIP5uMdW63vzbOgRtMUSkxJtHtwWcLZMcFR92fJrqoAzAsaYFbx3wYpqqHhcY8xi3rfwkJa9p35bm0xWnVnvtT0gnDjTem0Qz8IMt6gmjcCznkSo3YAzKlEjGI3JmpZmyxhmH66xNB4nsLnqi6jIjGeqDuSK1ZikqJ0KzroaN0LSxXmofP9gzNreL+CsO9grAQJdISDg7IpudBEECBAgQIAAAQIECOwpAjsbcNbPZoxnVUalYAzr7s+T5ES4Vi8xe/jSxcdWH+sKzfgQkw1FCDoyurkZcMb6mGAnAsDtx+jJlYuPyuFcX3xdLRFi9g9dXz3HM1a0Pssynp8Zz9GMZdniE3Lotk/1fvyvqQLOqG6MKsd66c2zjDcm79k+yVH93WSvuxpwxjG3DN1YBY718RtVslFBuqClgvPIHEgeVG0y2RD1+KIxYdGd+V2jP+rQNa6vsc+mav/4Fc/jXLHkkVUIGtcw3RD12L5+Vmm1bw5PYxi7Cs7QsBAg0C0CAs5u6UnXQYAAAQIECBAgQIBA1wssWtyXFvUM5QxsNF144RfSsmWrdvmao5pvaz5eT66sbJ01PQ4cEw9FwFZXE051stGtm/N2KVcUbq/OnGrbnVkfQ88bM7yfNmH3aF+Et1FFWVeGTtho1leMVuFvVK7GxE6zsURfjOaAOWZCbw2Q2z1XTC4UjyqIqs8dLcPDQ+n1rz+76tP+7fnxjnbzPQECBOZMQMA5Z/ROTIAAAQIECBAgQIDAni7Q27swLY7QcvGSxmtfX37d9j6vb32/YEFjWPfV3/1yGhzYPGMB53ztgwheo/ozqkaHRu7taOj5fL2mUtol4Cylp7STAIFaQMBZS3glQIAAAQIECBAgQIDALgpECBlVlq3B5Jj3fUvSokXxfV/qXdhZpd/w8HAaHhpM1199cRoa2tL1AWeEmv2DN+SizJ4Us4j3LTqkGpq9i11k9zYEBJxtINmEAIF5JSDgnFfdoTEECBAgQIAAAQIECMw3gYWLFlWB5WTBZWPd4iq0jPd1lWU71zAyMpyGBgdzWDlYBZfx2vo+wszx62IoeTvP4Gzn/LYhMJWAgHMqGesJEJivAgLO+doz2kWAAAECBAgQIECAwKwI9PT0VhWUzcAyDwuP93VlZf1+0eLFaeHCRW23YXRkpBFIDg40g8l2AsvpTrB6zb7V16vX7JPiJ5ZbfvrdHIgOdH0FZ3Wxfs2JgIBzTtidlACBXRAQcO4Cnl0JECBAgAABAgQIEJgfAo2wsjE0vH4fgWUVVuagsjW8bLfKcnR0NAeVOaysqizr1+3VllNVWHYiMlmAGfuv3qsRbE52rD3lGZyTXbt1u0dAwLl7nJ2FAIGZExBwzpylIxEgQIAAAQIECBAgMEMC8XzKeHZlFVZWQWUOKVurLFvWtVtluTVP8z1UV1eOf51imHgMCd+VpTXAjOPUVZjTBZj1+dY9dH/9Nq1b+0D1EysGN9+fh8InFZxNHW9mWqCTgLO+xw878vi0avXe6eKLPjnTzXE8AgQI7FBAwLlDIhsQIECAAAECBAgQILCrAlE12Qgstz+vcrLwsl63oKcxY/i0592aGhWWOZwcrALLusqy8ToTFZbTnj9/WYc7zeBy2zDyXQkw45zr1m4PN8e3wTM4x4v4PNMCOwo4474/9PBjq0c4LF+5Oo3kCbDiHyXi9dJvfnamm+N4BAgQ2KGAgHOHRDYgQIAAAQIECBAgQGC8wII8s/WiRVFVGYFlflZlVFTG52pdY2j44pb37VZZVpPqjK+urD83h4tvHya+qxWW469r/Oc6wIz1rc/BbCfAjH3qKszWCsxq/TQBZnw/3SLgnE7HdzMhMD7grP93cPiRJ6SVq/eqThEV0ZM97kEF50z0gGMQINCpgICzUzHbEyBAgAABAgQIEOhCgQggF9YBZR1M5tft6xoB5sI60Gxz8p3hoaFmleXY4eFjqy3r2cJnO7Ac33V1cBPr50uAOb6N4z8LOMeL+DzTAq0B5/GnPiktX7EqjYzkKs3ehdOeSrg5LY8vCRCYRQEB5yziOjQBAgQIECBAgACBuRCYvrqyMUR8e3DZ+NzWkPB8MfVM4duHhG8PKrevG2xOzrO7A8vx3lMFmLFdO1WYrRWYsU9UYjZepx5CXm0wi78EnLOI69CVQB1w9uZ/yDjp9POr4eft0Ag421GyDQECsyEg4JwNVcckQIAAAQIECBAgMMMC1bMpY5Kd/LO4OTt4PSx856or6yZunyV8IA3Ww8Cbz7SMdTmwjM/5J6q45ttSh5itFZjRxlIDzB351gHn7/3ef+xoU98T2GmBf/mXF6U8Cj3td9Bx6dAjjmvrOPfefVvasH5t2rhhbdq0cV0aHd21SbraOqmNCBAgkAUEnG4DAgQIECBAgAABAnMkUD+vsjlbeB1gNl+3zyKe2phzp76MkZGRbbOFj6uubIaWjQrLquIyr5vvy0wEmHGNrc/BnG4Sn/nuUQec872d2le+QASc/YMpTyjUfsjZetWDA1ty4PlQ2hCB54Z1VegZf+5YCBAgMNMCAs6ZFnU8AgQIECBAgACBPVoghn4vbgaUUVmZKy4XbwsqW9fn95NN0DEVXjzLslFd2aikHBzcUoWYg4P1cPC8flv15XysspzqumJ9a4DZ+LxPtXknFZixQ7cEmNXFT/Orb9E0X/pqjxFYunR5Wty3tKM/R9Y+dF/HPgNDjV3if6dHHH1iWrpsRX4WZ++kx7nlpmvSsmUr07LlK/J2K1NPT8+E7WKm9Qg8N+bgc9PG9WljrvTs37xxwnZWECBAoBMBAWcnWrYlQIAAAQIECBDYIwWq0LJlWPiYADMHlY3PS6rXjkLL/B/6QzmorCsp69cYCl69H9r+XclDPesAM26e1mHkuxJgxrFKrsKM9lsI7KrAKac/IS1fvqqtZ2TO1PMxYyb1hx92zISmjz9+/Lm4fMXqtCxPULQsh6IRfC7NwWdMaDbZEkPbN0XwmUPPGN5uiPtkStYRIDCVgIBzKhnrCRAgQIAAAQIEulqgDinHP9OyWr8tzKy36SS0jOqkRji5LaScJMCsg8zR0ZGuMa5DzNYAMy6ukxCztQIz9hVghoKFwPQC7YSc8Q8kl3z909MfqINvJxuyPj7gnOxwC3JF54oceEbwGTOzN0LPldU/Dk22fVR2bqyGtm8PPePPTwsBAgTGCwg4x4v4TIAAAQIECBAgUKRADIWMsLIxJDy/xvuorhxfeVl9XtzRNUZoGcO/62By4mseLr7t+5hlvBuX1gAzri+CzOp1r32r1+l+zceZyKdrr+8IlCZQhZw5MOztXTht0+N/i7fefN2M/ONB/Jlw8mmPS8P5z8eFCxemdgLOqRq3JA+3j8BzRR185qrUJUuXTbp5PNczQs+NG2Myo1zpmX8GBvon3dZKAgT2HAEB557T166UAAECBAgQIFCcQE9+zltUUVbPsBxXVRkT9NQVlhFkTjXscaqLHs4zg1dB5bYZwuvQsg4q61nD47mX3RpattrUAWasa63C7KQCM/ZtrcJUgRkiFgK7R2C6kDOCzfH/W56psPOIo05MBx961C4FnJMJLVy0qFnp2Qg+G1Wfk20bf15XoWc1xD2Hn/l1YIvQczIr6wh0q4CAs1t71nURIECAAAECBOarwIIF20LLqLBsPLeyEVQ23ldVl9tCzd5cFdT2kmf7HTsJTz3pzvbKy9bwcmtMD7yHLXWI2RpgBsH44GMyltYqzAgx60WIWUt4JTD3Aqee/jPVMy9bJwEayVXll37jM1Xj4s+AQw8/dsL/5mcq7NwdAitWrk4rVq5pVHvGa/482WNEhvI/XjUqPBuVnlHxuaV/8+5oonMQIDAHAgLOOUB3SgIECBAgQIBANwpEtU3rbOFTvY8As90lQshGZeX2yXa2T8BTzyYer42ZxNs9brduVweYcX2tIWYnAWbsqwozFCwEyhSYLOScbPh4N4SddQ/FMz0bwWd+XbEt9JxkBvfhoaHm0PY6/Ozv31QfxisBAgULCDgL7jxNJ0CAAAECBAjMtkBMCBFB5eK+iZWW46su4xmY7S5RWVMFlflZavXQ8ME8GU8dXtbvYzvLWIE6xGw+A3Mnn4VZV2GqwBzr6xOBbhBoDTknCzfHX2M3hZ31tcXs8svras9tr5P9/6l4xnIMad+YZ27fsP6h6sfw9lrRK4FyBASc5fSVlhIgQIAAAQIEZkxgYnBZh5j1a37uZQ414zmX7S4jI9tmD8/PQotJIMaHla1B5p44PLxdx9iuNcRsBpkdTOYTx1CFGQoWAnuuQIScK1fv1fGzMbsx7KzvgmXLV1ZD22OIex1+tg7nr7cbHBhohp116Dk62p0TyNXX7JVA6QICztJ7UPsJECBAgAABAi0CsxFcRlgZFZXxH3zjh4tX63OgGWFmBJyW9gTqADO23tmh5K0BZhxHJWYoWAgQmEmBycLO+nm8MzUb+0y2d2eOtXTZim3D22No+5q0Mv/EBHfjl00b148JPTdv2jB+E58JEJhDAQHnHOI7NQECBAgQIECgXYGYQKExTLyusBz/2lnFZf1syzq8HNo2VLwRZLYGmlvabaLtxgnsbIhZhwdxuNYQU4A5DthHAgR2m0D959n4CYriz6v6z6lu+jOqqvSsJjBqBJ4rVq2ZMJFR/KNeXd25Yd3a6n1MZGchQGBuBAScc+PurAQIECBAgACBpsDChXlynjwcvK9v6ZgQsy+ee9lc197EPFtHY1KeOqCM18Zw8e3rogqzMXy82QBvdlqg/o/+1irMONiOJvWpQ8wIBmLZ/np/9dkvAgQIzFeB+s+9ycLObqnqnMw+JjJamYPOagb3KvxcPWGzmKW9GXpue57nhI2sIEBgVgQEnLPC6qAECBAgQIAAgVRVe9RVl83wsgoytwWXefKeCDEnGwo33q+quMxVlgPbhos3Ki7rYePbA02T8oyX2/XP9X/M70qIWQeY0ZpuqnLadV1HIECgZIH483F80BnXE/+I081hZ1xjjKzYHnbmSs8cfkbl5/hl/bqYuOjBtCG/rs+vMXLCQoDAzAsIOGfe1BEJECBAgACBPUBgJqsuYwbXgYH+6j966gBzMH+u3kegGd/lSkzL7AlMFmLuqAozWtNaiVmHmALM2esnRyZAYP4KTBZ2dusQ9ql6oaent/Ecz22VnhF6Llm6fMzmMUN7BJ0ReFbB5/q1Y773gQCBnRMQcO6cm70IECBAgACBLhXo6enZNky8MVy8MUw8V1zmasvGMPLG+3aqLoOoesZlVF5Wk/S0hpZRjdkINU3Os3tupslCzDjzjoJMIebu6R9nIUCgOwTqP2vHV3buCVWdk/XgosV9adWqvXKF597VrPar8uuCngXNTWOERl3dWYee/lGzyeMNgbYFBJxtU9mQAAECBAgQKF2gDim3DxtvhJb153hdtGhxW5c5MjLSCC/HBZd1aBnBZlRgprS1rePZaGYE6v+wnonh5CoxZ6ZPHIUAgT1XQFXn5H0fQ9tXrd4eei5ZsmzMho1neT6Y6uHtGzesG/O9DwQITBQQcE40sYYAAQIECBAoTGDBgp7Ut2Rp9TzL6lmX8X5bxWUVXsZkPYuX5udltXFhOY9sVFvWQ8PjdduzL/NrPcv48PBQGwezyWwI1CFmHLs1yFSJORvajkmAAIGZEZgq7Oz2Z3W2oxf/ALsyB55R3RmvUe3Z+neW0dHRavKieBTK+vjJQ9xH8z+0WggQ2C4g4Nxu4R0BAgQIECAwDwXiIf4xk3gEl31L6pnGx36O4V/tLMNDQ41h4VXVZSO4jMBy+7MuGwFmO8eyzewL1EGmEHP2rZ2BAAECu0tgqqAzwrtbb752dzVj3p9nZQxrr0PP/D7+Ibd1ieHs69blsHPdg2ljnrHdsPZWHe/3RAEB557Y666ZAAECBAjMI4FGcFk/77IRXC6uqjHjfWMIeTvNrULK/OD+GCI+Zph4S5g5OqraoR3L3bnNTIWY0WZDyndnzzkXAQIEdl1gqrBTVedE2748jL3xD3775mdH75PGD2vflIexR+C5IU9aFIFnf/+miQexhkAXCwg4u7hzXRoBAgQIEJhrgZhpvBo6nv9SXgeZ8Rfy5jDyHGC2swwODGwLLbcFmFWQGRWY2z+3cxzbzJ3ATAWZQsy560NnJkCAwGwJCDo7l43Z2Vet3juHnpMHnps3bWzO0r5xw0PJczw7N7ZHWQICzrL6S2sJECBAgMC8EojnW9aBZTPIrKsvc5C5cOHCHbZ3aDDCy20zirdUYLZWZMYMo5b5L1CHmNHSmD03Fs/FrBj8IkCAAIE2BQ49/Lh06BHHNbfeU2dfbwK0+WbZ8pVV4BnP75yswnMg/x0rhrPXz/HcvHlDm0e2GYEyBAScZfSTVhIgQIAAgd0u0NMTE/dsr7yM90tawssINOP5mNMt8VD8+Av1wJbNVQXmlnitPtfDyPtTbGMpS6AOMj0bs6x+01oCBAiUJDBZVeetN13rOZ1tduKKlauryYqiyjN+JjzDMw9lj1ERjcDz/jRi0qI2ZW02XwUEnPO1Z7SLAAECBAjMssCiRYsbw8f7cogZwWX10wg0I8hsZ+Ke4eHhRni5LcTcEkPGW0LMmMDHUq5Ap0FmVNnEEv+xFD+N94111Qe/CBAgQIBAhwKCzg7Bptg8Ji1atWaftDoCz/wajxGql6HBwWbYGf//e/Om9fVXXgkUIyDgLKarNJQAAQIECHQmMFnFZRVibgs0e3t7d3jAmJGzWYGZQ8wtA3UFZuN1eHhoh8ewwfwXEGTO/z7SQgIECOzpApMFnYav79xd0ZsfIbR69T5V0FlXeLYeKZ7XWVd3RuA54u97rTzez1MBAec87RjNIkCAAAECOxKI518uzQ+YX7J0RX6NKsxtlZh9jWrMHe0fz7Wsqy23RAVma/XltveGj+9IsazvBZll9ZfWEiBAgMBEAUHnRJNdXRPPU4+qzsakRfukpctWNA85PDS0bWTG/WntQ/fl6k7P7mzieDOvBASc86o7NIYAAQIECIwViGHiEWIuzSHmkmXxmn/ya4SaO6rAjL+QtoaWY4aP5wBzME/sY+lOAUFmd/arqyJAgACB7QJTBZ1Xff+S7Rt5t1MCK1auybOzNwLPCD7jsUb1EhMVrX3wvirsjPcWAvNFQMA5X3pCOwgQIECAwASBPIHPdHP4VBOLm118AtsetmLx4lzJmyst2pm13DMy97Cbw+USIEBgDxCYLOg0GdHMdXxPfqRRDGdfs/d+ac1e+6XlK1Y1Dx7VnFHV2Qg8788TR440v/OGwO4WEHDubnHnI0CAAAECBAjMoMCBBx2Wjj7u1DFHFGSO4fCBAAECBPYAgfFBp+dzzk6nx2RFEXRG4BlVnvUSI4OqsDNPOBiBp4kmaxmvu0tAwLm7pJ2HAAECBLpaoK967uWyPHQ8/+TnGN11501paZ6JPJZ41uWGDbMzG+W5T74gHXDggdV5brzhp+nbl83esKwnnXNeuv/+e9PVV/2wOt/u+NXT05NWrFhZnWrz5k0pZm0vfZlpx733OSAdfMhR6dabr6toYlIACwECBAgQ2FMFBJ27r+djBEkVdu61b/UakxfFEpWcax+8Pz300L3pofvvSVu2bN59jXKmPVZAwLnHdr0LJ0CAAIFOBZbk518uy3+RW7Z8ZQ4yl1eT+kSYGaHmggVjx5LfcN2V6Xf/zx80TxHB3M033Zi+/MXPpTvuuL25flffnH/B09KBDzsoHX3MsenWW25O73rn2zs+5EEHHZye89znp/e9513pgQemDsf+9MK/TDfffGP6wPve3fE5dnaHhx9yaHrpy36/uftQfq7ody6/NH3hc5/Jf3keba5v580vP+d5+bmjA+kTH/9oO5t3vM18duz4YuxAgAABAgQKFxB07t4OXLSoL1d1NoLOCD376n/oH92aHnzg7vxzT/UzNDiwexvmbHuMgIBzj+lqF0qAAAECbQnkoLIKMZetTEuX5zAzv0agGf9CHdWEUy0DeRby/v5NacvmjdXr8OCm9Ht/8Kr0vSuvqH5OeMSJ6cyznlBVIP7Fn71uqsPs9PrX/smFubryvp0KOI859rj0ghe+JL3jbW+dNnw97PAjUlRR3nfvvTvdzk53rAPOqEyNAPeUU09Lxx1/Qvrxj65KH/zA+zo63Ctf9do86dJA+td/eUtH+7W78Xx2bPcabEeAAAECBLpNIILOk097XPOyPJ+zSTFrb+If/mMI+977HJh/DmiGncPDQ+mhCDpzVWcEniMj5Y/MmTVEB+5YQMDZMZkdCBAgQKAbBOKB6VV4mYPLpTnAbASZ+X3+PNUSVZj9mzekeKB6/7Ygsz8Hflv6N06oJtxv//3Ty1/x6vTlL30+ff2ir1SHjBAxQrC3/t+/q8LIWHnwwQ9PFzz1Z9M+++6b1q1dmz776U80Q8a+viXp/Auemo446ug87H1J/ovgA+kbX/9quv66ayc0cWcCzv322z/9/C88Kz8sfkXaf/8D0t1335Wva3OKKsn3v/ddzXOc/5Snp4flKtFYrvnJj9Ll3760+V1URcZySK60vO7aa9JIrqqMa/z8Zz6Vrrvumuq7CIbPO/+p6bgTHpEWZvdrrvlx2xWYdcAZLpdecnF1vBe95HfSEUceld78t3+V1q9bV62bzvGC3P44zqGHHV49LuC2W2+p9rn825c0h9svW7Ys/dwznlVdx5b8DKlLv/XNdOV3v1NtV/+KCs0Lnvr0tG92i6D0yisuT9+6+BtpJhzjHBGCn/2kJ+ch+SvSvffekz718f9Na9c+VJ0+2h/XcUk+38888Zy0uK8v31dfbra/bqNXAgQIECBAYHKBQw8/Lh16xHHVl57PObnRbKyNvwdG0LlXDjr33veA5ozs8czOuqozQs94pJOFwK4ICDh3Rc++BAgQIFCEQAwnjxkfly/PP/Gaf2LdVEsMndmcA8xGkBmBZn6fg834i1i7y2QB58vykPWH5ZDsr/78DfnB6wPp8COOTC/+rZdV7396/XXpqKOPTYsXL05v+us35vNtrraN4dnx3caNG9Kxxx6fVq5alYeS//uEkHNnAs699to7nXveBWnNmr2qttzw/7N35tFRlWcYf4UkEEIyZCG4IKtUAVFxQQTU057+4QZH61aLWm2rtagcbYs7GASpiltxL9ZWsdXirvVYEXAD2p5qoSJaZCdk3zcIIEnf502+6WQyyQyZSTKTeb5zhjtz73e/+93fF86588zzvu/mbzRXaI0JnG/7hHEjZyTyfI4ZO85ES98Q9TlzF5iztbio0OZbX19vvAbo2Dmzb7OH1ev0viFA5mtoPsLKIdatW/u5vPbKy0FxBhI4Txh/klx48Q/lLy8tMYEvGMfJU86wMP6xxx5n1//6qy/tul/8Z61x7KNi4a133C0Jmjdq06aNkj1wkOaRSveOj84jjxolV/3kWrufjSrQQiAfpo7WeTl3SSQ4HnPMGJl+5dXGHgLsCBW1IagvmDfH9h1/woly0SWX2fV35e6UjIxME6YfX/SwFKkwzUYCJEACJEACJBCcgH/YOt2cwZlFskdCQqKKnE2uTjg78TyFVq9RUKUlBVJSlCd1tU0/XkfyuhwrPghQ4IyPdeZdkgAJkEBcEOjdO8HEy34+QmZKf4/0bn548oeAsHKImBAv4chsel8r3+7f59/1oD87gbOgIF8gSEGEg9PPV9i7SUOmIS7Oy7lTQ3QO6C/aiXLX3fPN8blyxTITDg/REB8cQ8Px2Tn3Wnj2y39e0mJOHRE43QChhlYHysEJgfOLdf9Wp+r7KhLOMQcq3IcQA+9bMNecnz+++hq7J7hZ0c4+d5qcOnGSIFQ/WB7NQAKnEzRX6DU/UhdjMI7uPtsKUT9v6vly6mmT5ZknF8muXbnW/cabfq3C8z7bhx2/mnWHVgod4BWnsQ/FjyA8uxYOxxtm/lKyBx0qc+fcbusNMfmy6Vd6HcBO4Fyz+lN57923zdGL9XAM3By4JQESIAESIAESCE7A3825fl3nFWkMPpv47IECnebqbHZ2Ogqlxflir5J8t4tbEgiJAAXOkDCxEwmQAAmQQLQRQHEfiJfOkdmeKxO5MfdAyGx2YjpRs6FZOOyMe3MCJ1x4qCSZlNRHqqurZNEjCy28GdecO/9+EzHh5nQN/SrKy+ThB++zXeNPPFmOHXe8HDlkqDkMIXJu27pFnnv2aXeKbQMJnNdcd70MGTKsRT/3YcOXX4gTScMR5iBw/kNDx1csf19y5t0nry59SX+BLxa4NhGKP/6kU+QMDal2HHB9CNEQnZdoUSMXxu7m5b8NJHAOHzFSEKa+fJmG/3+0IiSOGLctgXPGjTebEOu7DomJSVY46u67bjUR9p57H7DUARBB22rhcJydM9/cs48+dL8Nj3UG2w1frtd1ekGcwLn4mScsFyk6QQzftnWz/GnJH+0c/kMCJEACJEACJBA6AX835/q1azRdUNvFFkMfmT0PlgDy3Q/MPkIGDjrCG2VVV1Oled/z7AVTAhsJBCNAgTMYIR4nARIgARLoVgKHHNKrWcT0qGPOhZirK1PDif0bBEyXIxOuTBM0VdhsbDy4atv+43bksxM4XQ5OF+LsKyzOW7DQRLNVn3zY4hIIT9+6ZbNX1EL1dRTVgUB68aXTzRH67O+ebHFOIIETQmBmZlaLfu4D8m3CWYoWjjAHEQ75KiFwQrBd+vKLml+0VGbccJMsenShnDbpdDllwkR58/VXVNhtGeK/Te+rrrbWTSngNpDAeaKKphdceIkJfxAAg3F0A7clcGJ/irox33x9qevq3WJ8uGhxb05s9B70exMOR4jDeXm5svjpJ7yjQlTdsnmTPP+Hxd6/hYcWLpDKiqa8nHBw7tTCS775Ur0n8w0JkAAJkAAJkEBIBMadMEk86U3PSwxZDwlZp3Xq1au3iZxZKnama5EitANqFnBCJ3KnspFAWwQocLZFhvtJgARIgAS6nEBSUl+vmOmcmfhF17/hQadW8/PU1lTaq6622sLL/ft152d/gRNzufSyy82N+dhvH5TioiKBQFVRUS5PPvZIwKnCWZiVNdBCudEhQ8VKiHE7tm8Tf4Fz5s2zbAw4RA+2uZBvCGnI99lWaytEvT2Bc/iIo2TqtAvkrTdelc/+9c+2hm5zfyCB8+czZlpOzwd+M89CxINxdIMj7BzOUeeSdPuvuOqnMnLkKG+qALffdwuHZUNDo9x7z2zf3S3eh8MRAnVSnyTL6YlBUdQJ64+CTu+89ToFzhak+YEESIAESIAEIkvAN2SdImdk2XZ0tLQBmU2uThU7EzSyBa2stFAK8rZJZXlJR4fleT2YAAXOHry4vDUSIAESiGYCCAHGg0taWoY3zDxRw7P9m7+YWavhKsiXGe0tkMCZmpomt9w+W+DI/P3ipwTVyRG+jbycqz/9WCuQH5CTTp6gv1IXy+daofusc86TyVPOFBT1QWVvVDxHtfNAAuf3tdr6GWd+T/MzviMFBXlSkJ/nDYUPxgrVLeEghKPzb+/91Sqpl2iYORoK76Sleez99TNv1kJBefLGa0ut2A3E2WAOTlQ5v+3OHMtnuXzZe1qF/SsrMnTyhFMFIerBmhM4URCoID9fjj3ueBM3UeEc80ALxtFd46xzpsqkyaeb2Jqbu0NqqjX36p7dMlSLBf3s2hnmpl2peT0Liwpk9OixVi393XfetNPPOW+auVFRRX7lig+kl7o6Uc3chfmjUzgc3fifqwi8Vv8epp1/oa31U48/Kvm6li5EnQ5Ot5rckgAJkAAJkEBkCSBkfdz4STYonILMyxlZvh0dLalP3+bw9cHSP7XpmRTFiCB0VleVd3RYntcDCVDg7IGLylsiARIggWgkgETiEDQ9ngzbhuLMjBUxMxBvr8DZnCfS9UGlbFTMhosQAuEPLrrUxCt3HEV3UMEcAmdK//5y3S9mWkVvHC8vK5Xkfinq/ixs5eBEwZsLLrpERo062kKqX3z+Odm48Ws3bNDt2edOlYmnTTGRrrGxUebceYudM3rMWPnR5VcFPH/2HbO06NF8+bvm4Fy5fJmFcaOyeRlC1NV9CDcphFIIiNOvuFqSk5O94+BeHmnON+ndGeDN4MFHChybaJgXQtpXr/pYVqkg7BqExfY4un6odo7cnaiQjrZm9ScmCOP9RC0yhOJHGMs134JQcH6iijnyobpWpvfg7wbtKEfk3MTcIOi69uHKD4wrPnsFzgc0RL2ywrrAuQqx+8UXnnOncEsCJEACJEACJBAmAReyTpEzTJARPh0pgw47Ypi+huvzcH8bvTB/pxSq0InILjYSoMDJvwESIAESIIFOIZCcnNIkaMKl6cnUhOH9Wl2npqpC80qWN4eax4Yzs9VNRGAHxLNBWkEbVbvLtcCQf2VxVO9uONCgRWiqI3C17hsCDlaPx2M5Ous7IVl8MI7B7hwPzshZCrGxtLRE9u/f3+oUdw3kSXVCY6tOYexI1v8n6SrAFqmIfaATi2CFMUWeSgIkQAIkQAI9ngBFzuhdYhSrhMgJsbNP32T7ARxuzoK87TER5RW9ZGN/ZhQ4Y38NeQckQAIkEBUEkDMTQqYHgqa+UA3ct+3TEOuaahU0NZTEbX2P8z0JkAAJkAAJkAAJkAAJRAsBJ3IyJ2e0rEjLeeC7hhM6EzT1FdJaOaFz715WXW9JKz4+UeCMj3XmXZIACZBAxAn0Tx1gYqYTNBMSmpJ/uwuhAFC1OjRr1KGJ7d763e4QtyRAAiRAAiRAAiRAAiQQ9QQockb9EmmUWIq5OSF2ItXQvn17JXf7RnN0Rv/sOcNIEqDAGUmaHIsESIAEejCB1LT0JnemujRTPekaxpvkvVuE0lZVlLQQNBsbG7zH+YYEuoIAHMRHDh1lDmJ3verKMsndsUn/NsvcLm5JgARIgARIgARIIGQCU747zfrSyRkysm7pmJKSZkLnoRq6jlaYv0O2b/lKvv22dcoh68B/ehwBCpw9bkl5QyRAAiQQGQJpWgwoFQWBVNjE1j/kvKa6UipV1KwoLxaISGwk0B0EUPF0yLDviCc9y3t5FAXYuf0bqaos9e7jGxIgARIgARIgARLoCAHf6uoUOTtCsGvPGThosAwfOUZQfR3fV7Zv2aDPhPyu0rWr0D1Xo8DZPdx5VRIgARKIOgLIXZOekS3pmdnq1MySPvpQ4Nv27K4zFxzEI4ia+/fv8z3M9yTQpQQobHYpbl6MBEiABEiABOKawJBhR8uQ4Ucbg1Ufvh3XLGLh5vulpKrIOda+16B4J5yc+bu2xsLUOccwCFDgDAMeTyUBEiCBWCfgK2pmqLiJz65BwKyuRP7MMvvVEzk12UggGgi4fFhuLnRsOhLckgAJkAAJkAAJdBYBJ3LSxdlZhCM/7tARoy19EUYuKsg1NydNGpHnHC0jUuCMlpXgPEiABEigiwi0J2rurqtRd2aJVKpDs0qFzQbNrclGAtFCwH2xcPPhFwxHglsSIAESIAESIIGuIMB8nF1BObLXyMo+XIZpyHrfvv2krrZKtqmbs1K/77D1PAIUOHvemvKOSIAESKAVgfZEzVrNTVOhuTRN1GR+mlbsuKP7CfiHo8OxuX7dmu6fGGdAAiRAAiRAAiQQVwR883GuX7uG+b5jZPWT+6WoyDlWMrMOtRn/d8NnUlqcHyOz5zRDJUCBM1RS7EcCJEACMUgAhVeyBh5ur8Sk/4efI9E2frlELk2GnsfgwsbRlH2/SDAUPY4WnrdKAiRAAiRAAlFKwEWUMJIkSheonWm5tUMXipztgIrRQxQ4Y3ThOG0SIAESaIsAKgY6UTNtQIa3W0VZsTo1i03YRCg6GwlEOwHfh1B+iYj21eL8SIAESIAESCB+CDBUPXbX2vf5kiJn7K5joJlT4AxEhftIgARIIAYJoAI6hM3M7MMkISHR7qB+T52GXxRIaUk+nZoxuKbxPGXfh0+Km/H8l8B7JwESIAESIIHoI+CeU/iMEn1rE8qM3PqhL0XOUIjFRp//AQAA///D16wPAABAAElEQVTsnQdgXMW1ho96r5ZsSZbcezfuBZveIQkpJCEhpIcUXgq9gwmQkJBKeghppJCE3sFgcMHGvXfLcpdkWdXq0pt/5Fmv1tvr3dU/CdrdW+bOfLPe8u05M3FjJ0zrFhYSIAESIIGoJJCckiqF/UuloH+xZGXn2fpwvOqoVFcdluPqv66uLtt23iGBaCAwaMhoGTR0tG7qpnXLpa62OhqazTaSAAmQAAmQAAn0IQLzz71K97Zi3w6pKN/Rh3oeG121/7y5fctqqa48HBsd68O9iKPg7MOjz66TAAlELYHU1HQZUDJYBhQPkuTkFN2Pk02NWmhCbDY11kdt39hwEuAXBj4HSIAESIAESIAErE7ACDIKTquPlOv2mTHEEZScrjlFyx4KzmgZKbaTBEiABBSBtPRMKSruEZuJSUmaSU31Uak8dpC/OvIZEhMEzAdNflmIieFkJ0iABEiABEggpgnwR9noH17z2RM92bh2qdTX1UR/p/poDyg4++jAs9skQALRRSAjM1tFaw5WcnOQxCck6MYjjeLYkQo5UVMZXZ1ha0nADQHzRWHp28+7OYq7SIAESIAESIAESCDyBIwc4w+zkR+LQFpgxrGm+phs3bQykKp4bgQJUHBGED4vTQIkQAKeCKSkpknZ4FE6FT0uLk4fjmjNY4crOC+hJ3jcH3UEzIdLfkmIuqFjg0mABEiABEigzxLgj7PRP/Tx8fEyaep8yczOld07NsjRw/ujv1N9sAcUnH1w0NllEiCB6CBQOKBUBg8dI6lp6brBiNbEf0ybiI7xYyvdE8D8sY6ltGyEpGVkysGK3dJ8srHXbjz3WUiABEiABEiABEjAagQmTpkrOXkFwh9orTYyvrWnX2GxjJ0wQ1qam3Sqeltbq28V8OiIE6DgjPgQsAEkQAIk0JtAklo0CGKzSC0ihFJddUQO7t8ljQ21vQ/kIxKIYgIm2sHbLjBl3VtSPI4ESIAESIAESCCcBJiBEk7aob3WyDFTdObc4QN7Ze/uzaG9GGsPOgEKzqAjZYUkQAIk4D+BgsISGTR0tKRnZElrS7Mc2L+TKRL+4+SZFiYwceo8yc7JFzP1grumMiLCHR3uIwESIAESIAESiDQB88Mtf5CN9EgEdv209Aydqo6Ak83rl0vtierAKuTZYSVAwRlW3LwYCZAACTgnAMkzdMR4KSkdpg9AOu6B8p3S0nLS+QncSgJRTiAnt0AmTp3rVS/4ZcErTDyIBEiABEiABEggQgRMmvqmdcs5T36ExiBYly0pGybDRkxQC7lWyZYNK4JVLesJAwEKzjBA5iVIgARIwB0B/EKIdIj8fgOkqbFeRW3ukurKQ+5O4T4SiAkC3kRxMnozJoaanSABEiABEiCBmCbANPXYGt4JU+ZIbl6h7Ny2TiqPHoitzsVwbyg4Y3hw2TUSIAHrE0Aq+tgJMwXpEIja3Ld7i3R0tFu/4WwhCQSBgDdRnIzeDAJoVkECJEACJEACJBBSAuYzTZ1Kad6kUptZoptAYf+BMnr8NDmu1kLYtvmD6O5MH2o9BWcfGmx2lQRIwFoEMP/gpLPm60bt37ddp6Rbq4VsDQmEnoC7KE5Gb4aeP69AAiRAAiRAAiQQHAKchzM4HK1QS3x8gkybdZ4kp6TK2pWLpVmtrM5ifQIUnNYfI7aQBEggBgmYuV3QtZ3b1qrUh4Mx2Et2iQQ8EzARD86OZPSmMyrcRgIkQAIkQAIkYEUCFJxWHBX/2zRs5AS9PsK+3Vvl0IHd/lfEM8NGgIIzbKh5IRIgARLoIdCvoEjGTpypH2zZ+L6cOF5JNCTQpwk4i+Jk9Gaffkqw8yRAAiRAAiQQdQQ4D2fUDZnbBufkqQUxp8yV+roa2bh2qdtjudMaBCg4rTEObAUJkEAfIZCYmCSzz75U93bPzo1y5FB5H+k5u0kCrgk4i+Jk9KZrXtxDAiRAAiRAAiRgPQIUnNYbk0BbNHnaAsnKzpU1K9+S5pNMUw+UZ6jPp+AMNWHWTwIkQAJ2BBCplpPbT+pqj8umdcvs9vAuCfRtAvZRnIze7NvPBfaeBEiABEiABKKRAAVnNI6a+zYPHzVJigcOkR1b1khV5SH3B3NvxAlQcEZ8CNgAEiCBvkLAfOhpb2+T1SvelM7Ojr7SdfYzBATi40JQaQSrzMzKlRGjJ+kWrF/9bgRbEppLd3WHpl7WSgIkQAKxTiDW3u9COV58rwklXc91m4wUrqTumVW0HFFUMlh9Pp0sByt2S/merdHS7D7bTgrOPjv07DgJkEA4CWRk5sjUGQv1JXduW6cWFToQzsvzWjFIIDFBJDkxBjsWg11qaRfp6orBjrFLJEACJBAGAknqvS5JveexuCfQpt5rOvhe4x5SiPdScIYYcASqz8jMVt/hzpHaE1Wyef2KCLSAl/SFAAWnL7R4LAmQAAn4SWDYyIlqFb6hcvTwftm9Y4OftfA0EjhNwAjO4cOnnd7Ie5YjsGfPGqHgtNywsEEkQAJRRMAIztHTR0ZRq8Pb1B2rdwkFZ3iZu7oaV1J3RSZ6t8+af4nEqf+9v/SV6O1EH2k5BWcfGWh2kwRIIHIE0tIzZcr0hZKQkKBX4MNKfCwkECgBIzgXLLhWLrvsm4FWx/NDQODJJ2+S7duXUXCGgC2rJAES6DsEjOD8xE1XyzmfmN93Ou5lT//5g//Iu/9dTsHpJa9QH0bBGWrC4a9/wuQ5kptfqBYaWqwWGmoMfwN4Ra8JUHB6jYoHkgAJkIB/BIYMGyelg0dI1bFDsmPrGv8q4Vkk4ECAgtMBiAUfUnBacFDYJBIggagjQMHpfsgoON3zCffeiVPmSk5egSx9+/lwX5rXCxEBs47C1k2rpKb6aIiuwmqDQYCCMxgUWQcJkAAJuCCQnJIqU1X0ZlJyimzesEJqa6pcHMnNJOAbAQpO33hF4mgKzkhQ5zVJgARijQAFp/sRpeB0zyfce43g3LRuudTVVof78rxeCAgMKB4kI8dMkT07N8qRQ+UhuAKrDBYBCs5gkWQ9JEACJOCEQP+iUhk19iw5UVMpWza87+QIbiIB/whQcPrHLZxnUXCGkzavRQIkEKsEKDjdjywFp3s+4d5LwRlu4qG/Xl5+fxk/ebYcKN8p+/dtD/0FeQW/CVBw+o2OJ5IACZCAZwJDh4+XgYOGS8W+HVJRvsPzCTyCBLwkQMHpJagIHkbBGUH4vDQJkEDMEKDgdD+UFJzu+YR7LwVnuImH/nrpGVly1sxz5diRA7Jr+7rQX5BX8JsABaff6HgiCZAACXgmMOms+ZKdk6+jNxHFyUICwSJAwRkskqGrh4IzdGxZMwmQQN8hQMHpfqwpON3zCfdeM18jU9TDTT5010tITJQ5Z1+mpxrDlGMs1iVAwWndsWHLSIAEYoCAWUlxxXsvS2dHRwz0iF2wCgEKTquMhOt2UHC6ZsM9JEACJOAtAQpO96QoON3zCfdeIziZvRVu8qG9HgRna2uLrF21OLQXYu0BEaDgDAgfTyYBEiAB1wRSUtNkxpwLpb2tVVYue831gdxDAn4QoOD0A1qYT6HgDDNwXo4ESCAmCVBwuh9WCk73fMK9l4Iz3MTDcz2kqKekpAmCVlisS4CC07pjw5aRAAmQAAmQgEsCFJwu0VhmBwWnZYaCDSEBEohiAhSc7gePgtM9n3DvpeAMN/HwXG/ClLmSm1cgy955Qbq7u8NzUV7FZwIUnD4j4wkkQAIkQAIkEHkCFJyRHwNPLaDg9ESI+0mABEjAMwEKTveMKDjd8wn3XgrOcBMPz/XGT5otef36y4p31bRjnZx2LDzUfb8KBafvzHgGCZBAFBBIVJNBp6dnqLlSWvV8KfZNzs7OsT1sbj4p7e3ttse4k5WVLXFxcb224Rgc60tBHQMGFElOTq4cOXJY6uvrvD79mk99RuLj4/XxK5YvlfJ9e3ude975F8mAoiK9be+e3bLy/eW99vNB7BPwVXB2d3dIZ1eDem4nSEJ8lgLU+zke3cS6pau7979j9CdO4lV/E0PStbaOo9It7ZKSWOayfgpOl2i4gwRIgAS8JuCN4OxsVa/56mNTfFLvavX2BLXdi7eCk0fUq3pdt+SM6fn81bum3o/qd3dLYoZIerFv76V1O7ukvaGnrtSCOMkc7Nv5vVvR84iC0xmVyG2j4Iwc+1BeeeyEGdKvsFhWLn1VfXdsC+WlWHcABCg4A4DHU0mABKxL4EMf/qhMnzlbjh49Io///DFbQxMSEuS+RY/YHuNOm5oj8+UXn5c1q1fp7YseerTXfjw4pur5pV09ZxzgsGHEyFFy7Wc/LxCtprz5+quy5J23zEO3t9dep85NSBTU89orL8nS997pdfyFF10qRcUlen/F/nL54+9/3Ws/H8Q+Ae8FZ7c0tW2Vjs4TNigQf9lpc22Po/1Oe2eVnGzbcUY34uNSJSt1+hnbg7GhsXWjSlFqUfXPdFkdBadLNNxBAiRAAl4T8EZwHnqtU+KU3Cw5T9nMU6VTOYjDb3RKekmc9JvqWVoeX9slzVXdUnrx6TpMXY63uF5KvzgpmO65Xvtz63Z0SVu9SIu6TkpenPSf49v59nWZ+xSchoQ1bik4rTEOwW7F6HHTpHDAQFm1/HVpU4sNsViTAAWnNceFrSIBEgiQwG133CsZmZl6jpRF991pi9I0gnPnzu2yZPFbMmz4CDl74TmSnJwiP//Jo1JVVSlDhw3XEZzXf+ErUnnsqLz80vPS2Nig7h/zqlWIEL35truksaFB/vaXJ6S29oRMPWu6dHV1yfJl73lVBw4ybXUmOE0lt95+j1RXV1FwGiB96NZbwXmybbu0d1arSMNB6r8SFenYIi3t5ZKRMiFmaBnBmZo0SEWnZtv6FSdJ6rEKsQlBoeAMAVRWSQIkQAJOCHgjOCEnEYEJOWkC9xv3d8uJzV1SOCNeUvt7jpT0RXC21nRLfLJ6l8l00mAvNh1+s1NFgFJweoEq6g6h4Iy6IfOqwSPHTJEBxYNk9ftvSUtzk1fn8KDwE6DgDD9zXpEESCDEBHJz8+R7t9yh07ZnzZ4r//n3P2TD+rX6qkYarvlgpTz7zH/0tnnzF8gll10pr7z0ghKQ79pad/+DP5B9e/fIk0/8zrbNmzsfv+bTMmnyVJswdTwnJSVVLrzoEhmq5GpqaqrUHD8u7y5ZLLt29o5AM231V3BOnzFLJk6aIgWFhSo9vl7eeesN2bFjm2Nz+DhKCXgjOLtV2nZ9y0pJjM9RQnOi0562d9ZIW8dhJT6b1f54FTmcI2lJw/R9pLWfbNumhH+SSm9vVIK0VMtSlRAu6ckjJT4uTdeJ45rbd+tjkAKfrERqcsKAXtc7qaJIkxIK1THNqo4qvQ/XSUzIk9aOgz31drepayXr41ISB/Y6390DIzgzksfr+pwd66mNnve3KRY7NSdIVIji7u5WRnA6g81tJEACJBBEAt4IzuZj3VK9ukv6TYmX9IE9MrNqVZe0VHdL2aUqIvOU32w61C2N5epdrLVbknLiJH9ivBKVPY01gjNvbLw0qGMSUkSlq8dJsjrOlLrtPRGYeJw2wHmK+Ul1jQYlVzubVR1pcZIzMk5SC0/XgXPdCU53bcS5joURnI5EIvuYgjOy/EN19eGjJknxwCGydtXbcrLp1DwToboY6/WbAAWn3+h4IgmQgFUJnHv+hYI5Kh/5/n1KdN4pSOE2ktJIQ3vBufDc8+WCCy9RaerPCea7NMVfwfm9m++QFCUuH1p0j6mq121xyUD56g3fkt27durI0FGjxkhWdrb85ck/9JKcpq3+CM6Ro0bLddd/SfaX79Pzf5aWlklNzXF5+l9P9WoLH0QvAW8EJ+QlxGKakpGOwtH0vLF1gxJ1HUqCQtq1SkdXrRaXWanTtMRraFmtHier+SbV/5QwTYhPV9HIrWqO2FTJTJmqtnZKQ/NKddul5WKXEpiQf+nJY5SoLDCXkbrmpXpOTByXEI+QF/XFLy5DtW2U1DcvV/Vl6rohUvEfJGmPaLVV4fKOEZzJicWn6u45NDE+V7U9xWMbvelDfcsq1f82LYs7ulR+oaoVXJii7nJYuIMESIAEgkLAG8GpXpLlwCudWjoWTOtJ+z6o0siTMtV86PN6HmP+y/pd6r0nVSQpO06niUNilpzfk5JuokAhQ1NV+jmiNFFKIUhPFcy92V7fLSePdkuaigp1TFGv3dYlDXu7dRRpuhKgmG9T/e4n/ef2tMHU40pwemqjOd/+loLTnkbk7+fkFsjEqXOlYt8OqSjvHbwQ+daxBf4SGDpivAwsGy7rVy9RWXrer6vg7/V4nn8EKDj948azSIAELEzgxu/cLGmpafKDhx/Qkg9p6Pffc7uSE+pDbULPHJxYtOf9FUtVOvoIQaQjFvT5yY8ekRMnamw981dw3nP/Q3pBoZ/++Ae2uuzv4FpYgKizs1NvTkpKkrvv+75s3bJJ/vnUX22Hmrb6Izg/c90XBJLz3rtutdXHO7FFwBvB2dpxSKWj79Pp6JB9zgqEI+bkNAWRmFhAJzttjhaaEJwZyeO0/Gxu36OE3oxTEZdVkp06W0Vu7lHHH1Gyc7KSi1i8SKShZa16jifobaZeCE4UCEGIwZ6CL49x6ntp7zbgmpCO2amzTh3n/sYITsejjNj11EZP+7uU2GxQgjMtabgSr8WKS4eKjH2fgtMROB+TAAmQQAgIeCU41XWPLe2SjpPdMvCiBOlQGaRH3umUXBWNmTVMvc+oj1wQnslKbA6Y3/Oe13q8Wyrf75IBZ8fr7UZw9p8dr+fXRCTm8fVdUrQgXpKyekdgOpuDU701yMHXVep5ukjxOaelKBY6gki1L84EpzdttK/D3KfgNCSscUvBaY1xCHYrBg8bK2WDR8rGtUulvu7098VgX4f1BUaAgjMwfjybBEjAYgRSUlLkrnsflLVrPpBn/vtvOWvaDPnIRz8hf/rjbwWrjRtpaJoN6dnU2CgvPP+MFoxmO279FZx33/egNKj5N10JTtSNOTknTJwsZYMG64WIIDmRDv/EH36D3bqYtvojOKdNnykfvvrjUldXKzt3bJfVq96Xw4cPmap5GwMEgiU4EW0JQYloT6RcI1IT0YlmcR7IRshLRHdiPk8sTtTafkBJzkOSo+43tq5TEZdNSlOe/jIHOYmSkzZP/e35UgjBiZR2RIY6lo6uOtWGY6qeWi0PjfD0diEkIzhdpah7amNj63q3fWhVKfwQxWCChYtQkPofp/7HCE7H0eRjEiABEgguAW8FJyInEUFZckGCNB3oFizog/uQi2213XJsWZd+S0JEpSmQkpmD4iRPpaprwakiM8su6zmgU60jcvitTsmfFC8ZZZ4FJyI+K1d0Sc4otZCfSkt3V5wJTm/a6KxOCk5nVCK3jYIzcuxDeWUz9cCmdculrrY6lJdi3QEQoOAMAB5PJQESsB4BRGN+6CMf09GR7e0qnVZFbEIeYg5OzMVppCEE6HNqDk4s/OOq+Cs4v3vTbZKWniHff+Bup1VPnnKWfOwTnxJEkSJqs76+Tj5+zbVy8ECF/OF3v7KdY9rqj+BEJaNHj5VzzrtABqr0dESMLlu6RF59+UVb/bwT3QS8EZxYOb2pbYst8vDMHner9PAVenNSYpFKv87SohPCsEdExqnIxd6CE9KyRQvOg1pw6mhLlbqOaEnH4piinqyukZY0otdhSEeHYEQqeZKatxMp8C3t+7VQhUD1pngSnJ7a6Gk/5CaELoSriXbFOaIiTyk4vRkhHkMCJEAC/hPwVnAiUhLiMHd8vCD6srOl25Z+jlXLMScnRKXjfJhYKAgRmmYOTrOKuqkP8hMS1L44i+A084DmT1ZCtLT38fbn4r4zwelNGx3rwWMKTmdUIreNgjNy7EN5ZQrOUNINXt0UnMFjyZpIgAQsQOCLX75BBg0eIu+9+7atNTNmztGCD3NiGmloPwen7UCHO/4Kzqs/do2O0PzVL36i5790qFa+/q3vSEFBoTxw7x16V36/AvnO927V82XaC06kst+36BGdSv/yi887VqMfIx0fBSvAuyoQvDd++2ZJz0iXRffd5eowbo8yAt4ITpNKjdRxRGE6FkReIroxNWmoWkCoZ1GfptZNah7OOq8FJwRqR2etlp0mWtPxOniMCE6kdyPN2760tFcoeVihrmcXHanm5EQcabAEp6c2etrfqebcxKrp9hGidc3LlJRNouC0H0zeJwESIIEQEPBWcOLSWhyqeTcRTZmpZCbkJIqRlVgYyHHeTH2A+hOo4OxQa/UdWdypV2zHyu3uytElPZkORQtPh5N600ZndVJwOqMSuW0UnJFjH8orU3CGkm7w6qbgDB5L1kQCJBBhAhCC9z7wsBw8WCG//83jttZcevmVMnfeAi0BsdAOpKE7wYkIS0Q8QlSeUMe/vfhNqa09oSMubZW6uZOZmSW33H63tLa2yn/Uoj61Kk18slpVHY+XvPOWWrH9Cpk3f6H8/S9/kpbWFrnyQ1dL//4DzhCcuMTXv/ltycvvp6JNn9YroWPBJPtygVqNfcHC8/QK8EeOHJIjKg0d1zn/gov1okI71arpeXn58rkvfEUqK4/24mJfD+9HHwFvBCd6hZW/2zsrlVwsUgsNlagU8BZpUUIxM2WK2qtS+JRMxKI/6Wqxn7aOSiUbD2gY3kZwYsGdJiX/UEdq4mA1n226Ep410qlWZbdfJMiV4DTyECu0JyX017KzvROpP/FBE5ye2uhpP4D0CM0UHamKOUoRNcpFhvRThX9IgARIIKQEfBGcNRu7dHo6GoSFfVLyTkdSHn2vSy360y3Zw9Xq54PipUNFeDbuU49VOrk3EZzdKukHaesoR9/rmc8T0ZoomHcTBeKyXc3/mTVEXWNovF6QCLIVc4HaF6TP1+/p2Z6cI3oO0LhE1Ou+jfZ1mPsUnIaENW4pOK0xDsFuBQVnsImGpj4KztBwZa0kQAIRIDBi5Cj53Oe/rNKwX1Dp2O/aWjBwYKl87Rv/J+++s1gWv/W6FpyrP1ipU9RtB9ndWfTQmdGQR48ekcd//pjdUe7vlpYN0m1JVaupm4IozBXL35OMzEz52g03Sm5ent5Vc7xap7RXHjvaK0UdO8vKBquU+4/KgKJifezdd/REbOoH6g9k6kc+9gkZOXK0lrJ/+/MTskNJzU9++joZP2GiOUynwT/11yfl0KGDtm28E90EvBWckJg9krPK1uE49S0KCwShIHoSKec4DiUxIU8JyhMOEZxT9MromIPTMUUd57SpOSqbVRq3qQPbkpWsxArppkAQ9qSo947gxP6m1s169XbcRwo4JGln18mgCU7U66mNnvb3zMO5F1WpombfVJO4oa1MUe8hwr8kQAIkECoCvghOs3BQnPKJ9qufo22IkESaOlZBNwVSccA8NZ2RSlM/I4KzTUWEvtGpo0CRom5S0M259rdll/dEYkKAVq1UkrPx9N4MdW7+qUhSsxVtqdnQJS3Vqi3q/wUq4hOrsntqoznf/paC055G5O9TcEZ+DELRAgrOUFANfp0UnMFnyhpJgARIwEYAAjInJ0eqqqqkrU19mrUrObm50tXZpRYkqrfbGry7KSmpKhW+QEVy1khz88ngVcyaLEHAe8FpmqvmI8NiQOrbnFkox+zBtysIRcx/6S7N/PTxzu91qajNbhXiEh+fpuWf86Ocb8XCRN1qtXIsRBTK4qmN7vd3neKUoZp4OirIVXuffPIm2b59mRLIarZO19P9ujqd20mABEiABBQBXwSnN8C61MJCHY3dkpCqlsc7/Tu0N6d6fYy5RmK6+iks2evTbAea871pIwWnDZsl7lBwWmIYgt4ICs6gIw1JhRScIcHKSkmABEiABEggtAR8F5yhbQ9rP5MABeeZTLiFBEiABHwlEGzB6ev1rX48Bae1RoiC01rjEazWUHAGi2Ro66HgDC1f1k4CJEACJEACISFAwRkSrEGtlIIzqDhZGQmQQB8lQMHpfuApON3zCfdeCs5wEw/P9Sg4w8M50KtQcAZKkOeTAAmQgAsCZYNHSungUbJ14/tSV3vcxVHcTAL+EaDg9I9bOM+i4AwnbV6LBEggVglQcLofWQpO93zCvZeCM9zEw3M9Cs7wcA70KhScgRLk+SRAAiTggkDpoBEyZPg4JThXSs3xYy6O4mYS8I8ABad/3MJ5FgVnOGnzWiRAArFKgILT/chScLrnE+69FJzhJh6e61FwhodzoFeh4AyUIM8nARIgARcESkqHyrCRE2X75tVSXXXYxVHcTAL+EaDg9I9bOM+i4AwnbV6LBEggVglQcLofWQpO93zCvZeCM9zEw3M9Cs7wcA70KhScgRLk+SRAAiTggkBR8WAZMWay7Ny2TiqPHnBxFDeTgH8EKDj94xbOsyg4w0mb1yIBEohVAhSc7keWgtM9n3DvpeAMN/HwXI+CMzycA70KBWegBHk+CZAACbggUDigVEaPO0t279ggRw/vd3EUN5OAfwQoOP3jFs6zKDjDSZvXIgESiFUCFJzuR5aC0z2fcO+l4Aw38fBcj4IzPJwDvQoFZ6AEeT4JkAAJuCDQr7BYxk6YIXt3bZbDB/e6OIqbScA/AhSc/nEL51kUnOGkzWuRAAnEKgEKTvcjS8Hpnk+491Jwhpt4eK5HwRkezoFehYIzUII8nwRIgARcEMjL7y/jJ8+W8r3b5OD+XS6O4mYS8I8ABad/3MJ5FgVnOGnzWiRAArFKgILT/chScLrnE+69FJzhJh6e61FwhodzoFeh4AyUIM8nARIgARcEzAecA0pu7leSk4UEgkmAgjOYNENTFwVnaLiyVhIggb5FgILT/XhTcLrnE+695vN/xb4dUlG+I9yX5/VCRICCM0Rgg1wtBWeQgbI6EiABEjAEMrNyZcr0BWr+zQo1D+d6s5m3JBAUAvaCc+LE84JSJysJLoG33npCtm9fJi3tIl1dwa2btZEACZBAXyFgLziHjB/UV7rtdT/ff3GVvPvf5dKm3ms6+F7jNbdQHUjBGSqyka2XgjOy/L29OgWnt6R4HAmQAAn4SCA9I0vOmnmu1FQfla2bVvl4Ng8nAfcEjOB0fxT3WoEABacVRoFtIAESiFYCRnBGa/vD1W4KznCRdn8dCk73fKJ1LwVndIwcBWd0jBNbSQIkEIUEUlLTZMacC6Wh/oRsWPNeFPaATbYyAQjOhHgrt9D3tuXmFeqTak9U+X6yhc9o72QEp4WHh00jARKwOAEIzvg46zQyNS1dUlMzpKWlSVqaT1qmYZ3qvYYRnJEfDgrOyI9BKFpAwRkKqsGvk4Iz+ExZIwmQAAloAklJyTJr/iX6w+/q998kFRIgAQ8E5p97lT5i6dvPeziSu0mABEiABEggMgSM6OAci5Hhb/WrUnBafYT8a5/5d79p3XKpq632rxKeFXICFJwhR8wLkAAJ9FUC8fEJMnfh5dKpflJf8e5LfRUD+00CXhOg4PQaFQ8kARIgARKIEAEjOig4IzQAFr8sBafFB8jP5pl/9xScfgIM02kUnGECzcuQAAn0TQJzF1wu8QkJSnC+rERnR9+EwF6TgJcEKDi9BMXDSIAESIAEIkbAiA4KzogNgaUvTMFp6eHxu3Hm3z0Fp98Iw3IiBWdYMPMiJEACfZXAlOkLJTMrR9asXCzNJxv7Kgb2mwS8IkDB6RUmHkQCJEACJBBBAkZ0UHBGcBAsfGkKTgsPTgBNM//uKTgDgBiGUyk4wwCZlyABEui7BEaPO0sKB5TK5vUrJNYWTum7o8qeh4oABWeoyLJeEiABEiCBYBEwooOCM1hEY6seCs7YGk/TG/PvnoLTELHmLQWnNceFrSIBEogRAmWDR8ngYWNk57Z1Unn0QIz0it0ggdAQgOCsO1Etm9YvD80FWCsJkAAJkAAJBEiAoiNAgDF+OgVnbA4w/91Hx7hScEbHOLGVJEACUUqgoLBExkyYLuV7t8nB/buitBdsNgmEnoD5QkDBGXrWvAIJkAAJkID/BCZOmSs5eQXCSC7/GcbymebzDCN8Y2uUKTijYzwpOKNjnNhKEiCBKCWQmpYu02dfINWVh2X7ltVR2gs2mwRCT4BfCELPmFcgARIgARIInACnUwmcYSzXwM8zsTm6FJzRMa4UnNExTmwlCZBAFBOYOfci3fpVy1+P4l6w6SQQWgLmgyMjHkLLmbWTAAmQAAn4T8C8VzHbwH+GsX4mBWdsjrD5t8/IbWuPLwWntceHrSMBEogBAmPGT5eC/iVcST0GxpJdCB0B88GRgjN0jFkzCZAACZBAYAT4XhUYv75wNgVnbI6y+bdPwWnt8aXgtPb4sHUkQAIxQKCkdKgMGzlRLTS0Vi00dDAGesQukEDwCZgPjhScwWfLGkmABEiABAInYN6nUNPSt58PvELWEJMEKDhjcljF/Pun4LT2+FJwWnt82DoSIIEYIJCVky+Tz5ovRw6Vy56dG2OgR+wCCQSfAD84Bp8payQBEiABEggOAfMehdr4Q1xwmMZqLRScsTmy5jWAgtPa40vBae3xYetIgARigEBcfLzMnn+ptDQ3yboP3omBHrELJBB8AlyVNvhMWSMJkAAJkEDgBIywQk2Um4HzjPUazPOFz5XYGmkKzugYTwrO6BgntpIESCDKCYyfPEfy8gvlgxVvSGtLc5T3hs0ngeAT4Kq0wWfKGkmABEiABAIjYKQGaqGwCoxlXzmbgjM2R9q8FjCC09rjS8Fp7fFh60iABGKEwOBhY6Vs8EjZvmW1VFcejpFesRskEBwC5ssAV6UNDk/WQgIkQAIkEDgBk1mAmig3A+fZV2own2n4nImtEafgjI7xpOCMjnFiK0mABKKcQL/CYhk7YQbn4YzycWTzQ0PAfGjkl4HQ8GWtJEACJEAC3hMwgsqcwfcmQ4K33hAwzx8+b7yhFT3HmM+qjOC09phRcFp7fNg6EiCBGCGQkJAo02adJ3Fx8bJ21dvS3t4aIz1jN0ggcAImSoYfGgNnyRpIgARIgAT8IwAxNWjIKMnJK9AVIKugonyn1NVW+1chz+qTBCg4Y3PYKTijY1wpOKNjnNhKEiCBGCAwfOREKS4dqlZS36QiOffFQI/YBRIIDgHOvxkcjqyFBEiABEjAdwKOYhM1MPrOd448o4cABWdsPhMoOKNjXCk4o2Oc2EoSIIEYIJCbVygTpsxRkQDHZdO6ZTHQI3aBBAInYL4IcP7NwFmyBhIgARIgAe8JUGx6z4pHek/AfK6hJPeeWTQcScEZDaMkQsEZHePEVpIACcQIgcnTFkhWdq4SnMuZ8hQjY8puBEbAfGDkF4HAOPJsEiABEiAB7whQbHrHiUf5R4CC0z9uVj/LfF7ldzhrjxQFp7XHh60jARKIMQKlaiX1IWpF9SOHylWq+sYY6x27QwK+EzDp6fzA6Ds7nkECJEACJOAdAUinnNx+MmjoaNsJyBxAVk1F+Q7bNt4hgUAJUHAGStCa51NwWnNcHFtFwelIhI9JgARIIIQE0tIz9WJD7W1tXGwohJxZdXQQMB8WGb0ZHePFVpIACZBANBGAaEKxXzgIj7l4ECiwhIoABWeoyEa2XvOZlT/IR3YcPF2dgtMTIe4nARIggSATGDthhvQrLOZiQ0Hmyuqij4CJ3qTgjL6xY4tJgARIwKoEIJicSU20l6uiW3XUYqddFJyxM5b2PaHgtKdh3fsUnNYdG7aMBEggRgn0LyqTUWOnysmTjbJx7VLpaG+L0Z6yWyTgmoD5oEi56ZoR95AACZAACXgm4CpSE2cyWtMzPx4RXAIUnMHlaZXazOdWRnBaZUSct4OC0zkXbiUBEiCBkBIYP2m25PXrLwf375LyvdtCei1WTgJWJMDoTSuOCttEAiRAAtFBwERporU5eT2p6KbllJqGBG8jQYCCMxLUQ39NCs7QMw7GFSg4g0GRdZAACZCAjwSyc/Jl4tT56qxuHcXZUH/Cxxp4OAmQAAmQAAmQAAmQAAmQgJUIUHBaaTSC1xYKzuCxDGVNFJyhpMu6SYAESMANgcFDx0jZkFFSXXlYtm9Z7eZI7iIBEiABEiABEiABEiABErA6AQpOq4+Qf+2j4PSPW7jPouAMN3FejwRIgAROEYiPT5BJU+dJZnau7Ni6VqqOHSQbEgg5gfT0dElMTOp1ne7ubmloqO+1zaoP4uPjJTMzSzfv5Mkm6ejosGpT2S4SIAESOINAYmKipKdnSGNjg3R1den9yckpkpqaKvX1dWccH+kNxcUlMmPWHHn5xeei/vV2+oxZkpGRKUveecsrrCkpKZKSkqqPxVhhzGKtpKamSXJysnR2dUpTY2Osdc9lfwYPGSp4Pvz36X+6PMbfHRSc/pKz9nkUnNYeH9M6Ck5DgrckQAIkEAEC/QqKZezEGepDZb1KVX9POjs7I9AKXrIvEfjeLXdIbm5ery5DcN5z5y29tln1QWnZIPnqDd+yNa+9vV0+WLVCXnvlJZsssO30cOfj13xa2lpb5bln/+vhSO4mARIggeAQmDd/gVxy2ZXym8d/JocO9fywecWVH5ZZc+bJg/ffLa2tLcG5UJBqmTFztlz14Y/Kww/eqxZHPOlTrSUlA+WaT31G/vLkH+X48Wqfzg3FwV/+6jckNy9PHn3kQa+qx3vEpMlTbce2qveL7du2yEsvPCfNzb6xsFVisTtf/9Z3BBIbBZ8FamqOy7+e+qscOXLYp5aGY6yD+Z694Jzz5MKLLtWffdDvYBYKzmDStE5dFJzWGQt3LaHgdEeH+0iABEggDARGjJ4sRSWDhatJhwE2L6G/yKSpKM6PXP0JyczKkr/++Y9arO8v3xcVdIzgXPn+cqnYX66/fI4eM1a2btkk//j7X3zqw3e+d6uSCa3yq1/+1KfzeDAJkAAJ+Esg2gQnIuZLBg6U3bt2+vwj0shRo+W667/US+b6yy0Y5/krOH//m8clPSNDZqpIVvRpz+5d8uQTvwtGkyJeBwRnYWF/+dtfnlCfDwbKuedfIElJyfLjRx+Sutpar9sXjrEO5ns2BafXQ8sDTxGg4IyOpwIFZ3SME1tJAiQQwwRSVHrQhMlzJC09U8r3bJODFbtiuLfsmlUIfP2b35Z+BQWy6L67bE1C+vonP32dNDU1SmnpIHl3yWKZMHGyJCYlyv+e/peOwOk/YICce96FgmgNTLNw7NhRefGFZ6T2xOmFsoYOGy4XX3qFpKmUy7VrVktBYaHs3bNb1q3tmWsWaeYXXHiJjB47ThITEmT79q1eR2AawYl0yRXLl+q2f+FLXxNc89EfPCj1dXXiqY0XXXyZoJ5Bg4foiJUDFft1PatWLpfNmzbq+/PPPkcmTJosWUoCNzY0yKaN62Xpe0tsrHiHBEiABPwh4I3gRMTkCRVJl52TK6NHj5E96vVz8Zuv95pK5PwLLpak5CQ5dPCAzJ2/UDJV6vXqD1ba0q8HDiyViy65XL/OQ1ThNdNEjKLdnl6n8Tp6yaVX2rr4j7//WRAxb1+Q4jtx0hT9Gl9fXy/vvPWG7NixTQuzKz90tWRkZkr//gPk6NEj0qyiP3E+flQzxVMbEW159UevkTffeFUQSTpk6DCdxv/0v57S7zme3kuysrLl6o9do9uH1/m8/H6SnZ3tcwTn3XfcbJosd9/XE/1p3jvxvnnFVVdLmXpPaVHRtyuWvafe9z6wHe+pD0iBnzvvbBk7foKkpaVJdVWVvPj8M70iXs859wKZOHmKfr/ct3ePes991jZdALgg3bp8316ZM/ds9Rypk9dffVkOHz5ka4O7OxCc+YrLg/f3fBbo169Avq1+/Nu2dYs89bcn9anuOEOOBmOscQ08p/GDZaricPTIEXn5peelRkX+evOe7a6N6AT2o50jRoyS2toTcry6Sqap5y+yVxjBqYeZfzwQoOD0AMgiuyk4LTIQbAYJkEDfJpCT20+lqs/UcyPu3bVZDh/c27eBsPchJ+BMcObl5ct3b75df4FMUPISX04rjx1TKX256svWcfnVL34i511wkcyaPU9FsOyUuLg49WVknCQoSYn0xZaWFjW/WYbcdud9OtIHX8SGDR+hj1u/bo1trquvfeP/BF9sD6v0TMxrBtlov99d550JzilTp8lHP/5J+dc//qoFpac2QjAUqZS88RMm6etv27pZX3LjhnWya+cOff+e+x9SKXqHpPLoURlYWibFSuhCqEISsJAACZCAvwS8EZy33XGvfv1FhDkEJmQkbn/761/YLvuNG7+rRSJefyFsTtTUSJaSdz977IdaBH7xyzdIW1urjrwcrqQO5ll85Pv36TRzb16nCwoK5fwLL1aCskj/aOSYom4i9hD9j3TmUvU6ifRmyEe8l+B1GNOhQEri/aJB/VAEwfn8qSlBsN1dG9HRsrLB8pUbvqnPQz8h8SBMX3rxWf1a7+m95Nbb79GZCngvwg9aqAPznPqaom4EJ97z8N7Q0dEh33/gbjU/Z4rcqsYK86ru2rVD+hcO0Cnw5r3Imz5AZkMUb92yWY1Nk4wcOVoWv/W67QdB7IfERLsxRUBRUbHmjfdjFEwBgB8i8V66b+9uJTuH6ffc++6+Te/39MdRcOJ4/R6upkz64SOL9OnuOAdrrPF8Rt/q6mr1D6LggEyNd95+U7x5z3bXRnTiE5/8jJLxk+WYku2ISsbnGxQKTo2Bf7wgQMHpBSQLHELBaYFBYBNIgARIAAQK+pfImPHTNYztm1erX/F9m/+IFEnAFwLuBOff/vyE5OTm6mgHREUuWHCuTFYSEV/okpKSekXxjFLRRZ/93Be1vISknDV7ropm+Yj86Iff1+lt4ydM1FGhRmCOGDlKPvf5L8uSt9/SUTlo86WXX6XPe+DeO/SXNHf9cCY4zRflt954TX8Z8tRGU7+7dDfHOr57022SrCJtIAhYSIAESMBfAt4KTqREQ1JBXEFijR03QT821zVC6H//+ZdNhiFKDccjAg9ycdF9d+opSPB6dte9D+rXXcgzT6/T5hq4dTUH52eu+4JO1773rlvtD+9130hQ+/lGzQGe2ojjjOBsUNGhj/3oYVvUIvqJH8/cvZdAYt18213ywvPPyColyrCI0533LPJLcGL6E0hhiMiSgaXy9uI3dEStmTv1t7/6uRxUAhrlW9++SYnlNsE2FHd9wFjdcfcDKhq1xulUKRCq9z/4A6lW0YY//8mjuj78mIcf9X7xsx/pHyCN4Pzj73+tBfDkKWfJxz7xKdt+fZKbP84EJ/qASE48/7x9zw5krMeoH0qvve7zsnLFMh2diuai74iObWpqsrXe1Xu2N23E2FdUlMtf1XywKEZ+U3Da8PKOBwIUnB4AWWQ3BadFBoLNIAESIAEQGFBUJiPH9kxov+6Dd/TiQyRDAqEg4E5w/u7Xv9RRm4h4gHRceM75Mu/shXL/PberKKAUmT13nowdO15H9cTFxWvp+erLL8iype8K0sUHlpbaUt+RfnfXvYtsEZoXqvTwBQvP1V9Uu9SqrSgJCYk6sgZfPHbu3O62u84EJ6KbcN03X39Vp2d6aqO5gKsvS9iPOs+aNkOGDx+p0+UQoYOoHfBgIQESIAF/CXgrOLFi9y9//pi+zJy58+WyKz4kDy2617a4DQTngAFFNglq3x5IMUhARHCagtdFpL0/9qNHPL5Om3Nw60pwTps+Uz589cd1xN3OHdtl9ar3z0iLdie9PLUR1zZycMXy91T0/PPYZCue3ksKVOr0pZdfKY89+rCcUAIRBZGJnZ0dPkdwmotiIchd6j3q3//8u/6hD3IQC/TYc8b8lZBzEL8QmO76gHqv/ez1Mka9nyKjAfOcIlPArNaOHxpvuuVOHcmItHWUCRMnKeH9WTFiG4IT2Qi4HlKts3Ny5OZb75Jn//e0rFm9Sp/j7o8zwXnjd27WUbh4z/fE2bxnBzLWGKe58xbI4+r5jukMXBVX79me2lhZdUy+d/MdYj6noP5PXXudjBs/kRGcrmBz+xkEKDjPQGLJDRSclhwWNooESKAvEygeOFSGj5qoESxfgpWhubJ6X34+hKrv7gQnIk8wbxi+RCGCY+G558vZKooTX3ZMtMiG9Wt1GhkigxCx+fprL8t7S94WfOnGvGcm0hFfsvFF1kRwmnQ7fPlyXC143769Suo3uu2yM8EJEfmRj35C/vnUX2TL5k0e22gu4OrLEtLRwQdpn+vUHKKVlUdVquYlOiIKDFhIgARIwF8CRlbaRzWaSED8gII0bqSoY37jP/3xt/oyWNwG8wc+8tD9ttdIvNamqLRzCEvHsuihR/V8m0vffbvXLqQ4Yz5kT6/T9ie5Epw4ZvTosXLOeRfoaTwg9ZYtXaIk0ou2091JL09tRCVGDmLeTkhU++LpvQTvWZDJhinOxWt+onrP8jVF3chDx7kaUV+GihR99n//tm+avo/3Ihzvrg84EGnziKjFf/kqahLnIIsC4hDzoH7r/27S2Q7IekBBqj0WS3pJzcP5vop4xHsyMinMnKCIXL31jnv0VAAfKOnsqTgTnLffdb/6Qa9dc/LE2bxnBzLWmCd16lnTdZYIprpxVVy9Z3tqI6Zb+NJXvi7/+fc/BJ9dUPDvCf+uGMHpija3OxKg4HQkYs3HFJzWHBe2igRIoI8TKB00QoYMH6cprFr2uooOcP2Br4+jYvf9JOCv4ISsxJxrT/zhN/rK81VkJxYUMoITiwTgCy++bCGqxXwZM4JzpvoSd6USos898x+9IIavzXcmOL/69Rv1nJ4/fHiRjnzx1EZzTaTh4cvlT3/8A7NJ3553/kVy7vkX9or8wbxrOl2QgrMXKz4gARLwjYCZMxjyErIRxaQdm7kevRWcyUrW/cTh9Qv1IR0XUYtmnkZssy+eXqftj3UnOM1x+KHrxm/frFYaT7eJNuwz04f8+U+/19GJ5njcemojjjFy0Nn5nt5LBg1SIvBr39ApySbKEO8NiI70VXCacUGb7Mtnr/+ijvI3UwHY7zP33fXBHGNuEbH53ZtuV3Np7tGrtCNz4N4HHu61art5fzJMgi04zQ98WFgPkaqeOJu2BzLWiN5EFCfmZ3UnZV29Z3tqI96771v0iKxVEa3PnZoD1kTfUnCaEeStJwIUnJ4IWWM/Bac1xoGtIAESIIEzCNhLzo1rl6rVoXtSrM44kBtIwAcCmKsKER5YlRRzvCGSEpEaWD3cLDLkLoLzmypqCCv74ss5FgS4/MoP64UWjOAs7N9ff9HFRP5ItcMXaSx8YQQnFmVAmiDmKHvz9Vdk+7atepGh6TNn2ebGctcdIzixINCRw4f1SudYsAir1j7z354oGk9tNPVfchnS4s7WsvXAgf3SUN+g0z+NlF363jt6bjusGo9FHJCizghOQ4+3JEAC/hBACjHSjqsqK+U/T/9DRbxnqXTZz0mjWoTnx48+pKsMVHCalF287i57b4l0qkwQpJTjmkhb9vQ6jUYgEh/iEkIWP/jgfQERoFgIB1F2eG3HokI7d2zT7x2f+8JXdLT773/zuA0LIvghlg4eqJBXX3lRr6ReVVWp93tqIw5yJwe9eS+B0KxTkfjPqPc5iFqs+B7IIkO2jp26g9XLERmI1ekXqzmgjx47oqdvQXo8IixR3PUB+z9+zaf1+8zBAwdk+IgRes5qrBpvIjaRLo75MF975SXV9lr50Ec+rhc1wqrnSJkPhuDEwk340bG4pERFks5Ds7QEhgz2hjOOD2SsMT8qPhfgPRZzaW/ZvFEmqVXjGxsb9WcH1I/i6j3bmzbeoBY3LFT9xOeEvPx8uUBlZUB8UnD2sOVfzwQoOD0zssIRFJxWGAW2gQRIgARcEMjvN0DGTZql9+7culZNKH/QxZHcTALeEfjeLXfoVGv7o5EShw/5SEvHPFVIncT9T376Oj2v1znnXiBnq3kzIfeQhoa5OfGFBAVpeFhIyAhObIM8xZyd+MJTsb/ctkq6EZD4UnjtZz8vaWlpOFyXmuPVTiORzH5zi5V6EbGJgnYjPQ5pkUvVl3hTvGkjjoXQxdyd6CvK8mXvyisvvaDvX/+FL6svm6P0faSMVlUeU+mCRRScmgj/kAAJBEIAaepYXA2CBaW5uVn+pKLisRo5CgQn5iJ88onf6ccmihJTf5hFVxCBhpXRHSPQcQJee5H2iwVnTMF8kIiQM/MyenqddvZegbpwPn4Yw/sDXvtNgTh86q9PatlntuEWkXmz58zXbTLvNdjuTRvND1omWhHn2RdP7yVz5p6t5i69Sp+C/kPMmtRr+3pc3Yd8nDR5qriK4MR5s+fM02OJ/phiftDDY099MIvd4FjwwdQEkMmQfSiFSpZ+UUlULHKEAqn51N+etKXsOwpOrA6O5w8iFTEvqqdiIhlxHLIu8Lx7+p9P6SlazLmeOJvjAhlrzHv96c9cb/tsARZP/+spQSSpKe7esz21EaL5C1/+mpbDqK/2xAn93k/Baejy1hMBCk5PhKyxn4LTGuPAVpAACZCASwJZ2XkyedrZen/Fvh1SUb7D5bHcQQLhIoC5wWpP1OovRK6uifTv/H79dESnWQDI/lhECOWoaKbq6mr1xbPZfldQ7nvTRncXwgJJ2Sr61EQcuTuW+0iABEjAFwJ4fUTkXGtrq46E9OVcb4/FNbAQESLmEW0JyedYPL1OOx5v/xivkQUFBaruGtviR/b7vbnvTRs91ePuvQRp3ojcQ1aBs/57qtub/RDViLJExCtWPMePYr4U034IbghMZwU/xEFoIwoX8i8SxbTT3/dsb8Y6OztHRzVXqh8VfeUIJu7aiHHCvwdM34B/d6EqObkFMnHqXOFn9lARjky9FJyR4e7rVSk4fSXG40mABEggAgTSM7JkwuQ5kqy+TBw7ckD27tqkVwKNQFN4SRLwSADznm3bskV9OWmT+WefI5hX7Ec/+L5ODfR4Mg8gARIgARIIOQG+ToccMS/QRwlQcMbmwFNwRse4UnBGxzixlSRAAiSg5kFKk1Fjp0pOXoGaU+q4lpxNjfUkQwKWI4AvzsXFA3UKYn1drTz/3P/OWGDCco1mg0iABEggyAQgOlBycvvp/xobamXfnq1Bvop/1fF12j9uPIsEPBGg4PREKDr3U3BGx7hRcEbHOLGVJEACJKAJJCYmacmZX1Ak7SrlrHzvVhXRWUE6JBBWAuMnzZZs9YUd5eD+nXJg/66wXp8XIwESIAGrEHCUmGgXfoh0VuzTj+vVD5Uo9XXH1Y+WpxcRxGMWEiCB6CVAwRm9Y+eu5RSc7uhYZx8Fp3XGgi0hARIgAa8IYA6hoSMmSEnpUH38kUPlUq4iQjo7eyak96oSHkQCfhAwH9rNqZvWLVdfzKvNQ96SAAmQQMwRsBeY6ByiMfWtC4mpd576U3ei5/URWRf4D4Wvmafg8IYEYpSA+azEOThja4ApOKNjPCk4o2Oc2EoSIAESOINA4YBSGTJsrKSkpklD/QklObfxi9MZlLghWAQmTplri0rCl/ZN65cHq2rWQwIkQAIRI2AEJhpgUsn1fR8EJo6nxAQFFhIgAQrO2HwOUHBGx7hScEbHOLGVJEACJOCUQGpahpacBf1L9KqaiOQ8dGCP02O5kQT8IWA+qJtzGbVpSPCWBEggGgi4Ephou6tUcvt+OYvCxH5GYtpT4n0SIAFDwHxuYgSnIRIbtxSc0TGOFJzRMU5sJQmQAAm4JTCwbLgMVtGc8fHxUnXskJ6bs7Wl2e053EkC7gjgA/qgIaNsAoBRm+5ocR8JkECkCARTYKIPTCWP1EjyuiQQGwQoOGNjHB17QcHpSMSajyk4rTkubBUJkAAJ+EwgOydfS06k2DWfbNQp68erj/hcD08gAfMhzpBg1KYhwVsSIIFwEwiWwES7mUYe7tHj9Uig7xGg4IzNMTefjfmZ2NrjS8Fp7fFh60iABEjAJwJYgGjw0LFSOniEPu/o4XK9wjWjOX3C2GcPxody+6hNplf12acCO04CMxY3OwAAQABJREFUYSNgBKZt8R4fFvFBI00Kub7PxXzCNm68EAmQgHMCFJzOuUT7VgrO6BhBCs7oGCe2kgRIgAR8ItCvoEhJzpGSlZ0nkJsH9u8SyE4WEnBGwFFsQhhUlO/kHHPOYHEbCZCA1wSMvMQJ9gv46MdeLOKD44zAPJ06ztXIwYWFBEjAmgQoOK05LoG2ioIzUILhOZ+CMzyceRUSIAESCDuBODUfZ9mgkVp0Ym7O49VH5aASnVhxnYUEDAHzgc08ZtSmIcFbEiABTwSMwPQ3+hL12wtMIzH19tpqT5fnfhIgARKwHAEKTssNSVAaZD4vM0U9KDhDVgkFZ8jQsmISIAESsAYBRHEimhNRnV1dXVpyHqjYJd3qPkvfJYAP4ExH77vjz56TgCcCRl7iuECjL1GH/fyXPY8pMMGBhQRIILYIUHDG1nia3lBwGhLWvqXgtPb4sHUkQAIkEDQCRSVDpEyJzpTUNB3FiWhORHWy9C0CjmKT6eh9a/zZWxIAAcpLPg9IgARIIDQEKDhDwzXStVJwRnoEvLs+Bad3nHgUCZAACcQEAchNSE7IThQuQqQx9Ik/FJt9YpjZSRI4Q14CiS2F3Mt5L3GOfeq4fqwW8DGljunjBgVvSYAESKAXAQrOXjhi5gEFZ3QMJQVndIwTW0kCJEACQSVgvwhRW2uLHD60T46o/zo7OoJ6HVZmDQLmQ5lpDefZNCR4SwLRRcAx8hKtD0Re4nymjoMCCwmQAAkEhwAFZ3A4Wq0W81mac3BabWR6t4eCszcPPiIBEiCBPkPALEJUXDpUkpKSpflkoxw+2CM6+wyEGO+o+TBmukmxaUjwlgSsR8BRXhpxiZbm+BF5ifMoL0GBhQRIgATCR4CCM3ysw3kl85magjOc1H2/FgWn78x4BgmQAAnEFIHUtAwpUZKzeOBQiYuLk8b6Wh3RWXn0QEz1sy91Bh+u7RcQ4jybfWn02VcrEqC8tOKosE0kQAIkEHwCFJzBZ2qFGik4rTAKnttAwemZEY8gARIggT5BIDMrV4vO/kVlur+QYkhdP151pE/0PxY6SbEZC6PIPkQbASMvTcSluUU/GHkZbaPJ9pIACZBAYAQoOAPjZ9WzKTitOjK920XB2ZsHH5EACZBAnyeQm1eoRWd+QZFmUaNWWoforK2p8shm8rQFsmHNux6P4wHeEZh/7lWy9O3nPR5MsekREQ8gAZ8JGHGJE420NLd6m5dp42axHpyDlHH725771Xob/5AACZAACUQ/AQrO6B9DZz2g4HRGxXrbKDitNyZsEQmQAAlYgkBB/xIpGThMsnPzdXsqjx2UI2qOzob6E07bN3fB5dLV3SWHD+yVivIdTo/hRu8JQBZnZuXoaQNcSU6KTe958kgSsCdg5KURluYWxwQSdYnzT0tMikvwYCEBEiCBvkSAgjM2R5uCMzrGlYIzOsaJrSQBEiCBiBEoKhmsIjqHSXpGlm7D0cP7Bf81NtT2ahOiDU3hBNyGhH+3+BBVUjZcEhMTdQWOgpNi0z+uPCv2CRhxiZ4aaWm79TLi0lByjLw04hL762opLw0n3pIACZAACZwmQMF5mkUs3aPgjI7RpOCMjnFiK0mABEggogTiExJUNKdaiEiJzpSUVN0We9E5d+EVEh8f36uNjlKu104+cEnAfIByPAA8KTYdqfBxXyHgTlyCQbCiLlEX5SUosJAACZAACfhDgILTH2rWP8d8PmcQh7XHioLT2uPD1pEACZCApQgkJ6cKIjrxX/Ip0emsgd3d3Xo19g1r33O2m9vcELCPhLU/DNFkRuLgfkX5TooYe0C8H7UEHOWlibhEh8xz3tvOMerSW1I8jgRIgARIIBQEKDhDQTXydVJwRn4MvGkBBac3lHgMCZAACZBALwLeiM6O9nY5fJDzcfYC5+HB5GlnS0ZmzhnRsOY0ik1DgrfRQCCU4hL9NynjjLiMhmcD20gCJEACfYMABWdsjjMFZ3SMKwVndIwTW0kCJEACliTgKtrQvrFM5bCn4fq++eDk+gjxakV1d+dzHwkEg4CjuESdJuoy0IhL1GXEZc99znUJDiwkQAIkQALRQYCCMzrGyddWms/p/F7jK7nwHk/BGV7evBoJkAAJxBSBeedcpVb59twlzsfpnpH50OT+KJH29jZZufRVT4dxPwn4RcCduESFvshLx1RxnE9xCQosJEACJEACsUyAgjM2R9d8VqfgtPb4UnBae3zYOhIgARKwLAFvojfR+K6uLr3i+sa1Sy3bl0g3zFuWaCdlcaRHK/quT3EZfWPGFpMACZAACUQnAQrO6Bw3T62m4PREyBr7KTitMQ5sBQmQQB8gEO9FpGM0YZgyfYFPzTWrrvt0Uh84eGDZcMkvLJYEh1XoXXW9s6NDNq1f7mp31G3v6o66JlumwY7i0qSJo4G+RFvieEZcggILCUQXgVj7XBFd9IPbWrwVqvUZWWKAAAVnDAyiky5QcDqBYsFNFJwWHBQ2iQRIIDYJ4ItIanJs9o29IgF/CHR0irR1+HNm7J7jKC3RU4rL2B1v9owEAiGQkiTqx7FAauC5ViHQ3EbBaZWxCLQdFJyBErTm+RSc1hwXx1ZRcDoS4WMSIAESCBEBIzgnFE+SpAT1rYSFBPowgXUH10hfEpwUl334yc6uk0CICBjBOW3CkBBdgdWGmkBDU4vs3HdUKDhDTTp89VNwho91OK9EwRlO2v5fi4LTf3Y8kwRIgAR8ImAvOH9+9W98OpcHk0AsEXhz52vy0Bv3exSc+JIwbOQESU3LkBXvvmRJBBSXlhwWNooE+gQBIzgfv/86mTpucJ/oc6x18vpbfk/BGWODSsEZYwN6qjsUnNExrhSc0TFObCUJkEAMEKDgjIFBZBeCQsCT4MSXg8FDx0h2br7teuFeXIni0oaed0iABCxKgILTogPjQ7MoOH2AFSWHUnBGyUD52EwKTh+BRehwCs4IgedlSYAE+h4BCs6+N+bssXMC7gSn+QDZ3dUlcXYLLwVLcDqKS/v5LdHaQBfnqas9but0XW217T7vkAAJkECwCVBwBpto+Ouj4Aw/81BfkYIz1IQjU7/5fLpp3XLh57vIjIE3V6Xg9IYSjyEBEiCBIBCg4AwCRFYREwScCU58IRgyfJxKR0+XpCTnq3G5kpz20hKAIC3txWWg0hJ1UlyCAgsJkICVCFBwWmk0/GsLBad/3Kx8FgWnlUfH/7ZRcPrPLpxnUnCGkzavRQIk0KcJUHD26eFn5+0IOApO86HR7hCndyv27aC4dEqGG0mABPoiAQrO6B91Cs7oH0PHHlBwOhKJjcfmsyojOK09nhSc1h4fto4ESCCGCFBwxtBgsisBETCCMz4xVUaOmyWpqRmSkJjod511J06ngptIS3OLSplK5DdankgCJGBhAhScFh4cL5tGweklqCg6jIIzigbLh6ZScPoAK4KHUnBGED4vTQIk0LcIUHD2rfFmb10TMIKzsGiIlA2b5PpAuz1dak7Og/t3MVXcjgnvkgAJ9G0CFJzRP/4UnNE/ho49oOB0JBIbjyk4o2McKTijY5zYShIggRggQMEZA4PILgSFgBGcqem5Mm7KAl0nBGa83aJCjhfC/uVLXnTczMckQAIk0GcJUHBG/9BTcEb/GDr2gILTkUhsPKbgjI5xpOCMjnFiK0mABGKAAAVnDAwiuxAUAkZwdnSKtHVgUaACPbfmoKGj3dbvapEhtydxJwmQAAnEKAEKzugfWArO6B9D9oAESMA6BCg4rTMWbAkJkECME6DgjPEBZve8JuAoOO1PxC/kWEW9uHSodLS3S2JSkm03BacNBe+QAAmQgFBwRv+TgIIz+seQPSABErAOAQpO64wFW0ICJBDjBLwVnG3x7dKt/oeS0B0vid3+L77iDCnq3pK1W8qaiySnI8vZIWHZ1hrf5vQ6KV3JTreHamNHXKd0qv+SupIkXuJsl+lSnNrVWJiSrPbH2e0HR4yVY8F4Ydy8KfYMktR58V6e503d5pjNWbukpKW/5LfnmE0hvW2P65Admftk6MlSyehMc3otd4LT/gSTDmS2UXAaErwlARIgAfFKcHapjxNtHaff21ISuyXu9MNeGOtbEqS8JkkmFLcIPrN4Wxpb42VXVYqMLWqRVFW/Y8H+7cdSbJsnD2yRpIQzj7Md4Medjq44QVaAY0lMEEmMP32tzi6RLUdTZUh+u2Snnj4hHG10bBseU3A6oxKZbUnqB9W0tHRpaKiX7u7Tz5lQtKa4uERmzJojL7/4nHR0qFSWCJTU1FRJTu75d9na2iqtrS0hbcU5514g1dWVsnnTxpBeJ5iV4zmRkJAo7e1t0tl5+vUC7PC4Xf0QH46SkaEW41TtQGlra5OWluZwXDYqr0HBGZXDxkaTAAlEIwFvBee7+R+IvfiCVIOgGtc4wqdub8raqeRogoxtHN7rvM64Llncb4WMahoqg5tLeu0L14Mu1Ya3VBuclQur5znb7Ne2+sRG2ZS1Q6bWj5N0F7Jtad4aaU5okSHNpTKyabDtOkdTqvW5ZgPGIU9JQhyT3ZEpVck1sj57m9ltux3SPFAdM8T22N2dNwqW9doNIThYnT+wZUCv7f4+gIR9s2C5lo0jTp7um7/1eXNeU0KzLM9bK5Mbxkj/1n5OT/FWcJqTIToryneYh7wlARIgARJQBLyJ4DxclyRrDpz+sQlysyCjQ8YOaJWctNNf2AF0f02ybDycKhePbZBkHwSkucbZw5sk16FO1NugBOdWJRWb2+L1/fNGNUpGsjKNQSzoI9rhWAbnt8mkktPiplXJ3te3Zwkk66C80z+0hqONjm3DYwpOZ1Qis+28Cy6Sc8+7UH7yo0ekpuZ4SBsxY+ZsuerDH5WHH7xXTp48GdJruar8y1/7hgwaNMS2u66uVjasXydvvPaybVsw79x5zyIpL98rf//Ln3yu9uPXfFralIR97tn/+nxuICfc+J2bpbCwv2zbukWe+tuTtqoWPfSo7Nu7R574w29s20J555bb7pas7GzbJTAv/do1H8hzz/zHto13eghQcPKZQAIkQAJhIuCL4ISYmtwwVpoSTsq+tINawI1WQnKQD0JymRJ3CUpwzq6d0quHVhKc/dpzZYiK9DMFASOQiMEqx5NPyNrsrTKrdrKWko71ItrwnX4r9ea0zlSZf2Ka7RAjOHuEZpYcU8LzUOpRzfTc47MFkZ8QqE2JJ2V7xl4tJYtaC3XUordRqBCcee3ZMuLkED3We9IrtNyef2K6pHWejnaxNcrHO7EiOH3sNg8nARIggT5BwBfBCaGZm94pR+oStchMUFGNl45r6MUJ8q+uOUEKMztcRnn2OuHUA0+C05xzSAnItUpEhlJwzhnaWxZBpKYlnZapCMyrakzUchfRrI4llG10vBYeU3A6oxKZbeEUnJmZWVIycKDs3rVTIKsiUSA4S0sHyR9/92vpV1AgZy88V8u81155SZa+907QmzR4yFAlc5ukqrLS57q/871bVYRpq/zqlz/1+dxATjCCE3X88OFFOroX9yMhOLEQ51N/+7MU9u8vC885T/Ly+6kI4OdlxfL30CSWUwQoOPlUIAESIIEwEfBFcMZ3xynZNl237KSKLoSsRIrx5PqxskFFDZa2FMmA1gJbyyvSDktNUp1MUft3ZexX4q1BapPqRVQ9uafS0M05RnAihbhRyTlIVEQMDmopsaVII2V7W+ZeqU2s1+nWJa0DekV7bsvcowRcqrTEt0q1koho2/CTg8RbsWciOHFdV5Gp5WmHtFRENCvqLVL9RXSjKRCM6Hdl8nGVSt6hxeKYxmE6UhNRhNtVG1tVCjn6l9mRIcmnUsARzWlKRdoR2aHkJNgcVPLynOOzBKniKEZw4viCtjy9bU3OZs3ZXkBCcq7M3SC+CmhUCMGJcZzUMFrXjz7vyijX41jYli+Nqu170w9Ig7oGZGVmZ4a6zrBe8hPb92RUSFVSjXTEd0qW6iuic9PV+DgKTjzG9AQY30n1o3XKPbbtxvkqIrVbugTXRQSqScf3ZqwxDuAXp1Lsi5XkRR+CGcGp4fAPCZAACZBALwK+CM6Zg0/KgKyeVNgV+9KluilRzleRlOlKAOroxSOptrqnD2oWCFD70tYZJ5tVdGetEqDYgyjQCcWt+jhHwdnSHifrD6XpaM4xSqya4k4eov5Np+pHSvmwfm1Slud9+qeJ4Lxygvrs46Ks2p+uUo97do7s3yr5Svg6lkDaiDT5vdXJcqRepbSq/mSmdMlEFT3qLlqVgtNxBCL32BvBOXbceFlwzvmSmZkplZXH5IVn/ye1tSdsjR46bLhcfOkVkqZSmNeuWS0FhYWyd89uWbd2tT6m/4ABcsmlV9qO/8ff/9wrzRlRnSdU9Gh2Tq6MHj1G9qhzF7/5uk2s2U4Mwh0IzpKSUrn/ntt1bTm5uXLTLXfK/vJ98off/Upvg1S74MJLZPTYcZKYkCDbt28VCFAjZbH/qg9dLcNHjNIcNmxYJ2D01yf/aGvhhRdfJkjJR9m+bYusWtk7g2v4iJEyfcYsKRs0WFpbWmX9+jXy3pK39fEXqXNLywbJoMFD9LQBByr26+2rVi63pbp7aiNOOP+CiyUpOUkOHTwgc+cvlMyMTFn9wUpZ8s5buj5XfyA4CwoK9bU3qr799+l/6kMdBWd6erpccdXVUqba2qJS/Vcse09HWKLt6MO//vFXaWpq6nWZseMmyKzZc+XJJ37Xa7uzB4jgREr8jx99SO/O71cgkL54bv3pj7/V2wYOLJWLLrlcy+q62lo9/cGhQwdt1eXm5cnVH71G3nzjVUEE8ZChw6S+vk6e/tdTUnvihKSkpMrceWfL2PET1FQNaVJdVSUvPv+MHD9erevAdAZXfugjMliNBdLk8ZxetvRdW/3hfO7aLurkDgWnEyjcRAIkQAKhIOCv4ITkWpG3ThDteFbdeEEKu70ARVuR7p2txNaMukmyX8mmhsQmJf6qtaQqbOtJEy5WIq2fEnVGcOI8SEqkseN4CMphJ8uwWQtViFWkYkNiYq7JoSqFe8SpFO4l+av0NpyLY04ouZqtROrM2kn6fE9/jODEHKCQi6ZkdqTr+vAYafSQdZB6dUrYoo2Dmou14MN+iDdEVBaqNOjk7iQ5nnRCtX+QlLT21xGve5QYbIlvUW2r1+ySlSTF3Jj2KfurlJhEP2eqCE9IZHtJ6UxwfpCzUYnjBjm7ZoaknporNFDBCX5g25DQpIUt2CBCFPNxIqLzgJKw/dpy9RfKaiUhu+K6tYgFe5QVueuVqG5S7UmR/LYcJZxrpUwxxVjaC06wQX9x7LS6CbZIWchZ9AHtgNQE62LFcELDSF2/p7E+mlKlUvl3ajGM5xPqQqHg1Bj4hwRIgARCRsBfwblsb4bUnEyQC0c3SqqKbmzCHJmVKdKg5uCE7HRMUYesQ1o35vNECjqE3ZH6JFkwolGylMSzF5xIbV+yO0PP4blwpKrfLkrSlTyEGHx9e6aSJnFSqCQs5sM8qdLZp5U1S0mOd5LTCM4pA3vPTVea226LRkX0aLu6RmVD4hkp6maQAmkj0vsratQPstntkqz6jUjRUUqklqk2uCoUnK7IhH+7J8E5Zsw4ufa6z2shCdE2bPgIPX/mQ4vu0dswT+Jtd96n5R/Sl7E/Ts0JsX7dGpsYgyw7/8KLpX//IoHsdExRv+2OeyVDyVNEK0LGQZji9re//kXQgTgKzpKSgXLDN7+txdwz//23vt7XvvF/AnF2WIkySE0IO/v+fOKT18rESVO07MW8lNnZPVlY99x5i20eU8y9OaCoSMaNnyg7d27vlaIO6fa9m+/QcnTH9m2Sm5unpfBPf/wDff158xdIkZKj4ydM0tfftnWz3g7ZuGtnz9RFntqIE75x43d1dGpCQoK+1omaGp3y/bPHfqjrc/UHgjNfRUpuWL9Wpp41XR5adK+e/9JecKakpMitatwSExNl164d0r9wgKBfkJqHDx2S79x0m/zn3//Qddhf57rrv6R54vnjqTgKTjx3vvV/N8me3TuVIP29lpVf/PINSjy26qhgCOfk5GR55Pv32aZAKCsbLF+54Zv6uQoO5fv2qufhAHnpxWe1LIaghGjeumWzjrQdOXK0LH7rdZuch1CFWIU0zVUCHs/Td99ZLG+8/opufjifu+54UXC6o8N9JEACJBBEAr4ITkiucQ0jVPpzs1SkHtYyEZGOiHhEyvpuFaU598RZOmrRzAWJ6E1E35niKUU9ozNd1TFVHw6JldaVqgUlIj8/yNnUSya+l79a2uLa5fzjc2zHYwGe86vnaim2Uc1zWZVyXD8213d3awSn4zH9lYydXD9Gb8Yx9ovuYK5MRB4urJmp9yO1PFWlcTum4NvX6S5FHfLvLTU/JSIoJ6oIyrf7va95QnaiGMGJOTUhWo+p/iFaFCIQKe+mBCo4TT3mFtGcJjrXkQGiZdeplHvIR0hIM/ZlLcWC6FVTIKSxKJIRnJhrFeLzpIpsnVE70ba41PGkWlmbs6XXHJ07MvbJQSVVz6ueo8cWzw13Y4324DkDKYuCOU/BjoLTjAZvSYAESCA0BHwRnMML2iRHLaqD6ELISYhKzJlpX1zNwblBRWNWnEiS2UNO6vR1nAMpGa9+cMNnGyM4zyptlg1K8iWpdfYgNx3n8XQlDzer6NF9x5N1e8wcnu/sytTRoY5ttG+v/X0jOO234f4laj5R+wWNXM3Bac4LpI2vbsuSdCWMF4zozdXU7eyWgtMZlchs8yQ4v6kkWf8BRTriEdF0EHafuvY6HRG35O23dDTeFVd9RH70w+8LIujGT5gon/z0db2EoOmZqzk4IYnSlSi97+7btNC75lOfURGRE/Rjc26wbiE4Ib1Wvb9cEL05QgktREM+/ovHpPLYMfV4lHzu818W9A1RfyiXXn6V7ucD996h23fXvQ/KwQP7tWTD/ptvu0tLTnvBie0ozubgnDtvgarzSvnN4z/T4qznyDP/ukpR96aNqA2Cs6ioWP73n3/ZhB36aiJRz7xizxYjOB99ZJGWmGD14gvP9kpRv+LKD8usOfPkt7/6uRxUMhrlW9++SUc5Ytu9Dzwsmzau19eGsD127KiWkJDhkNd//fPpaNeeq575F4IzQQlUzLmJFPU5c+Zrwfjs/56WNatXybeVfIQcXnTfnTrSE4sjYWwwdpCUKEZwNtTXy2M/eti2uJXhcMfdD6hIzhqn0wAggvbLX/2GSodfqiNDUd9Nt94pGSoS1kQAh/O5i+u7KhScrshwOwmQAAkEmYAvgtN+kSHMo4nIRbNIDFKz31EyrlgtPDS+caSsVjKyXkXlnXdKMJlmexKcSPcepVKRUSC5IOqQoo10Y0guRIsiahQFEXqI1IPEQuQgpBcE2pzaHkFqUr3tU7z1iS7+GMHpLkUdUaGHUitVSnitmu+yQ0Uu9gjP805JVizwA8EH4Yh2Yn5StMm+uBOclUpYbsjabksH35C9XdXXI2kRyWgEp6kP2zI60lQ6+RgtQs32QAWnSVFHZOWu9P065X963UQ9NyeEbkXqESWPa3S6uppzQEfgmgWidqpxQsTuHDXPKtLwHYsRnGa7I29MZ1CuhDlEsklJ71acsYK8Sc33NNaL1XMxR40BokJRDqsx25K5i4LTQOctCZAACYSIgC+C0zQBiwwh6nJamZq+Rd3aF1eCE7KxSUVUXj7eefq3EZymrlkqHb7/qXR4sw23ruQhIj6xgnvv1c7j1DuRyBXqmmizp2IEp7sUddThr+D0po0fqBT4oyo6FIs39VfzmA5VafbO5vm07wsFpz2NyN73JDjvvu9BlSreICa6EBLpnvsfki2bN8k/n/qLfOFLX5OBpaVKMt2lO4KU37vuXeSz4GxsbJBf/vwxXcecufPlsis+pCMHm5t7zy8bKC0ITiwyhEWOkJKMaNNXX37BlnaM1PIFC8/VIqyrq1NfDit5I/oPKejV1VU6OvGVl16Q5ct6UpUhZCdMnCzeCs6srGy55fa7deThzh3blQjcoCIIN53RNVeC01MbETGKAsE5QMlpI47PuICLDUZw4rxPfvqzWjY/eP9detzNIkNf/9Z3dAo+oidNSUpK1jzvvetWLQbTVAr7r3/5M/18ALdf/eInuo6XX3xOS0Nznqtbx0WGcK0Vy5baxPP9D/5Ay2n7NiClHNMdPKYWzUIxghNzdmLuTsdy7WevlzFjx+toXcwNC5mJ5yLKnLlnq+fhVfLnP/1ey1lsw8JPkyZPFfBAxDEEZ7ieu7i+q0LB6YoMt5MACZBAkAn4IjiRgj5PLXhjpJNjUyAkT6j5MRHNCNlZ6hDBh+M9CU4jyXCsfRQe5nxEavQcFd2ZqaI8UXaqORX3q/khF6jUbMyHCemFfUZqYf5FpIyjPY6SUVfg8MeT4EQ6+vsq9Rpp11hBHtdCm5pVuryJIoW8Q/r2ASUAkWaO7z9T7ObLxCXdCU4jSCGQcS5S91GniaA0ghORsZiD09VYBEtwor0Q25iCAGn7SKVHZCwWN8K8lvlK4naq/21Xc6Ni4SOs+g6RCKFoxDPqsC9GcKKPWKEdbUWEKoQkCsYMY4foYJPybs7HYk8YS09j/WbBMrVa+ul5RE1UKCM4DUnekgAJkEBoCPgiOGco6TjAw+JBrgTnmzsypVN9Lrl4TM+XXcfeGMEJcdqiFirCPJcXjmnsJSxxjivBuXinSslV52Flc8fia4p6qASnN23sUv0ur0mWchWNCiGMzxaY+9SZ7DX9pOA0JCJ/60lw3rfoERVleEB+/5vHbY194Ps/VGnCu7T4gUSDsENaMAoi4yCe7FO69Q71x10EJyL8zLyKM2fNUfMeXi2PPHS/NDX2TAFk6gj01j5FHW1Fejok4GOPPqzTuJGyjHYiSrC1tfe/zX0qvTk/r59OebaPivzwRz4m01Sas7eCE31AavxFl1wmg4cM02neR44c1gLQvn+uBKenNhpmGJsUlbJtZJ993e7u2wtOM0cp5u1cqOZhNYITbctQi0Y9+7+etH77+iC/zzv/IjVv63ma4+Uq2hOp4/986q86+hesT6ioSU/FpKj/5MePOI06Rco8UseXvvt2r6ogrzFPJ4oRnIgYhUx2LBDXmBMU/yEVvVu9kP/tz0/oaQUwzQCmVvjFz36ko3tx7iWXXSHz1Hymjz7yoJ7LE4IzXM9dx7bbP6bgtKfB+yRAAiQQQgK+Ck6zyJCzJiG6cbVa8AYrcGOOybNrpmsZaH/scjVvJwTXPJXKbl/MHJyuBKcRe/bzUWLuxjolxy6snqer8iS97K/n7L4nwQmZCdGKVc0xryMK5uRU3x1sglNvPPUH84QuzV+j55WcpiJPTQEbRLjaR6OafagvUS0oBIFqSnn6QSUz83VUp+FgIhnNMY63oRCcZr7VN1UKfa4a4+mnoiMhmSGbjeBE9CaiOCFD7ecyNW00ghMLSmGeT8hTlAVKRGM+UshhCFMz/YE5z/7W01ivyF2n5bBZgd5EhVJw2lPkfRIgARIIPgFfBKf9IkOuWuJKcJpFiS5UgtN+Tk1TjxGcJp38vT0Z0i+jU+YO7Z2qjYWNUNdctdJ5P7VIkSkrVeRjtZqv8tJx9Trl3Wz35TZYEZzBamNze7y8pcQtFmNCar+rQsHpikz4t3sSnLfefo8kpyTbIjSxcA6i97BozgvP/U8vZHPOeRfo/YikM2m90SA4QRvzZyLtGIsM/fH3v5aZSnRdqVLukRaNBXmcFQjczZs26IVqsB9p/ANUKrgvgtPUiwjSqz92jUyZOk0vpoOFb0xByjcEnImeNdu9aSOOheBMVhG3Pzk1t6c539OtveDEsUjZx+I8mG/TCM7PXv9FGT58pC093LFOIxaxWA9k+Dg15QAWIkJKuUnvdjzH8bERnGaRIcf9SP+HKEVkqKti2mEfhenqWMjc7950u+4jFkHCPKuYb9V+1favfv1GKS0tk7vvuFlXQ8Hpiia3kwAJkECMEgim4AQizEHZrlK37efStEcH8YV087EqOi+nPUtHXmKFcE+CE2nRb6u6EdE3Xs31iJXW96jUaaSCm/kpPUkv+3Y4u+9JcJp5QDH/JVLxITsRyYhUahPBibR5yElEI9Yk1+l0c6TxQ+aZAsGHeTaxABLS8ZNURCIiGbGQzqrcjTrt3/54SOFmtTARruFJcGKeSyxshBXb9ykxOkAtdoQ5ULFwUrq6hjcFq6iDK/qJeg6nVOoFkoywhDxsTWjTkbKIasWK75iiwAhO3F+ixgpcsEgU0t0xlQAiLzFHp73gBBvDFdGgEMH6fBWNmyDxegEptB9sDqUe0ynq6IOnsd6tnhvoPxY1wlylW7J26XopOL15BvAYEiABEvCfQLAEJ6IuO9Wcmgdrk2SnWmwIohLzVmIOTdwa6YeU9nFFLTq1fZc6DgvoYBV2e8GJOTS3H0uRXVUpMr64Ra+Gbt/DF7dkqxR5NX9hUate4AhRn1jwCAsf4dzRqs7s1C6d6o3FhiaoOrwpngQnFkrCSu1tqq9L1bVwnYG57XqeT0dp628b1x5M0wsKoR9gtroiTbCK/MjC06mrjn2h4HQkErnHRnC+/trLgnkKTWlvb9Np6EjRRaruGiX71qmFgxA9iEVafv3Ln8rhw4f03Ig3fvtmOXb0iE7vxcrdWdnZvSI4EeGJ1HZIvHPPv1DP24gou5Mnm9TiNS06zTdcUXD2EZymrybF/Oc/fVTq6+r0oklYMftNtZDM9m1b9aI402fO0inqOAd1lJYO0queIw0bEacoRnBCBJqFh75x43f0ojtYwAjRgRByEydNVquU91c8V+tMqU+oFHcsaoQoWHAx5ZLLrtQrfEO2HlBzfjbUNwhS9rHAD+aydNdG1BEswVlY2F8gPVGM4Bw8ZKh86Stf1xGUi994TY4eOyJjVap3gTr2JTVfJ8QtRDBuEf171rTpOsoVC1X97je/1HV5+uNJcJpUfcj0Ze8tUa/nnTJt+kypqqzUc3Sifk+CEynnWBn94IEDMnzECD1/LOZexTyeSHe/854H9HP0GTWP6YDiYi30ETWKeUZRKDg1Bv4hARIggb5DwDfBGa+jF93R2aUi+cpVRJ+RYY7HNqu07TXZm5Uw6/lgjYVmELVp5KJ9hCZS1OvU6uCYQxMFMhECEYIMBWnpWKE9TS3qg9IjvTK0JMNjf1PUTSo26nAsSMNHujMKog0hcrGivBGcS1Q0YptK6UZBGliGkmuzVBvtFybCvh7Re0T3BcddoKJQTWq2fYQojjWyDiIX/LBgjqsITrPAD86zL0gdh4D0pkBw2hdI5TK7+VaRYo80dYhIlP5KomLuUCM4sQ3RvEi3N8egjxPUQkVFSnY6Ck4cj/lVIb5N1CakJ86HLDclXUXNYooEFE9jjfPez1uvVqzveZ5B7mIxIwpOQ5O3JEACJBAaAr4ITlfzYqJlSEFHxKFjGZTXrtLGe1Yl31udLFuPper0cxyHzzTnj+pZhR2LFkHmQYzaLxIEQXmuOgarrpuCxYq2q3qQkg45ijpQsMjQlqOn68c2rIA+VS1c5E3xJDjXq4WSDqhrOxb7Nph9/rYRK82jXyj4m6UWdQITsHJVKDhdkQn/dqQSQzo6FixEg7kUISYxzyZWEjfl7cVvyOI3exZxwbaL1LyV885eqNPTK/aX21YdN6uSf++WO3Tknjnf3GKhGKSCQxIdVYIUUXMoJpUdwq+pqXdEtDnX31tngtOkYSPSEG2AvLv2s5/Xc3Sa69SoSEQTCZmXly9f/MoNkpOTq+fqPHz4oJ7X0wjOsePGy6c/c705tdctIv8gRLEwE+QfCiQveGKeSPuC64A9VidHwZyfmPsTxVMbcQwibZEa7hgBin3uCmQmrm0faQlumLsUqd9mKoHZapEhLMCEVH9T7CN3/++7t+h6MJcnIkCx4rnjc8ec5+wWgrOjo91lij2ui+jXyVNOZ+3hefv8s/+1CU48b796w7d6zaNpfy1EKGdmZelNENAQ7ZCXHR093w8mTJyk5t281tZH/Ajwu9/+Ui1M1BNpG87nrn27He//P3vXAWdFdb0Pyy4dli69CoiAgh0s2GKMmh5NMRqj6b33Ypqp//SemJheTDFGY2JHAbugiEqRjiC9t92F//3u4zzuzs6bmfd23nsz877Lj515M7ec+52ZW7455166qHsR4W8iQASIQJkQiEpwRi3+cUNKbjE7Y593eLfrqOmKiQfrzfqD9cb9vVMxyWKLC9IO61LC6tIv4N4+8x+Wg7nVrvxipf8aiN2uZj1SrKVZKAAL/Md6pV6St1Aa97pi2d2Qm3DdLzaAEEa5IMPDwp2L/yfX3fEFaTa87YEjvGpYMt4nAkSACBABB4EoBKcTPZZTkJb49NnDkJOHOYlY8tVMdpv8sd5n904txrpSrybrGCQjrGH3GbK4lyE3g4hNrREJTkUiPceuXbsZsqqPJYCwm7pfgDt13379BBadd95urODMuo1pDrA8bWxsNBsLbTIkZNuPDqgvsPAjTcPqjbSwdmwylqJbzKY4pYYwGUvNN2o6kLT9zNqVIMKxkVBTU1PUpLHFA5ZYRxUWrcAybJd4b8GKIdZB9Xu2UceBJn9Yz8LCN4mBBGcStUKZiAARyCQCcRGc2FV8nXFDxuYyQ4wbMtzIGYhAmhAgwZkmbVFWIkAEkopANQjOpGKRVrlIcKZVc/5yg+B7ZuFCQ24dkDPOPFtgEfmtr3/FbsLinyLdV7EG5siRo+ymNWOPHmdd7xc+9aT85U+/T3fFKH1qESDBmVrVUXAiQATShkBcBOdTZo3DTZ22SN8DjTLFuCIX2t07bfhQ3tpBgARn7eiaNSUCRKB8CJDgLB+2lcqZBGelkK5MOSA4Bw8eat14d2zfJjebzYeWLllcmcKrUArcli956SsF62/CanDJ4mcF7vjVsF6sQvVZZAIRIMGZQKVQJCJABLKJQFwEZzbRYa1qCQElOLt0621cEXPu8Nu3baolCFhXIkAEiEC7ESDB2W4Iq54BCc6qqyB2AXo19pPJx58mq1cuNv+XxJ4/M6wOAsNHjpPhI8fLU088aNyzS3elr470tVMqCc7a0TVrSgSIQJURIMFZZQWw+MQgoATngEGjZPiY49rItX1rjuzcvu3IALL1OcnQNqDxAhEgAjWHAAnO9KucBGf6deitQWPv/jJl2gxZtXyRrFqxyHubv1OKwIhRE2TE6AmyYN5c4Uf55CqRBGdydUPJiAARyBgCJDgzplBWp2QElOCEBefQkcfafBr79C86PyVCkbA1AZojRjkALRpSJiACRCBFCJDgTJGyCohKgrMAMCm+TIIzxcoLEJ0EZwA4CbpFgjNByqAoRIAIZBsBEpzZ1i9rFx0BJTgL7aKOyQFCY+9+rTLV3+0hQ/2IUBRCMrQV1PxBBIhAChAgwZkCJYWISIIzBKAU3ibBmUKlRRCZBGcEkBIQhQRnApRAEYgAEagNBEhw1oaeWctwBMIIzvAcjsTwI0OVCEWsYslQWoUewZZnRIAIJBsBEpzJ1k8U6UhwRkEpXXFIcKZLX1GlJcEZFanqxiPBWV38WToRIAI1hAAJzhpSNqsaiECcBGdgQc5NJUJxqRUBethKtFgiFPkoGUqrUKDBQASIQKURIMFZacTjL48EZ/yYVjtHEpzV1kB5yifBWR5c486VBGfciDI/IkAEiIBBQMkUEClKpnTq3FmemX+PTB58nHz/VT8lTkSgZhGoBsFZDNju+6vp9D3G72LJUCVCkdaPDKV7PJBhIAJEoFgESHAWi1jy4pPgTJ5O2isRCc72IpjM9CQ4k6kXr1QkOL2I8DcRIAJEICICSoIg+ohR4/OpCpEfe/fsJMGZR4kntYxA0gnOqLpx24BWBGjMVqGQR4lRkqFRtcN4RCD7CJDgTL+OSXCmX4feGpDg9CKSjd8kONOhRxKc6dATpSQCRKCKCCiJ4VpjFiIxVUy12AIpocTEzu2bpEsnsRac7zr9fRqVRyJQcwis2b5arrvjC1Jok6EsAuK2I1q/VqRokbvIaxuDvLSNcc9JhCrKPBKB7CLgEpydOzVkt6IZrtk3fn6rLF6+XvYeEDl0KMMVraGqkeDMprJJcKZDryQ406EnSkkEiECZEXDJByUdSiExg0gFXYOzzFVh9kQgNQjUEsEZVSnaFiG+tkXueVi75FeOkqEkQv3Q4TUikF4EenTrJAdbDDPGkHoESHCmXoX5CpDgzEORqRMSnOlQJwnOdOiJUhIBIhADAi5xEMWlHEUqMWDPHWvMICKzkKggOBvqC92tzPX6+gbp0rW71De0tfTYtWObNDc3VUaQCpfSu+8AW+K2LRsrXHKuuB49e+cx37d3j+zbu7sqcngLxfPQo1dv72Vpbmqyz0Jz04GyPhOwVjnQ3KZ4XoiIgLZpfkQosiiWDNX2ziVCkY/+LqXdQ3oGIkAE4kMA772OYTatf04OHjpoM0e7jb4lq/14fAgmMyf0hbTgTKZuipWKBGexiKUjPgnOdOiJBGc69EQpiQARKAIBd9KvE/+wib47sc/SZF6xwGTIiwHqjLrm/m8qAuH0RT3jnJdZsnrB/LlVE14HRhAA2K9asdhgnwzcg54TV157nhCZIQtDNARUv9oeair97W0b9H7Q0W0zNV6W2k6tE49EIAkI4B1WUtN9X/U9TFJ/kgS8KAMRqCYCeF+nTJshq5YvMmO9RdUUhWXHiICO4xfMm5uY8XuM1ctMViQ4M6NKVoQI1BYC7oQ96iRdJwJK6gGxpBBMcWqv0ETI1vcwsZbVuvvhmKSBpupGJ6hJIzoVP8iJ98r+91kbUuWupedIscn6EbpH0HbVPdfn1kaI+MdtdzUJiVBFgkciUBgB7S8Qw3339J0iqVkYO94hAtVEAO8uCc5qaqA8ZZPgLA+ucedKgjNuRJkfESACsSGgE21kqGSLPfchXLRQHfjjd9aJTK0zjjoRcidBuK541PJESAckSfqSroNf6AghSbLlJGr9V58vXA16xnA/ix8NUC+G1gho+0witDUu/EUE2oOAtrV+7Sz6cQS2se1BmGmJQPkR0DFe0sd25UciWyXofIIWnMnWKwnOZOuH0hGBmkDAnSjrZNk7uPcCocRdLZGYLgbATElfL1bAhhOhI2jpgCSJA80pU2fkCUPVWxomrzoJB8p+zx+u1zKpjvoz5BBw23cXk6htvZsG527br/doEapI8JhGBLQ99WtL2ZenUaOUudYRwDtNC87sPQU6nyDBmWzdkuBMtn4oHRHIFAI60dV1pFA574DerbA7keUE9oiVph9uaSLHXB1X4hzrbyLMvufmShRXdBneyW0SidigSnnfa+87jWdTP0SkgbwNqivvlQ8BfY6U+NSS9Lf3udL7hY5u/6Fx2I8oEjxWGwFvu6/yaF+O32wvFRUeiUC6EMD7TYIzXTqLIi0JzigoVT8OCc7q64ASEIFMIeBOUqNOTN2JKCegRx4HxbLQBkGISSu5I3gVOks6waly68AJv3WSm8YJbtBz69bNnnPDIsDAUAQC+nxp/4Kkel4sCYq0eNe038FvBP2dxvcvVwP+TSICeHYL9ee01EyixigTESgNAbzrJDhLwy7JqXScTgvOJGtJhARnsvVD6YhAYhFwJ5lRJpckMaOpErgCT/vfs9aokl7IiRPvaHjqYCQtVpHeCbDqPM36DnumoUkS9dGeZ8aKjoDbR2mqKH2VxnWPbv+l10mCKhI8BiHgbdM1bhbadq0Lj0SACLRGAO89Cc7WmGThl84pSHAmW5skOJOtH0pHBKqOgDtJjDI5dCeCnABGU59OgBDba4HESVA0DAvF0sFIWghOrYcOjvV32uRXuf2OYc870pDw9EOO18qBgNvHaf5R+jqN6x7d/k+vsx9UJGrnqG0c+/Pa0TlrSgRcBHQMl6Wxm1u/Wj3XOQUJzmQ/ASQ4k60fSkcEKoaAO8mLMrlzJ3KcwBWvpqAJEHIjwVM8pn4p0uKe7ic7rulgCudZJLu13fFz23TrbM/pzg4YGKqEgD6r2j9CDD33EllBIrp9p8ZjH6pIpPcY1KezP0+vXik5ESgFAbQHtOAsBblkp9ExOQnOZOuJBGey9UPpiEDsCLiTtCiTM52MYYCOkGZX2djBLCJDxd2PyFHiivgWAWiEqDoQSfsXdO/EOe31CVId6op2yf73WaIBaUkWBCHIe9VEQNt57Vshi54XQ4Iinfa9Sn7aa9s2sw8GEAkJ3rZZxdI+neMlRYRHIlBbCKBtIMGZPZ3rvIIEZ7J1S4Iz2fqhdESgZATciVaUCZZOpkhklgx5m4SqgyBSkxOgNrDFdkEHIlkhBLU+AKhWJtCFCIRawiC2F4IZJQYB7Ru0b4Zgel4MEar9tpcERX7sW4BCvEH1xj49XlyZGxHIGgJoK0hwZk2rR7yqSHAmW7ckOJOtH0pHBEIR0AE3JkdRJkg6ISKRGQptSRGgD0x+ELwT1VohpUoCrgyJ0u6e7geJPl/6bOGZWjB/rl/UzF1D3bWd0/prJYEDSJ7c/016mUcikFoE3L5dKxGlj9e4etQ+nySoIlLcUfVAUrM43BibCNQyAmg3SHBm7wlQQwMSnMnWLQnOZOuH0hGBVgi4A23c8E7y3cjupIaTfheZ+M+hl0KTH5RGl9r4MQ/LUQchWbHe9NZXB896Pav11Pr5Hfne+aHCa7WEgI4JlPhE3fU8aHzgxcgdL+g9JURr0RJUcS3Ur7NP16eERyJABPwQ0DFaLY7N/PDIyjWdW5DgTLZGSXAmWz+UroYRQOeo1kqAodBkxZ2Y1PKEpNKPCvQTNPmBPLU4May0HvzK04El7s2+52a/KJm5NmXqjHzbgLagVife+j5Csd62spZxycyDzoq0CwEdT2gmcZKgWenngBFCUL+elbrqc8AjESAC5UFAx6EkOMuDb7VyJcFZLeSLK5cEZ3F4MTYRiB0BHVQrmemdnLsFKplJ93IXlcqdQ1dBkx9IwglQ5fRRqCQdgNTKwNL7XNZKvQvpX9vUoHeV72kh9Hi9VhHAe6PEJzDQ86AxiRcrjFH0Qyvu6XlS3ze2FV4N8jcRIAJxIIC2hS7qcSCZrDx0fkELzmTpxSsNCU4vIvxNBMqIgA6mw8hMJTIxOUj6BKGMcCUia+gsiCiBkEmdvCUCwAoLoYMPFJt1600vtG7dabV4BB2+w0ew4BkRKBUBd/yieRRLgrpjG82j0mMcrUdQv84+XbXDIxEgAqUggHaGBGcpyCU7jY6zSXAmW08kOJOtH0qXYgR0EF0smcmBdfWVDt1x8lN9PZQigW4sVKtWjN5nt1ZxKPTsePHReEoI4zfbYEWFRyJQHALuuEdT2jFQn5z7t14LOnpJ0DgIUJWL/XoQ8rxHBIhAXAigzSHBGReaycmHBGdydBEkCQnOIHR4jwgUgQA6M5KZRQCWsKjQHyc/CVNKkeLowIOkHtaRmyAjRk+wCCp5R+Ku9QOl7zyuum64xKs1TvxFBOJEQMdKmmdcVqDe9g3lILBfV6R5JAJEoFIIoP0hwVkptCtXjo6tacFZOcxLKYkEZymoMU3NI+AOnAGGOzlWcFwrhJyr+Sa9xWNCEIAeOflJiDLaKYYOOvDeLZg/t525ZSO59/km8VtYr16sNCbJTkWCRyJQGQR0fKXEJ0ot1gq0ualJ6hsaWgnMd7kVHPxBBIhAGRFAO0aCs4wAVylrnWuQ4KySAiIWS4IzIlCMVtsIoKOKYp2ZIzKxbibJzKQ+MSQykqqZ0uXSAQdy4KCjLY4uPpzkt8XHe4VthBcR/iYCyUJAx2SQqnOXbtKjRy979JKahaRGO6iu74jDj9CFkOJ1IkAESkEAbRQJzlKQS3YaHU9zrpFsPZHgTLZ+KF2VENAJLooPss7kbuZVUlCRxepkyGsFomQPsiMpXSSoCYmugw2IwwFHYaVom6btGa05C2Pl3vHipve07WC7oYjwSAQqi0DQu7l50wtSX1+fF0itQbX9y9/wOcG7jUAC1AccXiICRCASAmifSHBGgipVkXTOwflGstVGgjPZ+qF0FUAAnRACXJUR/AbA+rWfX/ktRKn54zcBUmIClSA5kRpV+gqqAw3cJGHnC1Gbiy5m+i7wPWgDk++FoPaEGPpCxotEIFYE/N5BFFBsW4Z8lPREej33G//hvhtQFoISoEeO9NxxceI5EahlBNDGkODM3hOgY2gSnMnWLQnOZOuH0pUBAXQ6CGGEJq0zywB+BbKMawJUAVFZRDsQ0EEGsiC5WRyQ3neE+BWPH1J41+8tlmQprlTGJgK1iYC3vVIUyvm+oUwlPVEezqOQn4gLuZT0tL+3cdki4MBABGoJAbQhJDizp3Gde5DgTLZuSXAmWz+ULiYEdICM7LyDVP0aT0IzJrCrkI3q10+30Cutq6qglDIWqQMMFEFyrnSgXRzLSRaULmHyU/q1PW6fwrYn+TqkhMlDwO+9gpRJaacgXykEqLYNSoDiyDYiec8fJSIC7UUAbQQJzvaimLz0Om4mwZk83bgSkeB00eB5ZhDQwWehr+46SEaFObhMr9r9JkGqW+o1vXoNknzK1Bn5jxQcYAQhFe2e9x0iYRwNN79YXiwRh+2RH1K8RgTaIuD3/iBW2t4h1ANBCdBC41AbyfmDeiK45GfuN13fLTD8QwRShADaARKcKVJYRFFJcEYEqsrRSHBWWQEsPj4EdHD87NOPSdOB/fFlzJyIABEgAkSACBABIkAEiEA7EcBY1SU/kZ3X+8RbhB/5yY+4XpT4mwgkBwESnMnRRZySkOCME83y5UWCs3zYMucyI4DOA8G7DtojD9wh+/ftLXPpzJ4IEAEiQASIABEgAkSACMSDgEt+Isco1p8gP9XqE2no9g4UGIhAdREgwVld/MtVOgnOciEbb76pIDg7duwoI0eNlt27d8sL69fFi0ARuU2ecpz06z9AZt1zVxGpSovas2cv2b9/vxwwlojde/SQluYW2eeQdrh/4MABE2dfSQWcdPKp0r17D5l1b/nrUpKABRIVIjURXd2Ydu7YIgcPHhQ8N0OGDDP17C4bNrwgW7ZsLpBrMi/36NFT6urqrHB79uyW5ubmsgk6ePAQOfnU6fKfW/5V1nLKVgEnY7QVeL7/fuOfnavBp716NbaJcOjQIdm5c0eb61m50KFDB0E70tLSbNvWOOuFthLv3u3/+0+c2Zac19nnnC+bNm2QpxY8WXIe7UnY0NAgL7n4ZfLwg3NlfRX7sKA66POwd+8eaWpqslHR/qAd2r17l3lOWoKS18y9zp07S+fOXWx90c/s2rWzZuruVhRtB54ZN+C5wfNTawHvd8eO9ea9OZB/TzD+aGjoZNtXfZ+KxaXYcRra3SnHTbXF7Ny5U265+Z+Ri4S8GBMWCvv27bPj0UL3i70eR5tYyTF5sfUrR3yX/MxbgPbJfegvVJ5LftY68dmrsVEGDxoi+8y86fm1a/L9XCHs2nO9lHEoyquvr5du3brb+Z93fnfueRfIUYMGWbGWPbdUHjLjCYbkIkCCM7m6aY9kJDjbg17l0iae4DzmmGPlDVdclR9Ig+T80fe/XRXi4Yo3XSPDR4yU6770ubJqaNToMXLNW98p//z7X+Xxxx6Rz33hOtloCLqf/Oh7+XK/dN035emFC+RPf/ht/loxJ299+7uld58+8s2vfTlysiFDhsprX/9G+e0N18vmzZVdEwgdhddSE4Irqel11Tl63Hi5/Io328GCVhAk5w+++y39aY/v/cBHZPZ998q8xx9tdT0JPz7/xa/m5QfZBmJkzv2z5In5j8cu3smnnCYve8Wr5atf/rzs2VP8BDVJOJ519rnyogteIp/79McEuIUFTLTwjvmFz37qo36XM3Ft/Phj5IqrrrEfA77wuU/aY7EVK6R3tBPjJxwjX7r2M8VmWVT8qG3Spz/3JVmxYpn84be/LkK+x6sAAEAASURBVCr/KJFPm366TDvhpFbtszcdPlJ94lOfl3/982/y6CMPeW8n4nefPn3lQx/9pP2Ad+cd/7UyjT16nFx19dvkH3/7SyLbyGoAd+lr3yDHHT8tXzQ+RD77zEK59d//qilyD2MQb8AH6B+a8VmthauufquMPXq8PPP0Qvnj72+w1X/dG66USZOnyIrly+T6X/ykJEiKHaeB3Jw67UQZNnyEIVcb5Iuf/1Tkcqccd7xc9ro3FowPMqUYwrRgRodvxNEmVmpMHlaXJNz3kp9RXN5ryeoTzwrGJG74w+9usG23ey2u82LHoVruy804/CQzHsd4H3NdN2BcO8gYI2B+s2rlipLbFTdPv/NC4zq/uLxWGAESnIWxSfMdEpzp0F6iCU58UQbxsNcQLj/7yQ/kqKMGWbJz5YrlZWvYg9Q2YOBA+2UN5ZczvPPd77eWol/54mctQZMUgnPc+Aly5VVvkZ8aonWt+fpZ7lAsqenKA3IQFo9/+8sfZaUZCIweM1bwtf9G89sNmKTBivXO23MTevdetc9Rh61bt8hNf79RRo4eLWfNPFe6dOliJ5BxWzLDSmvI0KGydMnikoiuJOFY7MBSCc7nli6W+2bdk1c7rLMwOc1qAAk5ecrxtnq/+831snjRs0VXtZDeK0VwRm2TYE0BK+iNGzYUXcewBPgwcOJJp8jnP/PxglFhCYlJCdrN3bt2FYxXzRskOKOhrwTnL376I+lmvANOMZbveA6fW7pEbvjVz6NlkoFY6FNhwQkCfMML6+U/t95srVk3vPBCBmpXXBWU4ISVMz4WIWDcBmusShKcKvVlr7tcjpk4qSiCs0uXrnYMgDz6DxgoL33ZK+1HjfnzHrPZ4qP29m3btIh2H+NoEys1Jm93ZauYgUt8QoxiXd6zYPWp4wR8XIQHHuaW008/04x5nilp3BNFncWOQzVPfAgF+Y+P81+69tO+VqYf/+TnjEfKxrLNgwuN61RGHqMhQIIzGk5pi0WCMx0aSzTBefzUE+Q1l71ebvrHjfLYow9bRK9+yzsEFo74Mg0C65KXvsK4Hm+RuXPus/cxkT3n3BeZr+i/ybvTDB06TC648GJDGva3AzS44boE3bGTpliX1jtuv03Of9GF1gVg7ZrVeetIWGvgqzgCCKd//+sf9lz/YKCGdBMmHiv1puN89tmn5X+33dqKKIKrEb6u9x8wQHbs2CH33nWHLDKdqzccNWiwvOd9H7KunfcfJlvCCE7gAdcFWPbNOP0sEeM1Nnf2fXnMUAbcyV71mtfa8levWil9+vaTXr165S04YSmLDr9vv362QwWJe+u/b7IYD8Bg9+Wvsp3uwIFH2S+LIJ3hdgViREMYzv2Nez+snTDYQFhjMIYbMYgkDToY8w7CCllqajr32NfU7YMf+YTMvv9eqwf3np7Dcq2hvsESn7uMK9fGjTni4yZjYbXlsHUq5L3EDPLx3Ow0Orv7rtstAah54Hj5FVdZt1fEgX4xKPnvrf+WxYtzZBGem1NNnXuYAcvza9fKzTf9LbI7MAjO559fI5hII5x62gwrD9x+9dno1q2bufYqGW4sNuB288Cc+63Vr01g/rh6xxdfTD67mjT//c+/bZSBRx0lF77kpRrdPPO/aTOgCnp2o+AYJiMsiV/16tcKrMZgSYrneceO7ZaM3rZ1q3XTD3q/8P7h+Tz66PGybdtW2WwGfiea961YC04MfmFh5w1wR33RBRfK6LFHW4J5y+bNhgi9W5YsXtQqKqwJL7jwIjs5hFXX46bNmmPeQw1hzwKs5YA1rMT379sv8+c/ltez5hHn8TOf/7K1Ahhj6vXM00/JX/70+3z2Ye1qmN6V4LzNvAvTZ5xpLO63y+3//Y95ntfmywh6LjABedOb3yqPPPygHDd1mgw0bdCjBk8832j3o7ZJL3rxRYLlFxBgZffwQw/ky8cJnp3zzn+xTDhmonTp2lXWr1tniRq0AWF6R78AfQ00H96wDMbyZc/ZvNG+oi/R8MYrr84vNXHv3XfKqlUr9JY9wn1+yvFTbd+BPG453O7iJt4H9GkgSQrh2CqzdvyISnAGtQcoPo5+oB3VKHtSJThd6+7PXpvzhFCL5bAxRZS+pb3tSZie4mpvvvDlr9tn3yV3zzjzbBk8ZIi1NtpjvG5Akp018xz7DmvfFTTmUCXimT/ltOm2T3pw7mz7QeYO0/+tW/e8jRLUhiAC3uEZZlwzcdJk6Wre700bN1orxLg9UEBwDh02Qjp16iR//N0NdhzwxjddbZYV2meXVVILzjC9u/213zgtylgT9S6F4EQ6DWgz3/XeD9rxE8ZRbgjrr6H7ycYatGfPnoKx1YIn55ux2Cw3CwlqE6O0eUFjclivXmDafYyBzzTPXKfOnQ2pdWer5UlcnP3GRa2EzfAPHW+jit4xt7farqs77qWJ+NR5Iz5CFvLqCXu38CFzq1nmqldjb5lgLEGfe26p3H3n7XlvwvaOQ4Fp79595MMf+5R1Pcd4/29//ZOvx1YQwRk2zsR4p6FTg2COO+OMmdLDLEthiV9j6BE2roOMDNERIMEZHas0xSTBmQ5tJZrgxCAFA5TvfOtr+fUTQXTMPOc8+f53vmlJKXztesFYD/z6+p9ZxGFNAbLja9d9wVrKgCyBuzfWsoR1GtyIMAj92leuzbviajkg7EC2YcAD6wR8PcNvTFbgvjNm7DhrseB1UX+HsbjEpA5ruiA+BlgY0OsagPr1EKQhBubDhg239fFaE6ICsIbAhPbLX/hMfi2nMIIT7gxwa0AAaYhBNCz9/vrnP9jBJa6jQ+xhBpyYQI8YOcp+wQSJpC7qb3/ne+0EHzKikwXpgS+EwBkT33PPv8BeB56wdMP6TsDr5pv+juwtKRWEMyw9PvHpa41FQ0c70MRgYOKxk235WGcGHYHXBb0YUtMKcfgP8gZmIGFBdK9evdK9bc9f/srXWOsKDAYw2cFkAgEkG6wUunbtZuT9vNU31rpBvUG6YKICskHDF7/yDUu4wAoQpDnirDMkDlw6gRnIduAM4gQWXFivTTHXPAodvQQnBiZnn3u+qFsN1oL7uHn+YSWyZMkiQwIdZZcd+MuffpcfzLt6V7c1V+94Vs570Ytl4MBBhqg5qo2LetizG4ZjFBmHDx8pb3vne+zzBPyAL4j0W2+5ydYj7P2CWx3eT1i1whIVX78RiiU48QyAUNMAqyTodLAhLvF+oP2A/uDa3dN8HPjtDb/Mk5zqyovB8yLzgaPO1GOUeY+V8Ah7FjBp/PBHP2UJ2kXPPmPfNXwM+e7/fV3FifU4yHxIebf5kIJlMPAODB02LC8rCgprV8P0rtahaA+XL1tq2rQx9l269rOfsPUIey7UqhaRManYZwhjTLoxobjn7jsitUlIC/IQa1ahDcdHB6+LOjAAFtu3bxO85+PGTbCTi3vNhDhM73B3w0cNtA1oM9XSCe//3Dn3o3gbQIjBOgrxvS7qmDRhQo93EktDQBb0ET/+wXds2jAcDxcRyyEKwRnWHgCL9vQDsVSkzJl4CU70behvQLzD6wIhaEwB0i2sb2lvexKmpzjbGz+CE4TC6DFjrVUr6oJ2EWMLPB/wxlmzepVtU/FRwW/MAQzxboGo27t3r+2jMW5C+PMffysLn1pgyMvw/g/vF4jepxc+ZS248X7jQ2XcS9KA4BwydLgZA64247bcB1u0Yfj4geWFMG6IMqZw+2u/cVpYX2gBMn/KSXCG9dd4F9atWysb1q83/cpw244+YMhpGBZoCGoTo7R5QWNyNYzAM4fnDB+8MSbA0gnq+eLi7DcuUjlr9Vgq8ZlU0lPnjfDWggWn35q4Ye+WWlbi4zXIQbRvOKI9Q2jvOBR5nHPei6yxCuanH/7Yp+1c1P1whDgIeH79LDjDxplIizEPPhBjrA2DgK3GQAjj2e99+xsSNq5DeoboCJDgjI5VmmKS4EyHthJNcOpE4stf+Gx+Mx1YKL7k4pfKb379C0s4hE3EP/Dhj9vJJ8hKuA9h0AnLJXRyGOgi6GQEg2YMnhFAkmFy7ga/9X5AWsHSCPnpumXYTAJf32BlijzwtRoTjiAXRpSjX+9g9aUWdrgeleAEOQPCEbJ/9tqv2Ek7CBJsoPLRT3xG/m0WnMcmFyA/sSadS3QBF7fTR0eHiQGIVnToCDpp8nNRD8NZJ1R+7uA9ejbK1JNm2jLwp1RiM5+BOcFAAeQiJp+QH1/zUbZ3o4xCrhgXXnSJnG6+boI4B/HRqVNng6mxeDPWV2pRifJAcKIMkJbAEwH4Y/AAHYDs0LVTMSDCxO/HP/yuvW4jB/wBwYmNpBY8MU8GG/dxTCxgDfP1r37RThhhZQfr0J/9+PuW2EZWWDsHaXBN9Y6JBSYYWgdX71o8SBZMBr1rcEZ9dgvhGCYjytcJE6xkv/2t3NICuA4cQbSHvV94lqGX35m1YRF08lIswWkTO38wKYZFK+SAjvXZwbsC3WIN3D//8Xc2BcjJxt69zfvy2bzlOMhWEKIaP+hZ0HbN791yRIrt9KJLXmYtAiHv1GknWMtgkGpqGRXWrqoghfSuk1T9IKCTzh9871vWijjsuQBmaPfcdXMhEzYK+/lPf6jFB7ZJ+UjmxG8NTliQXX7lm+WhB+ZYq0nEh55hFYa1nqPoHWnw3oS5qPutN4eyQA7phyTk9epLX2cJZ8UpDEekiStEITjD2oP29ANx1aPc+ei4BOtfw3IX/eSQocMs8Q4CHiFoTBGlb2lvexKmpzjbm0IEJ56n//vmdfbdW7tmlXHf/4WgvcAYBWOVsDEHlsMByadL9ei7oQRnWBsCPXzqs1+UbcbrBn1uOYMSnPhg9Lo3XGGL+ttf/ygXv/SVeYIzTO/aXxcap0UZa2odK0Fw+vXXGO969fqhj3zCWFF2sUYFKh+Ofm0irhfT5vmNybWvmTvnfrnNLJug49277vif4MOV4hxlXAR5GI4gUCrxuWpFa2+XIzlW5gzt9Ps++DHbt4P4hlHMv2/6R96bIsq7hfEHliTBR1o853hOYaShH23bOw4FEu/74Eelq/kYijE+2j+Mf7HkBWR2gx/BGWWciTz0o667rjbGOu58t9C4zpWB5+EIkOAMxyiNMUhwpkNriSY44Z6OwYofwfmLn/3Ift0Km4hj8I3GGxacGkD0wCro28YyFEEnI7/65U+thaPG8x79BlNwgYTrFaw3Dh5ssUmwmyYILhAusBrC5PcVr7rUEo5Y5+5RM7h3XTW1HHSYkyYfZwb0n8sTurgXleBUyz6kwTqesB5A56iTmW9/M7emI+7DmhK7J6s1Yd9+/Q0pO91YGU2URuOCAfmBm5smiOCMgjMmGxhsLntuibFye9a4i861pFFvswvk8JFm0ewVi4315CaIF0sAUTHTWHAdZyxBYL0K0gJfRt1QqCOHJS0GFzqYQZqPfeKz1jLPzQMEp0tQaN6wCoDVHwYm2FlVA5496P9fhy1f9brfEQQn9AA3N7jXIS8Ql7q8AlzIYNXmPtvYtRXECch0uOa9+CWX2EkmXL0R8L60mOdU9a7lFiI4oz67hXAMkxGDKiU4H5h7v7HyuFlFssew92vDxhes5SM+CKg7+Osvv9Ja7BVLcBZyUYcg2EQG61XCfRwWsxhMwhoabQYCngPoBfrxhijPAlzmPvbJHDmKNmLBk09YAtWbV1y/8cED2P/fN66zJA3aA9fKJqxdVTkK6V3bMnUJw+6lH/34Z/LLjYQ9F3ju0e7NmT3LfOy5xRanJIJrQR/UJqmMOPoRnPhQhrYRC/kX2tk8TO/Iu1SCE4T4R4yVhrt5B9YJfu3rr8hv6hOGI8qPK0QhOMPag/b0A3HVo9z5KMGp5eDDxxLTz8NjQj8SBo0povQt7W1PwvQUZ3tTiODEUih4t9Bvrly53C6Bgbj4EAw39bAxB95/WNWrd44SV0pwhrUhaN8uv+IquxYlvGtggY82rhy73mvbhLEB+m0EjL0+Ziyt1IIzTO9h47SwvlCXxUHZlSA4/fprlD16zFg54cSTZazxeIKFLvpLjI+9Gx4FEZwYBxfqO1CGBr8xuT4nOkdAXBg1wJMAY+QzzpwZeVyk5fBYGIFiSM9Vy3NEZzUsPTEuxnMJy3CM7fFblz+L8m5hTIS2QzdRmz7jDLnokpebTWc/L527dG73OBQW6XhOsbEsPpRA1le++rK8kYWrAT+CM8o4E3mA4MR+Fu7cxs0b54XGdd54/B2MAAnOYHzSepcEZzo0l2iCUzud7xgrRF0XEbvIYfFmtSz0TsSxZhOsk9RFHQ01iIfZ993TSiNwB4RlHoJORsIIEb/BFCa3IIfQUcLV2g3Lly/LbygxwRCHcC+Gyw46VnfijjRwX/rkZ661662oa7vmhU4P6wqqJSCuo15PLXjCThrURd21/lJXdwyyL7zopcYa8Sw7wNQJ2AeNZWu9IWlAdIHIRBkIIHkwqTjGrCeKdY7gtgACDyGITIiCMyzasEYhSFR8UcWg9+vXfdEem5ubbBnl+nO+WUNx5tnn5d3jtJxCHfnb3vEe61oF/DRgbdTexioFz54GTESxPqx37UbFCoMVTH7dAKu0KBsxuC7qmAyADNlvyE614IQOuxtMb/rHX93s7TmskfGuYIkHWMCAJEWAZVBdx7rIBCfShD27iFMIxzAZQdoqwem30U3Y+wUX+7e87V2t1irCEhVYqiLsfYbcCCArMZkuRHDqhGmFeZ9htQkL2Etfe7l1f/vlz39s3x9M3F0L8FzOub9RnwVdcw/u3JgUuq7Kbn7tPVdyA9irdTY+PLiWvWHtqspQSO8g5txd1PHuf/xTn8tbb4U9F6g/dII1PHV9ZbS/atGl5Su2btun99yjH8GJNYlBYLrvh5smTO8at1SCE0tCvPf9H7GEDzwAEFA/7JyM9Y8fNJalYTiqDHEclYR2vRHUVdpdCyyoPWhPP7Bv3944qlH2PJTgVAIG75E3BI0pwvoW9MdxtCdBeoK8cbU3hQhOkFuwCsfHFLSdWJIHcWHler8Zj4WNOdC3wooehCYC6oN1LZXgDGtDoBd8KIE3Df6DUMW13//mV/k1sm3GMfxRghMfX2DRizEerFTx4UgJzjC9h43TwvpCd/OyShCcfv01lvV413s+YF1f5z32qLHAX2+WwLnQeie5YylAHkRwBvUdrrr8xuTabsN6WD/sWus6s/QUZNZ30233C42L3LJ4XhwCLvE5YnRu3X2/HKpBemLJGHxQxtwGbVSUd8s7JnKXQ4tjHIp2A55z+GCGeRraLoxNsbcC+l83+BGcOhYKm3OA4OxslmlTAx83Xz0vNK7T+zxGQ4AEZzSc0haLBGc6NJZoglOtWbCpj24OgckfSEJ1C4BJPyYEulbdG954lXEbmJQnODGwwcZAuqaZn1p0wONuGuAXz28wdYoZOGO3Se/aan7pcQ0d1vs+8FHj6tCt1Zp3Ssp846tfyi9arXlgkIwdgLEeJoJOgJSQUYLz9v/eaiYO99o46IyxtiS+Yo8YYSbN73i3qEUpImCiga+RIDiPLCh/S34xeF1DyyU4sX4W1lfT5QFsQYf/RMHZja+6hQvR3DlH1qtz48R5jnUTsYC2EgeaNyZReLZuufmfeskeMUHAl15YuGGdGoRrv/Q1Y2G6VUC4a0B6TGS8G08piYQNp7zr/mnasKNLcCKuDtyxgdVss/A/6gMrCV1+wZsfJrDvNJMNXZMTky7ofefOHUURnJpvoWcX9wvhGCYj0irB6fdchb1fqBP0gg191CpWLXviIjiRHwawaoGCiTIm11g7DgQnApYvOHjwkCXL7AXnT7HPAuoE8g1rY7qTNCfLdp2eedbZdtM1WBLvNu0KAtamg5uttj9h7aoKUEjvYcRc2HOhpHMYwRnUJqmMOPoRnGoxpS6zbnycR9E74sESFB/Wgiwi/CbzIHHxjru7b2OzuHPM8hr6LoThiPLjCmpB4lryTpo8xbjcXmmJAVgWu8GvPUh6P+DKX+q5EpxB44WgMUWUviXO9sRPT27d29velEJwLl70zOFNbAqPOeCFgrbzG1/7khVXXbyV4AxrQ9w64hwW0x/6yCet5b3funbe+MX8dglON51LcIbpPWycFtYXuuXCsgwbOga1SW587/mRMWFurOHeD+qvtf1yPX/wocqOPZyPxcjPr03E9WLaPL8xuY6T3L4T7dKqwwRnMeMiyMMQHwJRSE93M6NyWnpiDAfPLqyTHuXdCiI4sXRUe8ehmFvhAyc+/mg4+ZTp9t1xvVZwD+MzBJ0T4jzqOBMEZyczD3XnMUjvhkLjOjcOz8MRIMEZjlEaY5DgTIfWEk1wgsjDWnew9AM5N2DgQOvqrZaLgBjrMKFzgnUANg/ClzikUwtOtQLFBhBz7p9l3XPhvrVxw4b8LuNBkxGUgUXKEUA6DBo8JE+WYmMKTFIxiMW6h3fefpvZqfdpu8nQSaecamVGOmwOg7XjMKiHG+CbjPszvmzrWo6YgMCaAS5U7q7kSIuACSYmmiDRVqxYZteWhLssiDMQaEpwYjH+v5svfdikCJZ7rtsuJiEg5/75jxutxSnIO7XYUnfQtWtyu5qDWIG1KYJLcAJXdOJYuP2/t91iN/HR3cfDcAaG2BwKVkk7DG5nGWtKuFBjEyDs4BxngE4+atziYIm0dKnZfMdsWPNi46qNNU6//12zOZXRvQZYUGGQ88+//UW2bN1sLGU32S+ocGF58zVvtxtH3WrWsIQFCCxasW7rPXfdocktsedHcCICCBK4gmDAgjiNvXqbnerPsGu1FWvBqQVikIUdELGMAdylYb0IC+W7zfpS619YJxMnTrK7eIPIRQCBgq/BeDahcxBCqnfcx6AIzx90DmIFLtawbgahDqvPsGcXeSAUwhHPYpiMQRMmkC5h7xcmwgOMjuHW06dvX8GC8phQxUVw6sQa7xt2qsfHCDxTLsGpa1pip+67zfNRZ8rHO6hrdIY9C9gkqX//gTJv3qPSwfy7zFhADjWEI1weoY84A2TBIvOuRY0ShbebHYrhPhrWrqo8hfQeNkkNey7wTEax4Axqk9AOYL01hHe/74PmXV5rnxFYceGjF6xW8Wyhf8H6bAufetK841PNh59ddsOgKHpH3loXEIPYvATvDjYqQ4ClCJbK6N69h91IC9ZrsMjAO4kPDZio9DOEOT5a7NixzVhwXGr7FN1kLgxHW0iMf4BHQ0O9bZf3mf4E5cNq/atfvtZs9rIntD1IUj8QIyytsmovwRmlb2lvexLWbsfR3oBIUnIUS/7cc/ed9mMgrDXxgTTIghMf6PB+B4054HEBzwu8l/AqueDCi+3YTglOfe+C+j/oCu/kmtWrzQaTR9uxFFzk1WK6lWLb8SMKwRlF70HjtCh9oVYBfQc2TYF3Cca+GH/u2J5bI1zjBB1LJTjVAh36Be5YBx1jVbSx2t+EtYlR2rygMTnKw/JWhQhO1DtsXBSEDe/Fi0AU0rO9Vp5YIgxeJA8+MNt61U02Y2EsLQbjBsyrorxbQQQnrKfbMw7FOAbP5BqzVrHOC4GyLqOjm+oq8mgXz5p5rvVwwYZeWN8d3jhh40ykj0JwFhrXafk8RkOABGc0nNIWiwRnOjSWaIITEGLiDXdrkHAIIGdgVYf1lRDg5nfVm99md4HDbwyukQbEgG4UAWISg3ENSAurHQz+EHRSVsgiA+b6fkEJRgy0L7/izXadRI0Hl3r9QqYEpd5DHf5o1gLCwBxBd75zyUSNiyPc19/+rvfaibBeh+xwi0dQghNlwroMAdabP/nh9/Ju8+q6j3uoP8gruIXrWowgt7DjMDpaEABLFi+yLqZemdDhnjb9jHw8kEgISBeEMwiV97z/wzYe4sMNA+6+WLcs7oBnBS5H2BlQA6wwQXCDYHUDFgmH3CA7EHRTFJxjsyiQsBqw5iIsq3SzGVzHhATkpdcCFPdAHl755rfYnZHxGwHrZf70R98XJYZzV/3/YsDz/PNrWg141I1FLV9hpQE5gb8GTGh0mYNjDOEJyxEQRrvMzveYaBj+zL5DiP/hj33KEr+aVo/6fIU9uxo/CMcwGXXtILVa0zz1GPZ+gSC9+q3vsMQQ0sAtDZtaFU1wGj2qFaiWjSMsTd7xzvfZPPEb71nXbt3NMgPr8xaceOYwqcLkSgPeQbUsD3sW4O50ibEEB2GAgPcTZBjWOYszQE48V2gndf1Q5I9y8fECi+/D2j2sXVWZCundO0nNW+uYdheWowhBz8URgvOIhbeftQ7yKdQmwZIfFv1+Qdv60WPG2jj6/qPtw8eyBU/Oj6R3zRtkAiyDgKO7MRLaFrjBewOeUUzA0S5eYz5SYMkOBLQtf/z9DeZjWM5aMgqO3rzb8xtWZGizMOFDQF8B7wS4vSGEtQdJ6geswGX4E4XgDBtThPUt7W1PwvQUR3vjNy7CWrZYdxMfB7FuNDb3cV3U0cbgI+F9995tP6gFjTnwgQIbbeAdtWOSJWZMMv4Y+3488/RCq9mgNgQRdMM5nCMPtG/4iGf7QVyMKYDgHDxkmN2kz80SHwzQT2hbG6b3sHFaWF/olo3+BB/zgeNjZumhm8x7HDUcITiPWNhq2rD+GliMPXq8jY4POXDR1/XgcTGsTYzS5vk9e8gbY/LOZixnCU7H+wYWnPgg+fvf/grR7LqsQeMiG4l/qoKAS3g29u4njWaNfm9wrTyjbGCEdVfRJus4Gf0sxkD4WKLLN4W9WyA40b6p9beuW69zzfaMQ3WTI9coBXXWDxVoL+8wRgoaQNa+8jWXWc8bjDmw7MYiY0ATNs5EepCgMAbSsanm6R4LjevcODwPR4AEZzhGaYxBgjMdWks8wakwYsL96te8zrpRuuuB6X1Yd27ZvLkV+aT3cMSEAdZ0sLTE12wlSN047T1H59JoNtPYZKwAveuJde7cxVho9Tdlb7GWMFoWOlxYb65f93yr3YH1vntE/r0Mabdx48ZWG8sowYn1LDGYBYGlaw+56XEPlm4vmE7ar/6QBRhhEuB3382r0HkYziBgsf6L7tZcKJ84roO0gHXUZvNcePURNX9gBkxAVulAKGpajQfdDxgwQHYYi61irCg0fdgRAxzUE6QQ1hTCpMIboBcM6vxIU29c7+9Cz643XtDvKDIGpce9oPcL+UNPsMzTdSXD8iv2PlwcD7YcbLOEhJuPPv+wutSlDdz7Qc8C0vY3hFfT4TbKTVet87B2tb1yxfFctFcGpIelZ09jyQ1y0vv+RNF7e2UAIY9JB6zLQcRUM0AnsJBCewI8vH1BlPZA34NC/W0l+4FqYhlUdpS+RXEspT0J01MS2psoYw7EwTsBiyVYLnm9MMLaEO03MOZwP04G6aac98L0HjZOg2xaJ7+xZjllj5o3nr3cWPWIt0zUtJWMh3eg1HFRJeWs9bKU9AwjPINc2tGOwIsL/WyhTQWBc3verUqMQ6M8C0HjzCjpGSceBEhwxoNj0nIhwZk0jfjLkxqCE+JjMAIrHri+wM0vCwGTyAnHTJRVxgWrVPLLJTjLsUNoFnCu1TpgF0a4lr6wfr11Q4ebnN8HglrFh/UmAkSACBCB5CFw1KDBcrFZS/LJJ+aZD8e95XRjhaWb7CVPWkqUJgQ4LkqTttrKqoQn7vhtYKQWnkGEZ9tceYUIxIsACc548UxKbiQ4k6KJYDlSRXAGV6V272LDnle86jLrdgwyi4EIKAJw3z3hxFPsV2us0Tpn9iy7xqLe55EIEAEiQASIQNIQwHrlb74Gyw815t3LsWGen3dK0mSnPMlGgOOiZOunWOmU8PSz8FyzaqmseO7pYrNkfCLQbgRIcLYbwkRmQIIzkWppIxQJzjaQ8EJ7EejV2E8mH3+azWbufbe2NzumTzACw0eOk+Ejc+ttrV65WFavXJJgaSlanAjgPYf+ManQwGdAkeBREXDbCFjUoI3YsX2z3uaxHQi4fS3fvXYAmZGkfm0y3jm8b9u3beF7lxE9sxrBCLiEZ89efVpF5vvQCg7+KCMCJDjLCG4VsybBWUXwiyiaBGcRYDFqNAT05cfOh1EWAI+WK2MlCQF03CNGjc8vAL9g3lwzgdqUJBEpS5kQwPvtWkrAHWzVisXUf5nwzkK2bC/Kp0Xtb1HC7HtuLl9BzDmRCHjfLRWS7bIiwWOtI4A2EsHPnR3zFLqy1/oTUp76k+AsD67VzlXHXJz3VlsTweWT4AzGh3dLQOCMc15mU3GyVQJ4KUiinTZE5SQqBQqLQUS/STR1HwOwNZaFDgxRbX4Ai0/5iisxjQ/TJOfk1x5DXrbJSdYaZUsCAnh38IGWZGcStJFtGXSuxH45W3rW8RYJzmTrlQRnsvWTOum0QcdAe8H8uamTnwIHI6D6RSx22sFYZeEu9O1a6qJOnERnQbPVq4MODiEB25D49MAPi/FhmcSc0BYjsD1OonYoU1oRcPsjtw7om2jZ6SLC82IR0PkSxznFIpfs+NpmkOBMtp5IcCZbP6mTTht0EpypU12owKpbRGSHHQpXqiOgA3fd0FXnHPCnWq2JEd5tS0iYx6MWHXSzbY4Hz6TkgnfFj9TMtcVYW5NLwyRFV5QjvQjgPfOz7ET/hHeNy22lV7fVklzHOeyTq6WB8pSrYy0SnOXBN65cSXDGhSTzsQhog06CM1sPhOoVtWJnnS3dam2gY7+JNNfXVIR4jBMB7/PGwWL70NVBN/ve9uGYhNTed0Nl4scARYJHIlA+BPD++ZGdGPvyI2/5cM9azniOpkybwTlTxhSrYy2OWZOtWBKcydZP6qTTBp2TrNSprqDAqlNEILlZEKbU3oB+SWymVn2pF1wHi6gI25f2qVPd1Dnwbh+O1Uit7TDKbuyTc0fHOUlNoMBABKqDAPonBHfNTryTtOqsjj7SVKrOnTiuSZPWwmXVMSvHWeFYVTMGCc5qop/RsqdMnWEH6Hz5s6FgnTSzk86GPlELnUxzIp0dnaa5JjpgRB34cax0TSqObKtLx7DSKdkWVxpxlkcESkNA21c3NdtaFw2euwiQ4HTRyM65tgPkOJKtUxKcydZPKqXTRp0T1VSqr5XQ2pBzENcKltT+4GQ6tarLvODab6CitForTd2KIfve0vCrVKpC7TDK55IgldICyyECpSGAcTGCa9XJMXJpWGY5lfbHfDaypWWdF5PgTLZeSXAmWz+plU6t/tgApFaFxm15Qn4AN/uem9NbkRqXvNBkmptU1PiDkdDqqwcAxGP/UZySdEJFgrM43CoR268dRrkk8yuBPssgAvEjQKIzfkyzlKP2xyQ4s6RV82Hj8NyY49Nk65UEZ7L1k1rptAHgRCudKlT9QXo24unUod+EmpPpdOqy1qR22x9ODorTPj4ust8tDrNyxUYbjMA1jsuFMPMlAtVHAP0VAi06q6+LJElAgjNJ2ohPFh2fcm4cH6blyIkEZzlQZZ4WAbXE4QQ1fQ+EWuBSd+nSHUnNdOmL0hZGQAeRiMF2qDBO3jvadtPq3otM5X4XaodpNV85HbAkIlBpBNBnYfd1Xduc/ValNZCs8khwJksfcUmjY1MSnHEhWp58SHCWB1fmahDQxh1gsKNPzyOhjTd1lg6d4T2zg2pnYA3Jaa2ZDv1RysIIuH0IrRIL4+TeIcHpolG5czyrXktNlM52uHI6YElEIAkI6BhaZeFYWpGoraOOX6j/bOld328SnMnWKwnOZOsn9dJpA4+KsJFPhzo5QU6Hnvwm1JxMp0N3lDI6Au5zzuc7HDe23+EYxRUDzyY/LsWFJvMhAtlCQIkQ1Irzn2zpNkptdP5L3UdBKz1x9L0mwZlsnZHgTLZ+MiGdNvKoDBv65KgUE2GvG6M23NRTcvTkSuKSPe51Ej8uGjzPIgK65AnqxoFlYQ2jXUd7sGD+3MKReKddCPi1w9oGI+Pt2za1K38mJgJEIBsI6JgatWG7nA2dRq2Fzn05n4qKWDri6TvNcWiy9UWCM9n6yYx02tCjQjoR4CSgeupFAz181Hjp0KGDtDQ3ywP3/8cKQ+uf6umkUMl4d2glVAgdXq8lBHRgiTpz0tBW89rPciLdFpv2XgG2dEFvL4pMTwRqDwFtl7XmJEYUiWwfVe8cq2RLzzoO5XucbL2S4Ey2fjInnWuFw0a/eupFAz1s5Dipq6vLC3Hw4EH7m3rJQ1LVE78JNT8OVFUlLDwBCOjgEqKwrWqtEJ1QkeBsjUupv4AnPy6Vih7TEQEi4CLgzn9IjrjIZPNc+2OOU7KlXx2D8h1Otl5JcCZbP5mUThsHVI4Nf3VUbAnOEUdLXceObQQ4dEiMZae0cV9vE5EXYkfAj9REISQ2Y4eaGaYYAZ04oAok844oUifQHHgfwaSUM792WNtg5Efvk1JQZRoiQAR0/sN+K/vPgo5TOM/Nlq71HeY4K9l6JcGZbP1kVjptILSC7AAUicoc0fEeO+UU6VhfH1qgd53O0ASMUBQCfpNpZKATak6mi4KTkWsEAe97w8GmCJcYKf3h9z5PmhPbYUWCRyJABOJAQD9EkeSMA83k5oE+Zcq0GTTkSa6KSpJM+QuOOUuCr2KJSHBWDGoW5IeANhS4R5LTD6HyXEPHO9EQnPUkOMsDcEiuwJ+ujyEg8TYRiIAA+5AcSDqZ4qQ5wkNzOArb4ehYMSYRIALxIKBtNXIjSRIPpknMRfXMuW0StVO6TDrm5LtbOoaVSEmCsxIos4xABLSx0EjsDBSJ8h3R8U6cfLLUNzQEFkJdBMJT9E3g7t2oQi2EkBmtNYuGlAmIgHmnJsiI0RMsErXaZqlVEAfd4S8E2+FwjBiDCBCB8iGgfRY/SJUP42rnTIKz2hooT/n67nKsVR5848qVBGdcSDKfdiOgjQYywiTVHlfkjvYH/8SGgHa8QRnWKlEQhEkp9/wm08hHiU2SmqWgyjREoDUC3v5jVQ31HW57ziVFWj8X+ovtsCLBIxEgAklAgB+lkqCF8smg/TLnUuXDuBo561iTBGc10I9eJgnO6FgxZgUQ0IZDi2LHoEjEe9SO15vrIbOT+p49u2TZkqdoTegFp4jfnEwXARajEoGYEHDbtVqyjNGJci3VOcojg+cBoZDVPD8uRUGRcYgAESgHAtpfsd0uB7rVz1P1y3ls9XURpwTKU5DgjBPV+PMiwRk/pswxBgS0AdGs2EEoEvEcteN1c2tubpa9e3bKE4/d717meUQEgKl3Io2ktNSMCCCjEYEYEHDfw1p593RzIQ64cw+Q+wzoI6XPAn6T2FRUeCQCRKCaCGjbTcv7amqhPGXrPIvz1/LgW61clZ/geKtaGohWLgnOaDgxVpUQ0IZEi2dHoUi076gdr5sLsXXRiHauE2nEbuyTsxbCOSfTQIGBCFQPAbVqhARZHohqH4k2Z8H8udUDvMola1vstsMQSdtikppVVhCLJwJEoA0C2k9luY9qU+kauaDzLM6tsqVwHXPxnU22XklwJls/lO4wAtqgKCC13mF0rFMk2h5bDra95ndFvxzjXq3j6YdPoWsYtATtgI50nEwXQo/XiUDlEHD7jay2cdqO1+pg24/YJKlZuXeMJREBIlA6AiQ4S8cu6SlJcCZdQ6XJp+PKWh1zlYZa5VOR4Kw85iyxHQhow6JZpH3SqkRlnUNY1nXQ2ono/SNXSjvzkp4HD2FdsgnSo1c/Wb50oezYsb20jGskFQYqCF4XdEykEVatWExS0yLBP0QgWQi4fUba+wsvslq3WrPeLERqbt+22bTD+J9rl7148TcRIAJEIEkIaBtOsiRJWolHFhKc8eCYtFz4ziZNI/7ykOD0x4VXE4wAGheEEaNzR5wnfeIKolJJTBCYpRCXJ0waiapGDo8vXBk5rkZUIrS5JXdFf+v9WjsWmkgDB5KatfY0sL5pRUAHpJA/6X2FH8Zqpemu06aTJ8SvhcmxX1uMutNaEygwEAEikEYEtG9KY7+URrwrKbP20dRtJVEvf1n6ztbCuKv8aJavBBKc5cOWOZcZgSQTnQ31ucqHkZkgLacde4S4nDZpVB61YgnNfMICJ17Cc97CFTLv6RwJ6r3nZqEkJ0hPPXfvZ+2cE+msaZT1IQJmjVxjhT1l2gwLRZDFI8hEl0hMAnZKcB46dEjm3PtvK5K6NmZ98uTXHpPUTMJTSRmIABEoBoEePXvL1JPOkpaWwxYEJnFdhw7SwVg/HDp4UA6a9l1Dx44dZf6j98mundv0Eo8pQ0DHHFnvo1OmlnaLS4Kz3RBWJAMSnBWBmYWUEwF0IlgTsdoWnUpqNnRsW1uXyASJGTd52bbE0q4o0fmrG2fZDPS3mxtIzqyRnX6TaNSZE2lX8zwnAulGwH3P/d5tJRJRyySRnK5ckK25uUnq6xtwmig5rUAx/HH1pNlBXwi0nFdEeCQCRCBtCHjb8iD5k9QHBcnJe/4IoB/DR1USnP74pPUqCc50aI4EZzr0RCkjIqANj0avRMcCYtNLaiqhmWQyUzEKOyrJCdJTzzVNmslOv0k06uVHfGh9eSQCRCD9CKj1I2riuhnp5BME4jMLHknEWo46SSqEelYmwahn0OZtXFez0BPA60SACKQFAVhwwpIzSshK2x6lrlmMo313JeahWcQvqXVSnsEdOyZV1lqWiwRnLWs/w3XXBkirGLWDmXHWxbJ3zy6Z92jOglHT+x29xOY1l55lo11z2Uy/6Jm5BpLTS3aC6NzflPwqktRMvo4oIRGoBAJuH4H+wfUAQPm7dm43LoLh/UC5ZdVJUlg5SZgMgyAuVg6/NpkfmcK0zftEgAikEYGo7XnUOUsaMagVmVXX1GW2NK5jRxKcydYrCc5k64fStRMBbYg0G3Q0CKtW5I56XY+YoB00a+Fg3ZsnH5+tl9scOxvvQN0oCMRm1knNNgAcvnD9X2fZdTxBeibVmtNvAg3xOYkupFVeJwK1gYC3f/DWOgkDWJ0keWXz/sYabnNm3eK9XJHfroxRCE62yRVRCwshAkQggQhEseKM0o4msGoUyUFA+0USnA4oGTjVcWMSxocZgLNsVSDBWTZomXGSENAGSWXyIzrVPRFxmpua5Pk1y9oQoSA1QW4i1DKxmUPgyF8QndffeJ+9sGf/kevVOuMEulrIs1wikC4EZsy8ROrMJg9+Ycf2LYEfuvzSxH0NbdnEKSfn19wMyr9ak2Jv3/ng7NvaiIl6IIwYNV4a++TO8ZsfmoACAxEgArWCgBJfhepLQqwQMum6rnqmPtOltzBplU8gwRmGVHXvk+CsLv4svcIIaMPkFqudjztJ0/veBkwJTqyx+cNrr9RoPBoElORsMhtENjVXHhIMJryTZ0jBCXTldcESiUAaEJh+5kXSsd4sohwQvH1AQNSy3EKfNXTE0YJddf1CS0uz7Nu7W5YtWViVNUOnnjRTunXvZUjiDnnxXKLVr13WNhkJuLZmHjaeEAEiUCMIBFlxuu1njcCRyWqS4MykWs08c4Jd0qjaY8NsohtfrUhwxoclc0oRAtpARRHZbcTUNR3kZlJ3Qo9Sp3LFmXHpl2zWlbLi9Js8QwCdQHPyXC5NM18ikG4E/D5oeWt0sKVF1qxa2saS3xuvnL/RVw0bOa6glal+oCunDIXyPv7Es6Rbtx6+JDHaYNdSE3mwXS6EJK8TASJQSwgo+eWtczXbc68s/N0+BFTH1Gn7cExaauUPXG4gaTJSHhESnHwKahoBNFQI3g0mXFDczSa6dc7doXu6i1DuHOtwvufa39of5SQ4SWq2xZ5XiAARiI5AFHJTc9uza6c8/sg9+rPiRz+Cs6W5WfYaq83lS6tjtQkQRh89SQYNGVXQslSBIqmpSPBIBIgAETiCgJ8VJ603j+CT9jMSnGnXoL/8JDj9cUnaVRKcSdMI5ak4AmGTXVjxgOR8ct5sUYIT1ptXXzqTVpyOtkBuguREKERwaoePOMUM5EhqAjEGIkAE4kIA1oc9e/W22bWYNr6QC3hT0wF59qlHq+ZKPXL0MTLcrFvphmpbhIwaM1EGDx3ta7mpckLG7ds2Vw03lYNHIkAEiEASEXDHw5Cv2u16EjFKs0yqX+o1zVpsKzsJzraYJPEKCc4kaoUyVRSBMIJThUEntWld693X6ap+ZO1NxQlHP4JTO3uNF0ZwktRUpHgkAkSgXAignWns3U/69jtKehQgPHfu2CZPPJbbRK1cchTK97gTzpBejX2lubnJrLW5p6pWm5BRB/eF5HWvh7XxblyeEwEiQARqDQHXipPtZba0r3MeEpzZ0quOgeiinmy9kuBMtn4oXZkRiEpuqhiPz73ZnsJFXXcNhzXntGNHyjWXzdRoNXHUTYW0si4mXoJTO3qNq0fvgI6kpiLDIxEgAlER6NQQNWZ4vE4NnaWhU2fp1KmLNDQcyXjDhrXhicsQo0+fAUaOTrJ7907zf0cZSoieZc+efWTi8WdGTuBt3yMnZEQiQAQSh0Dnzl0DrbYTJ3AKBEKbOm7iVFm3doX5vzwFEqdHRCzlsn//3qoJrPMeEpxVU0FZCibBWRZYY8+UBGfskDLDNCEQRnAeOoTa2D/SoUMHUYJz7o2fte7Yv7pxVt4tGzHVdV3PccxSAKmJoOQuzkFs2qMheP02GdJO3kby/MEEmKSmBxT+JAJEoCgEdPO3ohIxctEIDBg8WoaNmmL6wmhJSXBGw4mxiEAaEADBCYvylpbmNIhLGWsYgY4d6+XJx2eT4KzhZ6BcVSfBWS5k482XBGe8eDK3lCEA9xDwl4dyf1odd5j1ww7lGM58rdRFHQSnBqw76SU6cU93Wcdane5v+yMFf1CveQtXWEnnPb2yFZGLiy6xaSOZP16CM4jc1DTukRtSuGjwnAgQgSgIKMF53SXfihKdcYpEYMe+7fK1O78kXbv3ke69BkrvvgOkrkNd3qXfzQ5WMx3q6uwHQXwUJMnposNzIpBeBJTgfHrBQ+mtBCWvCQSOnXIqCc6a0HTlK0mCs/KYl1IiCc5SUGOamkVANxlyCU4XDCU7cU033HHvK+kJl/Zpk0bZW3rNjVfJc5UziMxUefxITb2Ho0twRiU3SWq6CPKcCBCBYhFQgvNbL/+enDDs5GKTM34IArcvus0SnM0tIgcKGG+hvUfAeqYaVq1ovWa1XueRCBCB9CFAgjN9OqtViUlw1qrmy19vEpzlxziOEkhwxoEi86gZBMIIThcIJQ5h3Ymgv9047rlLdIIARVAS1I1X7LkSl5oO1pgIUeRx5XDl07y8RyU4G7r2lynTZnhv+/6mhY8vLLxIBIhARARIcEYEqsRoUQjOErNmMiJABFKCAAnOlCiKYgoJTj4E5UKABGe5kI03XxKc8eLJ3DKOQDEEpx8USiqCdIxKNPrlE+c1EJdKZCJfkKpRyEw/GZTgPGHGy/xu+14jwekLCy8SASIQEQESnBGBKjEaCc4SgWMyIpAhBEhwZkiZGa8KCc6MK7iK1SPBWUXwiyiaBGcRYDEqEWgvwRmEoJKfGkctL5UI1evFHF3iEulci9BSScyg8l2CE8uXcjOKILR4jwgQgTgQIMEZB4qF8yDBWRgb3iECtYIACc5a0XT660mCM/06TGoNSHAmVTOt5SLB2RoP/iICgQiUk+AMLDglN5Xg7D94gpW4T7+B0rNXn1bSH2xpkbqOHVtdoxVnKzj4gwgQgSIQIMFZBFglRCXBWQJoTEIEMoYACc6MKTTD1SHBmWHlVrlqJDirrICIxZPgjAgUoxEBIECCM/g5UIJzz/628bybULjkJwnOtnjxChEgAtEQIMEZDadSY5HgLBU5piMC2UGABGd2dJn1mpDgzLqGq1c/EpzVw76YkklwFoMW49Y8AiQ4gx+BIIIzOCXvEgEiQARKQ4AEZ2m4RU1FgjMqUoxHBLKLAAnO7Oo2azUjwZk1jSanPiQ4k6OLIElIcAahw3tEwIMACU4PIJ6fJDg9gPAnESACZUeABGd5ISbBWV58mTsRSAMCJDjToCXKCARIcPI5KBcCJDjLhWy8+ZLgjBdP5pZxBEhwBiuYBGcwPrxLBIhA/AiQ4IwfUzdHEpwuGjwnArWJAAnO2tR7GmtNgjONWkuHzCQ406EnEpzp0BOlTAgCYQRny0GRg4c6SMe6Q1LXISf0QbObeMvBDub3IXM9GRXZ12yEM3LVm71+6o2s3tBs5G1uOXzVRO1S3zaONw1+k+D0Q4XXiAARKCcCxRCcBzsclKYOzdLxUEepN//dsL/ugPvTntcdqpOGQ/VtrnsvIF/8Q74dzD+EQ+ZfSwezqRr+mXxKCYu7L5feTb1k4IF+kZK/0HmTrDf/ETof7CTH7BoTKV1QJBKcQejwHhGoDQTCCM4OHTpI586d5eDBg3LgwJG2tKPZVLKhoUH27dsXO1AzTj9TtmzZLM8+87Rv3p06dZIpxx0vgwcPkbVr18i8xx9rFe+oowbJtBNOlDvv+J80Nze3ulepH8dMPFb69u0rc+fMrlSRrcrpP2CA9OnTV3bu2CHr169rdS+tP0hwplVzyZebBGfydQQJSXCmQ0+UMiEIhBGcD67oJht31cugXs1y8og9VupHV3WVdTsapF/3FpkxencianLLwl5y6DBnCSK2X/dmOXH4XmnomLv45PNdZOWWTnlZEad/j2Y5YdiROPmbzgkJTgcMnhIBIlARBIohOJ/p8Zys6bJeejR3l+nbpraS747+c1r9xo8ezd1MvGltrnsvPN64UDY3bJMBB/rK1B0T7e0nej4rGzpvlj6GoDxp+xRvkki/7+r3gBx1oL9M3jkuUnyQm+s6b5DtDTst4Xru5umR0gVFIsEZhA7vEYHaQCCM4Bw5apS8/g1XWDB+9IPvyc6dO+z5Sy66RI6fOk1++uMfyLZt2yKBNWjQYHn5K18lf/3Ln2Trli0F03zwwx+T1atWyt9u/ItvnA9/9BNSV1cnWzZvluXLl8ndd93RKt7UaSfIhS+5WL73nW/J3r17W92L48db3vYOeejBB2TBk08UzO7S175ehg4dJt/99jcLxinHjS5du8o1b3m79OzZM589yGnI4RLU+Zslnpx40smWZL7hV78sMYfik5HgLB4zpoiGAAnOaDhVOxYJzmprgOWnCoGoBCcIwYsn5QZ3txoyEVacSSM4e3ZukQlH7ZfNhpBdvrmTNBgrzRcfs9PqQwnO6aP3WCL0hZ25OAN7NsupI3PErZ/iSHD6ocJrRIAIlBOBYgjOWX0flgN1TdbGEuSfa1m5tWE7DNvl8canpLshNifsHiOdDjZIj5ZuoeIrwVlncj5v0wwbH+QkLDsrSXCqoAt6LpKNnbYICU5FhEciQATag0AxBCcsKm/6599tcaUQnGPGjJXLXvcGueHXv5T16wpbFQ4bPtwSk5s35azW3foNGTpUrnzT1fLH3/9WVhkS1C90795dQKYuW/acGese/urvF7HEa5/41GflgbmzZda99xTMoV///tLVkI1rVq8uGKccN0DsguD9739ulUWLnpE+xor0jDPOsnqLk+BEOccdP1W+8bWvlKMavnmS4PSFhRdjQIAEZwwgViALEpwVAJlFZAeBKATntr0dBS7esOA0PKc8vLKbcQU/JL26HMxbcO7eXycL1nWRXebYpeGQTBi4XwYYC0kEkKEPGUvQEX2bZO22BhtnRJ8mGdN/f97tHeOwJ5/vKpt2d5SuJv3QxiZZb0hIl3xcv6NelmzsLPuNO3pPU/ZxQ/aZuMaH3gRYcPY3VpunjcqRlcs2dZKF67vI8UP3CspSgvOiY3dad3uk+c/TPaWTqcf5E3bhp28gwekLCy8SASJQRgSiEpz76vbL/X0fleH7BsvqLuuMVeR4Gbx/QBvJ7uw/15CSjXLi9klt7hW6AIJze/1O45J+MG/BOb/X08YNvt5agaoFJ0jH5d1Wy35DssI6dOKusdLlYOd8tiBZl3RfYd3oB+8fKMu7rmllwQm396XdV1ny8pCx0YTF6Ljdo0xfg97mSAi2htz2AABAAElEQVQiONd2ecG4sW+U3R33mrI7yZg9I6T/gT5HEnvOaMHpAYQ/iUANIhCV4AQ5Bpf0H3zv27Jnzx55ycXGgvP4IxaccBu/4MKXyLBhw6XpQJMsWPCEPPzQgxbRfv3623sgHvv3HyAbNrxgCUy4j99orDk1nH3OuTLQuJcjLFm8qJXr+ZAhQ2Wmud/Y2Ci9e/eRdc8/LweaDsiqlStlzuz7bBq4ZZ973ovsOf788+83SlNTU/43TkB8opy+RqYDB/bLk0/Mz8t59LjxcvLJp0rvPn2Ma3uTrF69Su68/Yib+2XGKrNjfb2MHDlKdu/eJZsOE7AgE7duzVmkHjtpskyecpwtc7uxbP3ff//Tqvy+ffvJBS9+iSUed+3aKbPvm2WtUBEJVqmvff3lMn/e4zLJ5AOS9In58+TRRx6O7GoP69ZtW7fK9b/8Waty8QM6evWlr7W4uu7/J59yqowwdfr7YYtZyAgLzTFjx9o8gPUt//6XXaYA9YPl7oABA6Vbt26ycuUKG+f5tWsN4Xu3PcefyZOPs3l0Mzp/wbjI//e2W+1zA9L3Fa96jew1z9DgIUMMUTxHJk6cJPUG11tu+VegZS8Jzjy8PIkZARKcMQNapuxIcJYJWGabTQSiEpy9u7aIWY7IBuPxITv2d5SenXMEZ1NLB/nfs8YlxJCUcPvevLvekppwX4eVJ9brBJmI0K3TQbtG5o59HS0JOt4QoQiPr+4qa7c32DybTPx9TbnCXjo5ZzUKi0sQq1gLtI+RZZMpA1alF07MEZZeghOE7G2mzKG9m6wbuhKc04xLOshUuNgjz6MH7JeJxuqzUCDBWQgZXicCRKBcCEQlOJcZYvG5bqtk5pZTZHafR6WxuZcviVkqwbmjfpf0au4hHcw6zAiw3tzVcY90b+lqXdRBbs7v9YxZp7POlN1TthgyExakZ2851V6DZSksTEFWwuoT9xFAdKqL+kO9n5B8OSYeSFX3vk1g/hQiODd32iqPG+IV+cNNf0fDLuna0kWmGLK3UCDBWQgZXicCtYNAVILzkYcfkpNOPsUSgrf955Y2BOfb3/luu+YjLDN79eolILZAXoH06t27t5xx5kxDTvaW4SNGyArjVr5r1y5L2oH40oC1NwcOHCjjJxwjy55b2spFfYC5fuqp0wUkJkjKxYuetS7X7hqcIObOmnm2JVERz+uiPmr0aHnd699orTqXLl1ixtJ1Mmz4CPn2t75uRbjyqqulS+cusnrNKmns1VtGjhpl1wL9xc9+Yu9feNHFxrCh3hKYcLFH2Qj3zbpXduzItesTjOwTj51k0o4284UOrVzU4T7+vvd/yF5fuWKFxQJrmf7h978xLvmrLIEMghJh27atsn//fsF6ovcbElRJXHsz4M9VV7/FYHiU3HrLzbLwqQVtYr7nfR+QlpYW+cmPfpC/95GPfdKQkOvld7/9tb32/g9+RCAXSNC6jnUyfvwx8qMffNfKM3bs0bZ+w0eMtGTzUwuetGleeGG94BlBOPOsmXK6sRrduXOnJbNHjx5jCOHdNg88C+9413vtPeCP52TTxo3SyxDXIIl/ff0vbB5+f0hw+qHCa3EgQIIzDhTLnwcJzvJjzBIyhEBUgnOqsYR8dHXOrRHrVsJaUwnOp42l5HPGYhLu37CiVHKxb7cWOX3M7jzBifhnj8tZS95uCFGQnWeY+wggI/uY+GqBeceinpbkVIJz1tIesnNfnVxk3ORBbIKgxFqgxxhycpwhKb0EJ/K85ale0tvkiTKU4MR1DbD+PHvcbt9NiTQOCU5FgkciQAQqhUBUgnNun8eNZWSLIThPtiTf1k7b8u7krqztITiP3Xm0PNlrkc0OFqKLui/LE5wP9J4nu+v3yLnGhR2u7Bs6bZYnej0rR+8ZKaP3DLNWpc/2WCZnGfmwQRCsLBf0XJwnMLHGJyxFERdpEBaZTYjWdF1n8pxucswRq7heiOAEwbrJkJznH3ajR9ywQIIzDCHeJwLZRyAqwQkSr7+xKMTmOVjP8bwXXZC34OzRo6e88cqrrKUhNvZBeNd73m8t/L71ja/mQYzqoh60Bic2F7r4kpcZsuzIeqD5Ag6fFFqD853vfq8hXxvlO//3jfx6lLAqBfmGACtCd1MiEJpTp55gCVDXvTuKi7rfGpywLj3l1NPkT3/8nYDghEXlhz7ycVm7Zo0lF2EhC4Jz06aN8suf/9TKBEJ0qyE7f/ebHPloLwb8AZn4msteZwlKrL0JN/3/GRIZZCPC9Bmny8yzzxWQtps3b5Jx4yfIq19zmbXeXLJksSWhgVOYC34hF3VgiDqA8NT1OUeMHClvuPxKS17u37/PEpw3/vXPlgh/8YUXWV2eNn2GJY6hm0KBBGchZHi9vQiQ4GwvgpVJT4KzMjizlIwgEJXgxFqWtz7dy9b64mN3yO2GgFSCExsRbTLrXmKNTrXyvMMQmMbQ066BqRacY/sfkGMH5XadRBq4vsMCc/eBOrl7cQ+ZNHifjOmX26nyMWPR+byx6FSCEwRoZ7Om5rnjcwSp5jm4V5OcNGJvQYITpClIViU44aJuDDjlBePuPn9tV+luSFYlXf1USoLTDxVeIwJEoJwIRCE4mw2xeU+/B2XovqPk2F1Hy/NdNsjCHkuMBedk6Wvc0d3QHoJz5uZT5K7+D9jszjOk4319H8kTnHeb8kFcnr71BHsf7ux3m3U6B+7vJ8fvPEYeM2t/wiJT181sNru939PvoTzBuaT7SllhXNZh9alk5iGTx0HTSk/bcWwrN/NCBCfc05/usdS6xcMtHXjA6jQokOAMQof3iEBtIFAMwfnkE/PkPe/7oHXp7tylc57ghGv3+S96sfzlT3/Iu1u/7OWvFLgzwzpSycFqE5wf/+Rn7Nqfv7nhel/lYtfxE048SWCl2NNYocKKEW7j3o2USiU4YT0Kq9Bvfv066+4NIWBRWVfXUb7/3f/LW3DCtV83TnqdcVkfZHaLL2azIhCnpxhrV1iTwvIV65DCYhNWprgHAhmWl7DyvPyKN1krUbVihUwf+NBHpXPnzoaEXS6wdMUu9bD6dEMhghNLCcASFmW6ywOgXLjeP/jAHEtw/vY3v7Jk6stf8SoBCQ7rXZC/LiHulodzEpxeRPg7LgRIcMaFZHnzIcFZXnyZe8YQiEpwgohctbWTde8e2feAdUlXgnP2su6y3ZCVugkRIILF5Z4DHeQlhlBUMtIlMB8y7uZb9+QIThyRx1RjGTrcuJQjPGHIx1VbjxCc2NgIbvIgKzXAQhMu8bD69Fpwwm3+v8/0lGEmP7iluwQn3NwRIMNG46auVqGar3skwemiwXMiQAQqgUAUglOJPVCDIAixliUIRqzBCUtLN7SH4Dx786mCspD/sH2DrMu5uqjfZdb27NXUQ07enlt3DWXeaXZu79vUW04w630+0GeeHOjQZF3ocQ95QBZ1Qdcd4EHQ1h/qiCj5gDVDsSGShkIEJ+7DghPu+jsMmYrWfeTeoTLerONZKJDgLIQMrxOB2kGgGIJz7pz75TVmDcfRY8Za9+VJk6dY8u/YSVOsa/gvf/FT624M9NRaEa7Naj1YTYITROXHPvFpWfTsM/LPf/ytjYJxH8QfAta9hPv5OEPcgqT9+U9/bF3VNVGpBOcVb3qzJRNdEg87njcat20QjGrBededt+fdvWEJinVNgywbVS6/oxKOIBbvvSe3RiZIU7jmYz1VkJkgMG//32355LBqPfvc8wzRO85a4cKq9Yff/47s25czzkDEQgSn6hhrm8J61A2wTG02a6LCRR0kM5YseMUrX203Kjr9jDPl1NNmkOB0AeN5xRAYOeYYGT5yvCyYN1e2b2u7uVnFBGFBgQiQ4AyEhzeJQGsEiiE43ZRYc1MJTl0/E5v16KY/ICRxDovLMIIT+YKgHGI2FoL7OwII0h3GJV0tOOHS3mJMQkGYImANz1lLu8soQ7ZOMZsNeQnOxRs6yyLz/4The+2GRX4EJ9b0xDqckBGWnH6BBKcfKrxGBIhAORGIQnA+2rhAtjXslFF7huZFWdN1vT0HKemG9hKcbl5YU1MJzlnGmrPFWJKeu/k0G2Vn/W55sPd8S4RisyFsLrSi61rrPg4LTVhzPtz7yTzBiY2R4MIOghOWl0EBrvGrjes6dnRXa09vfKwROrf342ZX+ea8TN44+E2C0w8VXiMCtYVAsQQnNuB5xzvfY1254Y4M68bBxmoPlnhwT8eGOAhvuuoau4nM1677Uh5QrL95+Rvf1MrSM3/TOSmXizrcwWFZ6EcWYq3LN1/zVrnnrjvloYdy1vpwq4Z7tZfghCWolxR0xLenfi7qwAjrc/7kR9+X7dtza3Z+9OOfspaVP/vJj8pCcKrLOFzi//yn31vZRpj1M9/wxivtup/QiSuPtx5YkgAkpEu6Is55519g12TFLuruTvU9evSwVr5Ljbv73w5vWuTmqWtwkuB0UeF5tREYNfZYGTbiaBKc1VZESPkkOEMA4m0i4CIQB8GJDX8eWN5NGo2F5WTjZr5icye7YRB2UscmQlEIzjnGgnOrsQI92uysDuvLFVs6WTGV4Fxo1vxcZvLFjujD+xyQJ42F506zY/tZY3fbckFwgqQcbVzcN5ud2OHejjU+zzvs0q4Ep24ytNG41GscdXt3cdFzEpyKBI9EgAhUCoEwghOWkHAbb/RYTy4261eu7Pq8zDAu4yAh15k1L2E3ubDnErvxzpg9w60rN6wjwwLWxsTmP16y1CU4sV7mKlMeyMkhZuOgp3s8Z3Yy3yOnbjveuokjPTYRws7osKp8xriSY6dzteCEmz3yM86QcvTukTYeSFBYjMJF3Q2aF8pCemwkhB3TsclS14NdrDv7XrOr/OPGLR67ubtWpW4+OCfB6UWEv4lA7SFQLMEJhJT4wzkITuyqDktAbIoDt2dsFHTmWWe3cQeHlSQIveefX2uJxL1799p1IJEPiLgePXMbcV59zdvspje33nqzaboPmQ13tiGKDUFrcIJcqzfrWGIH7zPOPMtaCaIM7NgN2eBGj42SsNYkdi/vYBazP2366XKTseiEOzrWjly3LrdjOPKAVSGCl+B8y1vfId1NWagrNgPChkPqwg0CGAHrhII0/dX1P7e/d+7YYawmh8vr33CFrDe7imN3drjDw0J09v2zzP/7YiE4r37L2+zO8k8vfMpiOuP0M2SUWZfTXT4AAmEjIexo7q73ieuQf8aMM+SxRx8xlrc7zJqdZwh2Wf/H3/4qi83O9hpQlzdekVt3dcGTTwhw1o2WQBRjl/WHHpxriODHjbt/T7s7/ezZ99GCUwHkMVEIjBk3WYYMG0OCM1FaaSsMCc62mPAKESiIQBSCE+7nLzYu6m7IWXC2yAyzsRCCEpAaB5sNnWpcx7EhECwv/2PW7yzkoo40e8w6nHMNSbq3qc6mgTv6FuO6rgQnSFKQqCBBNYA8BYmKAILTjAVtaOh4SI7q2SzHDdlrdorMXVOCM/dL7FqhvTq3WAvPHmbzo0KBBGchZHidCBCBciEQRnDq5jzjd482xOGQvBhKAo7eazbtMYThHcZd3Buw0/j0bVO9l9v8DiY4u5ld1Cdbl3hdZ1MzAIk6ds8I/Wl3Wcdu6whwOW8yO6sPcnZR39aww8ZpMutzauhmyMvTt56oP/NHWHuu7fyC3c0dRCcsP5/o+axs6Lw5Hwdrgk7dMTFwHU4SnHm4eEIEahaB6ATnPTJ3zmyLE3bpBpGGgLUdt2/fZjcfwrqbIDERdu3aaTbGucHesxcO/4Hl34knnWzjwfLv61/9sr2jm924cfXctQKdMsVsMvRSbDJ0xPVd473z3e+zO3vrbz0+YdYOve3WW2yZkBFWiRpATv7spz+yP0GKYi1I1AGywcUa63F6Cc7x4ycYGV5u16lEQt0FHedwX/cLsGaEVSPqD8JQw8qVKyz5iA2BQPJiR3PXWtLPElTT+h2xhADWRNUAt3Lshu7uVo9755x7vnEJn26vY21MDf369Zdr3vr2vB5B3GLH+n/d9A+Nkj9e9ea3yFGDBpm5RIdWRCmI5ste9wa7m7tGxjqsv/n19dbyF5sY3fDrX1oX9Ve+6jXWRR24Y6Mh131f0+qRa3AqEjzGjcDY8cfJ4KGjSHDGDWzM+ZHgjBlQZpdtBMIIzmJqf9AQjHAdhyUlSMZSAvIAKQqLTmxC5K7rifxg3QkytGeXFhuvlDKKSUOCsxi0GJcIEIE4EAgjOOMoI848QE7u7bjPWE52t7upe/PG/f11B6RHSzfvrfxv3N9n/nc35Gb9ofr89SgnsATdYyxDYdXZECEtCc4oqDIOEcg2AmEEZ7G1x6Y2+/bus9Z/xaatVHxYa8LCcO/ePXlXcS0bZB0I3I0bN+Q3AtJ7cR1BZPYfMMBafsKyNO6A/GGJifUuXetXtxwQkKNGjbaEIshVb8CGS9gYCLuhlxqwUVHffv1k185dsTwPSSI4t2/dJAvmzy0VGqZLGALjjpkqRw0eQYIzYXrxikOC04sIfxOBAATiJDgDigm9BZd0WGwONJsGYUf2NdsaZLBZk/NEs4ZmNQMJzmqiz7KJQG0ikDaCM21aIsGZNo1RXiIQPwJxE5zxS8gc40Rg1OjRMslsCgVX/wULnpBb/22WAUhJIMGZEkWlUMzxE0+QgYOGkeBMuO5IcCZcQRQvWQgkheDEephPmXU2DxgLzXqzyzmIzuOHHnExrxZqJDirhTzLJQK1iwAJzvLqngRnefFl7kQgDQiQ4EyDluKT8RLjWg8X9hUrlsvNxu3cz3ozvtLizYkEZ7x4MrcjCBwz6STpP3AICc4jkCTyjARnItVCoZKKQFIIzqTiQ4IzqZqhXEQguwiQ4Cyvbklwlhdf5k4E0oAACc40aIkyAgESnHwOyoXAxCmnSL/+g0hwlgvgmPIlwRkTkMymNhAgwRmsZxKcwfjwLhEgAvEjQIIzfkzdHElwumjwnAjUJgIkOGtT72msNQnONGotHTJPOu406dNvIAnOhKuLBGfCFUTxkoUACc5gfZDgDMaHd4kAEYgfARKc8WPq5kiC00WD50SgNhEgwVmbek9jrUlwplFr6ZB58tQZZmOu/iQ4E64uEpwJVxDFSxYCJDiD9UGCMxgf3iUCRCB+BEhwxo+pmyMJThcNnhOB2kSABGdt6j2NtSbBmUatpUPmKdNOl8be/UhwJlxdJDgTriCKlywESHAG64MEZzA+vEsEiED8CJDgjB9TN0cSnC4aPCcCtYkACc7a1Hsaa02CM41aS4fMJDjToScSnOnQE6VMCAIkOIMVQYIzGB/eJQJEIH4ESHDGj6mbIwlOFw2eE4HaRIAEZ23qPY21JsGZRq2lQ2YSnOnQEwnOdOiJUiYEARKcwYogwRmMD+8SASIQPwIkOOPH1M2RBKeLBs+JQG0iQIKzNvWexlqT4Eyj1tIhMwnOdOiJBGc69EQpE4IACc5gRZDgDMaHd4kAEYgfARKc8WPq5qgEZ2OfwdLQpZesWrHIvc1zIkAEagABEpw1oOSMVJEEZ0YUmcBqkOBMoFJ8RCLB6QMKLxGBQgiQ4CyETO46Cc5gfHiXCBCBeBFo7N1fOtUfkt07N8u3Xv49OWHYyfEWwNxECc4Bg0fL8NFTLCLbt26S7ds2k+zk80EEagQBEpw1ougMVJMEZwaUmNAqkOBMqGI8YpHg9ADCn0QgCAESnEHoiJDgDMaHd4kAEWg/AiA1R4wabzNq7NNfli16RLZtXifnHH1e+zNnDr4I3LP0LunavY907zVQRoye0CrOquU5i05adraChT+IQKYQUIJz+XMLM1UvViZ7CIweO0mefHy27N+/t2qVwzhlyrQZgo+BC+bPrZocLDheBEhwxotnuXIjwVkuZJlvJhEgwRmsVhKcwfjwLhEgAqUjoMQmSE0NmDwsX/yoHGw5oJd4LBMCzS0iB5pzmY8YlSM5SXaWCWxmSwQShgAIzonHnZIwqdItTn19J6mrq5Pm5iY5eNA0sAyxIfDMkw+T4IwNTWakCJDgVCSSfSTBmWz9ULqEIUCCM1ghJDiD8eFdIkAEikOgEKmJXFatWGzcpDdJx7ri8qx27IGDhsuAgUNl3doVsmXz+mqLU1T5LQfbRifZ2RYTXiECRIAIhCGAthMfiWAFTwv4MLTSdZ8WnOnSV1RpSXBGRaq68UhwVhd/lp4yBEhwBiuMBGcwPrxLBIhAOAJ+pCZSwVpTSc3wXJIbY+SYiTJ85Dh5bvECQ3IuT66gJUhGsrME0JiECBCBmkSABGe21X7GOS+ji3rGVHzcCWdKr8Y+8oRZAmHn9i0Zq112qkOCMzu6ZE0qgAAJzmCQSXAG48O7RIAI+CMAUrOxd7/cf48LehZITbfWWSY43XqS7HTR4DkRIAJEoDUCJDhb45G1XyQ4s6ZRkWknzZTuPRtl3iOzZPeu7dmrYEZqRIIzI4pkNSqDAAnOYJxJcAbjw7tEgAi0RsDPWlMtNRETLuhZC7VCcLp6I9nposFzIkAEiICYzfLoop7l5wAEJ8Lse27OcjVrqm4nnnqudO3WQx576G7Zu2dXTdU9TZUlwZkmbVHWqiPQUC/S0FHkmkvPkmsum1l1eZIkwOMLV8p7rv2tYI22/U1JkoyyEAEikCQE/EhNyKfEZhZJTRf/WiQ43fpjUm+tdR1LXdzHOnTbt23OJKnt1p/nRIAIEAEgQIIz288BCc7s6ffk6S+Szl26yiMP3Cn79+3JXgUzUiMSnBlRJKtRGQSU4Dxh0ki5+tKZgiNDDgGQmyA5QW76bURBnIgAEahdBJTUBALeXdCz5oIepuVaJzhdfEh2umjwnAgQgVpCgARntrVNgjN7+j319BdLQ6fO8tCc/0nTgf3Zq2BGakSCMyOKZDUqh4CSnCjxh9deWfMk5/V/nSXX33ifVUBTi0hTc+V0wZKIABFINgJKbNY6qelqiQSni8aRc53sH7mSO+MOw15E+JsIEIEsIKBtHtu4LGizbR1IcLbFJO1Xpp95kXSsr5cH7r9NWprprphUfZLgTKpmKFeiEXBJzlq15nSJTSiL5GaiH1kKRwQqhkAhUhMC1Jq1ph/oJDj9UDlyDc8PXNhHjJ5w5KI5wxIGcGFftWJRq+v8QQSIABFIIwIkONOotegyk+CMjlVaYp5+9kulQ4cOMmfWLXLooFmTjSGRCJDgTKRaKFQaEOhYJ1Jv1uPEUYOSnfidRfd1kJoIarGJcxCb9kjLzRwQ/EsEahABP1ITMNTKuprFqJwEZ3S0SHZGx4oxiQARSBcCJDjTpa9ipZ0ydYZdkoebDBWLXDLjd+zYUaafdbElNkFwMiQXARKcydUNJUsJAn5EJ0RXghNrdbq/7Y8U/MF6mvMWrrCSznt6pV1f0xWbxKaLBs+JQG0i4EdsktQMfhZIcAbjU+guyAAEr2Un3DsRaNlpYeAfIkAEUoIA+s8p02bYDdbYfqVEaUWIqQTngnlzuXleEbglNWqXLt3kpOnny/79++SRubcnVUzKZRAgwcnHgAjEiICSncjStezUIkB6TjvW/J80Si/lidD8hSqchJGZKhJJTUWCRyJQuwgUIjWBCF3Qw58LEpzhGIXFINkZhhDvEwEikHQESHAmXUPtk48EZ/vwS1rqnr36yPEnnim7dm6X+Y/mPBqTJiPlySFAgpNPAhEoEwJKcMKNHUF/5361/qvWnnoVJCiCS4TqPfeo6UBQFgpqhan3YY2JEJQG97ET+sFDODNHc86d0XNY8C8RqEUE/EhN4EBrzeKfBhKcxWMWlIJkZxA6vEcEiEBSEVCCE/3ogvlzkyom5SoRARKcJQKX0GR9+w+SY6ecIls3b5CFTz6YUCkpFhAgwcnngAhUEAElOevMup11HXIF67UKitGqKCUuSWa2goU/iAARMAj4EZskNdv3aJDgbB9+QamDyE5sULR926ag5LxHBIgAEagYAiQ4KwZ1VQpCf4QlVeiiXhX4Yy/0qMEjZdwxx8uG9atl8TPzYs+fGcaHAAnO+LBkTkSgXQi4RCcIUA1KhOrvYo9KXGo63fRNiU29ziMRIAJEAAgUIjVzBBFJovY+JSQ424tgtPSYXGI39sY+/fMJQM5zJ/Y8HDwhAkSgyghgp21acFZZCWUqXglOrBPNNVbLBHIFsx0+cpxg/LZ21VJZ/tzTFSyZRRWLAAnOYhFjfCJABIgAESACGUMApKYlg3wIIa6rGa+ySXDGi2eU3HSi6cYl2emiwXMiQASqgQAITgTutF0N9MtbpvY7JDjLi3Olch8zbrIMGTZGli19Sp5fvaxSxbKcEhAgwVkCaExCBIgAESACRCALCBSy1iSpWT7tkuAsH7ZhOSuRz53Yw5DifSJABCqBANdprATK1SmDBGd1cC9XqcdMOkn6Dxwizzz1iGzeuK5cxTDfGBAgwRkDiMyCCBABIkAEiEBaEPAjNSE719asjAZJcFYG57BSMPlEINkZhhTvEwEiUC4ESHCWC9nq54ux1pRpM7gEQfVVEYsEU6adbj2dnnjsPtm5Y1sseTKT8iBAgrM8uDJXIkAEiAARIAKJQsCP2CSpWXkVkeCsPOZhJQaRnVw7LQw93icCRKBUBGjlVypyyU9HgjP5OipGwhNPPVe6dushD8/5nxw4sL+YpIxbYQRIcFYYcBZHBIgAESACRKBSCBQiNblhUKU00LYcEpxtMUnSFRAO3JwoSRqhLEQguwiQBMuublEzrrGaHf2eduZFUmd2AZ4765bsVCqjNSHBmVHFslpEgAgQASJQuwgUIja5tmb1nwkSnNXXwf+3dx5wdhz1HZ+706mddOrd6rKKreJuy71jY0oakIQSmxYMhIQSOrYxBFNCTUgoCYFASAIEgzGmuduSm2zZllVtWb2fejuVu8v85jzPe6tX9t69d7flO/ro3nv7Zmfn//3P7tv57X9motRA55CEToawR6FFHghAoFwCiGDlkov/fvg2/j6KUsPa2jpz/iXXmebDB82iR++Jsgt5epAAAmcPwufQEIAABCAAgUoRKCRqEq1ZKcKVKQeBszIcu7OUYkPY28+vpu6sDseCAARSRIB5OFPkzJAp3rcP33dH6Bs+JolA3779zVnzr2Q+1YQ4DYEzIY6imhCAAAQgAIF8BAoJm0Rr5qPV89sQOHveB12pAUPYu0KPfSEAgTAB/YazGE2YSjo+e4FzyeKFZu8eHoQl1asDG4eYeWdeZLZv3WBWLV+cVDMyU28Ezsy4GkMhAAEIQCAtBBA1k+tJBM7k+i5cc79ASHD7+jUr3UcWJwpS4T0EIFCMAEOZi9FJ7nf+N0K/C/wmJNePw4aPMbPmnG02rF1l1q1ZkVxDMlJzBM6MOBozIQABCEAg+QQQNpPvQwTO5PswbEGxIex0asO0+AwBCIQJEOkXJpKOzwic6fDj6LGTzLQZc80LK58xWzevS4dRKbYCgTPFzsU0CEAAAhBIPoFCoqbm/kM8SZ5/ETiT57PO1FgdWlZh7wwx8kIAAgxTT2cbwK/p8KsXqpc+86jZvWt7OoxKsRUInCl2LqZBAAIQgEByCRQSNplbM7k+Vc0ROJPtv87U3neKgvswhD1Ig/cQgIAn4KM4Gc7siaTjlekHku/HU+eea4YMG2UeX/A7c/TokeQblHILEDhT7mDMgwAEIACB5BCQqOmivwYPM4OGDM9VfO/uJhutuYpJ6nNEkvsGgTO5viu35hI6lSZMbn/15SBkeBK8QgACPtpPJFh1Oz3tAYEz+b4898JrTGtLi3nikT8k35gMWIDAmQEnYyIEIAABCMSbANGa8fZPJWuHwFlJmskri6jO5PmMGkOguwgQxdldpLvvON6nrKTefcwreaR+/QeYM8+93DRt32xWLF1UyaIpq0oEEDirBJZiIQABCEAAAqUIIGyWIpS+7xE40+fTcizy0dpEdZZDj30gkE4CwShOBLF0+Ng/1CJiP5n+HDFqnJlxyplm7eplZuP6F5JpRMZqjcCZMYdjLgQgAAEI9DwB3fAGFyLREHQWDep5v3RHDRA4u4Nyso4Rvh6o9szVmSwfUlsIVIqAF8R0X7Dk6YWVKpZyeoiA9ycCZw85oIuHnTztVDNu/FTz3DOPmD27dnSxNHbvDgIInN1BmWNAAAIQgEDmCRCtmfkm4AAgcNIOChEgqrMQGbZDIFsE/LBmRLHk+91H5SJYJ9OXc0+/0DQOHmoeswsMHWOBoUQ4EYEzEW6ikhCAAAQgkFQCCJtJ9Vx16o3AWR2uaSuVqM60eRR7IBCdgBfFtAciZ3Rucc3JQkNx9UzxetXV9TJaYKj58EHz1OP3Fc/Mt7EhgMAZG1dQEQhAAAIQSBOBfMImHZU0ebg8WxA4y+OW1b0kdCoF5+pkSoustgbszhIBP7RZNjMfZ7I97yNy8WOy/OgfNGzfutGsWv5Usiqf4doicGbY+ZgOAQhAAAKVJxCOvJIYsX7tKjvHZlPlD0aJiSOAwJk4l8WmwkHBw1eKhyaeBK8QSB+B4Dn/8H13pM/AjFjk/cj1OlkO19ybmoNzzQtLzaYNq5NV+QzXFoEzw87HdAhAAAIQqAwBPeXVokHhKCuEzcrwTVMpCJxp8mbP2KLOslLweqOOs9L6te2v7gN/IACBxBPw0X/M4ZhcV/pIQHyYLB+eMudcM3T4KBYYSpbbDAJnwhxGdSEAAQhAID4E8g1DJ2IzPv6JY00QOOPoleTWyUcGeQt0/dm7ZydCpwfCKwRSQMCLnEQAJteZzMOZLN/17tPXnHXelW5hoUWP3m3a2tqSZUCGa4vAmWHnYzoEIAABCJRHAGGzPG7sZQwCJ62gGgTCQqeOgRhSDdKUCYHuJ+AjAHVkzuvu51+JIyJSV4Ji95UxavQEc/Ks08zWzevMCyuf6b4Dc6QuE0Dg7DJCCoAABCAAgawQyCds0tnIivcrYycCZ2U4Ukp+AoWGrzN0PT8vtkIgKQSC9x8MdU6K116up38IxT3jy0zi/G7GKWeaEaPGmRVLF5mm7ZvjXFXqFiKAwBkCwkcIQAACEIBAmECwY+G/4ybVk+C1MwQQODtDi7zlEkDoLJcc+0Eg3gR8JKBqyarc8fZVuHYMUw8Tiefnurpebnh6TU2N0fD048ePxbOi1CovAQTOvFjYCAEIQAACEDCmtrbW6EantrYuh0M3Oi0tx3OfeQOBzhCo69XL9KqrdzfMtKPOkCNvuQR0DevVqz63u++s0f5ySHgDgUQRCJ7Tx44dMa2trYmqf1Yr68VpHpDHuwUMGzHGzJp9tovcVAQnKVkEEDiT5S9qCwEIQAACEIAABCAAAQhAAAIQgECCCDBMPRnOmjZ9rhk9bpJ5fsUzZtuWdcmoNLXMEUDgzKHgDQQgAIHkE6irqzMNDQNOMEQRO4cOHTphe09sGDiw0WjYx5EjR+z/5p6oQkWPeellV5qmpu3muSXPVrTcNBfWp08f08euUBlOzc3N5ujRI+HN3f65vr7e9OvX3x03TudOuSBkz7XXvcY8/uhCs3XrlrKKmT1nrhk2fIR54L57ytq/O3fqZaNk+/dviHSNufa6V5t1a9eaZUuX5K3iWWef666pD9zf0e4kMx0xYqS58uprcvb+4uc/M4cPd+73obFxUG5//0arzO7fv89/7NHX8G/hgQP7Ux3lNmbMWHP2ufPNXXf+0kaHx3eEQbDdqM0dO1bZoZ+jRo8xF150ifn1r35h9HvSmaQRG71797GrJbe6a4ffV22pvr63Le+w31Sx11LXVf1Wnn7GWWbcSePNhvXrzOOPPdLh2HHweykbOlSYD4Zh6vFvBFo9vU/ffm54+pEqnPfxJ5DsGiJwJtt/1B4CEIBABwLzTjvD/Nnr/6LDNn3YvWun+co/fv6E7T2x4dOf/YIb+q1jt7S0mLVrXjT/+98/6nQH+3Vv+Etz1Iqkv/zF/1XNjL/5uw+Zhx+83yx+qvAQlU/c9Bmzdu2L5r/+8z+qVo+0FfyGv3iTmT1n3glmLXr80ar684QDFthwyaVXdBCA9HDg+VUrnHgQlwcFBaqed3PDgAHmox+/2fzy9p+ZRU88dkKeKO38zX/1NjN+wkTzuc/cdML+cdvw2j/6U3PWOec5Mfeb3/hK0erdfOtt9uHEM+b/fvo/efO946/fYwYPGWK+9PnPdvg+yUxHjhplXnHNq5xdI0eOMl/98hfMrp1NHewr9kHi7k2f/lzeLJ/6+N/n3d7dG+fMnWde/+dvyh1WQ3jXvLja/P63vzabN2/KbU/Lm7Nte3+Nbfe3ffbm2DzMDLOVUHjLZzreh+iB1l133mGeXPR4OHtZn/090Je/9DmzZ/fuTpUxZeo0c8Pb/trt86UvfNbs27vXvf+jP/4zc6Z90PGVL91mdu/eFbnMSlxXdZ5JeG3asd288MIq89u77uxw/Gr7vRI2dKgwHwxRnPFuBKPG2NXTZ55mdjVtM8uWnHi/FO/aUzsRQOCkHUAAAhBIEQF/c3/v3b8369atyVl26ODBsiO3coVU6I0Ezm3bthrVccrUqea8+Re6Dtnn/+GWTh3h/R/8iIuy+Jd//lqn9utM5s987ktGkVt3//63BXebOGmyrf9Bs2P79oJ5+KIjAS9w/se/f7vDFzutyLJ3z54O23rigxc4JXo1Hz5sTj/zbHPKqbOdGP/v3/3XnqhSl46pDvK0k6ebTZs2moMHDpxQVpR2PmLkSBcVuW7ty9eVEwqKyQaJuRIgFVH4mVs+UTRKrFyBMw1M58w9zYqAbyxb4FxtBZcHH7gv53WJiHpgFYfkBc7f/+4us2njBnPq7LlGYtDRo0fNZz/9yThUsaJ1GDBgoBk7bpx54flVsY1U9QLnKvuw6IF777G//9PMRZdc6qImv/HVL5kdVsTravL3QF0VOPXQQw9elcoVOLt6XR0/fqJ5543vNfrNKXReVdvvXbWhq/5M4/5e4JRtD993RxpNTLRN8864yAwcNMQsf+4Js3NHeSNeEg0gBZVH4EyBEzEBAhCAgCfgb+5/+IN/N6tWrvCbc68aFnyVHZo42XYs+vbta6N2dtoO6r02Om1lLo/eqJxzzzvfDBo82AlO9937h1wedeyvvOoaM2PWKXaxlDqzYsUy87vf/Dpyp0oC55oXXzDf/9533TEvuPBic80rX21+8fOf5qI4+vfvb171mj8x48dPMM12GPsjCx4yTz35hMt/9SteaU6y2ydMnOQEDA3bUnr8sYW5YeJR6qhjXPfqPzIn2aFfGjK/evULLkJPQ+befP3bTL1dlGPylKnmwP79uY7XL27/WS7S6SpbDw0PU1qxfOkJQ8eG2+G8r3rNH9thvcPN/n37zL33/N51PpVfHb2/uuEd5gkbsTj3tNPNSDtkdJGNYJGdcR5eqLpXInmBs1C018yZp5j5F1xkhg4b5sQpiWoachhkIx9fceUrzIyZs0zffv3M1i1bzF2/viPnn2JtqJQNXuD8p6//o9m+bZvL/smbP+v89umbPpbb/bTTzzTnzr/ADLBi2uZNm8wdv/iZOWgfJvhUqo7F2ojK0HQOf/JnbzDDR4ww69etdXXpZ9vtb+/6VeQ29Ka3vDUXMX3/vXeb9evX+upFaudz551uZKeSopd+9cuf5/bXm2I29EQ7Hzx4iPnghz9uHrPD8XUN+9lP/ts88/RTuTrrnL76mutMf9tmFj/1pLnksis6RHAGmevaMmToMNPY2NghgjPuTKOcPwLSVYFT0cCKCs6XLrzoUjPbRlEOHDjQXUOXPPu0efihBzpkLXYNVsZS51eHwkIfvMD5ox98z6xcudx9+9a3v8td04Pi1xvffL373dB1Wjwkiv/2178yEuGUNAXJnHmnud86RYDeGboOlbJh3LiTXHtT+Xp4oyHketDgk86f8+w15OTpM9ymjRs3uGhiv2iMfrPPt9fCWfYBSz/bZpt27DB33nG70cMgJUXjXnPtq917/fnv//pBB0FfUZ0awdE4aLCZMWOm+53Tw8XgVALzz7/InHPefLffowsfdtH1f7DC8JYtm3PlVuKNFziftO1Gv6VK/vf/N5b5wgUPmlfZ3+Rdu3a59/peDxAvu/wq8+Mf/SA3fcnUaScbTR2hiPIjzUfM008/aR56SWj390A678+xQ/Z72yHeD9x3d+7eQGUWSj6CU1GlGpL+hc992l3P/+hPXmfOPOucDhGcxdpFlPuHYtdV3d/oPmewvf/S9Udt4pgV5tX+dC+mVMrvylOsbWp/cR07dpxbRFEPne/81e25qNeu2qDja7j/q1/7x2aivVfTgwWNhFnw8IP6yqUobdPnTdsriw3F06MjR48302edbq/VO82SxQviWUlqVZIAAmdJRGSAAAQgkBwC/ub+sUcWdOhErV79vBtuNcbezP71jX/jhDbNSTZ9+kwz0Hbe//P7/5YTMF9x7XV2DqtLXWdi2dLnzKhRo82x48fMd7/1TQfiXe/5W6NO22bbSVMnTDfjTy9+suAQzzC9sMCpm+BP3fJZ8+wzi81P//fHdm7GPuYjNgJL8+g9//xKK/6NckMp//e/f+g6KeoQjbbCoiJydPzly55zh9D+XqgtVce+dm6dj3z8JncMdR40PPOUU+eYf/3m15yI9Fo7JE3HVwdbHUkvot79h9/mIgzVwRk1erTbT53h4BB1zd/40U/c7ITTF61wOmnyFCdI+UiM4BBPdT6b7VB7iaXqePoOTJhbmj57gfPnP/vfDmZJiJJP1UYlWkrYlGCljmdT0w6jKB+f3vO+D5jRdr61vXv3GDE++eQZTtS633ZmS7UhX0ah17DAKaFSQwUlCnz5i+1Dcy+/8mrXQdy3b68TVxUhqXMqOJS5WB1LtRHV7SMfu8kMsAKROrY6z9RudDwdI2ob0lQOau/TrbgRHqIepZ3rvJBYNGXqya49B4eol7Ihah0L+aGc7ZddcZW5/IqrjSLCP/jhTzhh+Pvf+44rqqGhwZ6Xt7g2pogotSul4PUryFwPUSTKeOYus/0Td6ZRzh/Z0lWBU9dFPaTxabsVSbx4p/Nly5ZNZvvWrW7+QP32PGLFMwl8SqWuwVHOL3/cfK/5BM53vOs9ZsKESSY4/PjWf/iie3Citqq6y99b7BB2XZskwCjqU/7X1BS63kj0+5d/+qo7ZCkbdN1/2ztudL+liqycOm26FX16u7ap8vRgTe2xV68699um68ysU2a789vPT606SMzTb7FGCug6p4dlftoUCaRXXPUKM3LkaCd6hYeo+2hmzXmtSFYJ/Hr99r/+k7PBt4HDNlJdv3V64Kf0Pz/+T7P0ufzz0roMZfwRWw1RDwqcesCgB6ZqF2ofqq/ENh/dL5Hy1a/9E/N5iY02+lzTRXzw7z9u9uzZbVauWO5+H/QA6Gtf/oKrkb8HklC9ccN6M9QKhIrm/mc7VcW2rcWjsbzAKaFVou9T9qGjhNiwwFmqXXT1uurnEdX0EWPtvZZ8L9FV55ufg7OU30u1TZ1f5553gVEUttrhDPtQUf5R+9HcpV21Qc7QKJuhw4a782qwFdjlhwfvv9f84fe/cb4q1TZdppT+IYozno6dc/oFNrBjmFm1fLH97doQz0pSq5IEEDhLIiIDBCAAgeQQ8Df34Rrf/n8/cRGQ6kDpZlZzXyqpU/epW/7BLbDxPz/+oROGNKekOjoSk9RJUNIwKIk3EnEUeaiFRiT2KWnxEkVK3Xrzx51w4DYW+RMWOJVVnUx1Rr7zrX92ERyKivv2v3zDRS7oe80DpQgAbfOp0BD1KHX0HRYJH6tfeN4VqUiZlpbjHaIEowzPyjcH5zWvfJWNTLnEddIkvnkRd72NnpNQ7IWf7du3mX/62j+64+tmf5cVO8Ug7ckLnGE7/+HWT7nOlfgEF59QZ0udfA0tVUddEWpvfMsNRkK+IqqU1K4VsaIISkUBRWlD4eP7z17g1DBFRY1KVOhvxTEJhJorzp83EkL+9Ztfd7tJOFCEmKZM0PZSdSzVRrQYx99/9JO5jr9vQ15s60wbKjVfZJR2nm8OzlI2dKaOnn1XX9/3/r83/ayg+4XbbjVvuf7tTsRU1K2uZefY69SrbVT1F2/7jBOrFUUlsdILnJ75r+643S3IpCh3nd+eebBucWZa6vzxdnhxq1JzcEqIUQShUrgOH/jQR200XV8n7un7Ytdgncv6XSp2fqmMYskLnA8/dL8tZ7N9IDbHPYySiPmtl85Z7a/fHh1PDw3kZyX9Tqq96Lcq+GDlT1/35+6hl4/sLmaDrht/ZwUePaDRNAn6zRUTRYLr91MipRfrik2D8vFP3Wqj6na564qrXIE/heZi1O+Krl23fOqj7vdZ116JqPqspHNEQr6uvbLZ21hNgVMPFx595GErtk5z13Xx/qqdI1wR4qUEzvMvuNjec7za+dCL6UEk/h5o4YKHzG9sRL8/h+/5w++MHn4VS17gVF5NyaF5ovVAR/c4PoJTwmqpduGPUe511e9/+hlnuQj+oCDvv/Ovhfxeqm2Gz089ANM1XtOy6HroU7k2qE1p/uLgQ40PfeQTbsE2PwqiVNv0dUjrq19saP2alWb92o6jqNJqc5ztGj5ynJl56pl2xMEe8/SilyON41xn6pafAAJnfi5shQAEIJBIAv7mvtAQdRmlm2bduGt4l6IUdaOrCLHv/du3jI84Uefrvnvah0IFQWhY9sWXXOZEn9bWdpG0rq6Xe/L/w+/bYfEvDesL7hN+X0jg3LBhnRP/3v0373fRjIpY8EnDxdQJvfmTH8mJqIUEzih1lGA6bNjwXCfPHyf8GuXmPp/Aef1b3+mEFd+pVLkf/uinTG1dnevgi7kinBY8/EBu0YDr3/oOG60xPhGLuIQ5dfazFzgLDVFX1Me5dsjk9BmzzCAb+aHIEnWC/SIP6uCqo6sFZPKtCh61DRWqtxc4JabqHNHxg3OyKZpSUXISBI4dO5orRiKkXyipVB1LtRGtBPyKa19lgsNp1SFsseddMIIzShuqlhhXyobubueK3JWApOks9FDnjDPPNn/8p6/PPWjQAiK67ulhjJKinD5x0605gdOLJ76dKY8i7PTgIxiZq+1xZlrq/FH9lboqcBYboj55ylTHf6qN/FU0ts4jiX6efbFrcJTzq92Cwn+9wOlzKDJ8h32gpHkVg3M9SuAMipg+v6Zn+ZCNANZUBxoSrqTVot/wF2920Z2KoCxmg/Lrt07XreBvma4RwUX/JGBKhHvRjrJYuWKFm2rFP4BUGW988/Vm5qxT3YgJRYFKMNLDxnAqJHTpmqH8imBUmn/+heaVr3qt/Z252S3sp98hRQb6iEl/D1FNgdPXXddPRWXqgcKype3RoqUETk0h8eGPfcox1TQ8S559JrevyvX1/+63v+mit7VN1wRNi/NfP/y+PhZMQYFTD7J0HA2pln+8wNlqV1gv1S78AaLcP+R7cOT374rAWaptqh2ed/4FZpZtWxquXlNT6+4FNf1JcBh5uTYoAvaVr3qN+cF/fDc3NY8eJumhkn9QWapteg5pffVRnAic8fDw7HnzzeChI8zqVUvMlk1r4lEpalEWAQTOsrCxEwQgAIF4EvA394UETv+9IijUoVDEyuve8EYXPflv3/kXG9lxqvnLN12f68CFrfRDszRfph9C5/OssWWqs1IqhQXOsMgg4bLBRoz+4uc/OaEoDZlTp0ipkMAZpY6ao0+iaamFjaLc3OcTON/5rvcaDcn0kQqq73vtkOrBQ4a6m3sv/Ph5x/S9Ojo+kkaf05yKCZwSBNQhVZKAos73TDvfqzpGX/9KuxiheSnV+fMRn2FWUdtQeD//2QucPlLLi5U+ukXz5SnySUKaVlcPJkXlat7OUnUs1UY0B9tF9mFC0EYNzaytq+0gcEZpQ9US40rZ0N3tXFG+ivaVQKQIYAnTqoOmPtCcfH/ztx+yEUQNbrirfKa2puuRj+DUXMCaAkMinI8gVlvqZcvoLoGzq0yjnD++vVZL4NS1793v/Ts3jHjxk4vM9u1b7TDqa1w0o78mFrsGRzm/vA2FXr3AKVFrlZ2DUwJnviSBU2JWeC5RiT5qLxqpoIhLJR+VpvmAH7XR48VsUH79fijK8OEH79PHXNLwdEX2K2l0xNXXvNI9zFHblAj8hc/daiPZD7vv1YY1QkL/JVzr90/zioYfJhYTOIsN+Zb9y5Y+54ak64Az7EOlN/3VW6s6RF3XTfHO55OwwOmFMj9EXXXUvJFiNnHSFCecB6cN8Pc4wQdD+o1ev26t0X1RsRQUOBXtqVECit7Xwy2Vqwcf9b3rS7YLf4wo9w/VEjhLtU3/G6xro9qirpOaM1yLcvn5TGVHuTZoCh9NneB/Q1WWj/j30dJhX4enI9A+aU9EccbDw8NGjDGzZp9tDh86YBY/8YC9NrUHcMSjdtSiswQQODtLjPwQgAAEYkzA39wXEjgV2aa5m3wUjTpM6sBrrkMJnH7InCIj8nUG/BDP8Fx+nUESFjj9nHk/+Z//stEYT7uFTxT144f1FSpbEQrq/Pm5t3y+KHVUJJc6M36oqt83/KrOn+a88hE84e/1OZ/AqZWJJR5ovkYNaVPS3GN77XsNB+1u4cdVIEZ/fOcqXwSn5iJVO/3db+7MLUriFwfxAqePtLvjF//XYQ5Ab6IWSIjShnz+8GtY4FT0sCJwe/fpbQXHm9wwO0X3aIGt4NyrwXJK1bFUG1En/kYrEvm5Z1UHnTuaBzQYwVkJgTNKO8/XES9lQ3e3c813KBHqoYCgdPY58130t4aa+vmFFVktEdRHCnqBU/Mzap7GYDS6mIfnVpWfS4nGPcU0yvnj26kXdBS9ryj+qMn7tVAEp+ZA1XU9GAmrSEHXhu10AUrFrsE+Sq/Y+VWqrl7gDC4ylG8f+UnziIYXz1LE6c233uamMPFzuHq7fFRaMRt0LP02aNi1n7Mz3/GD23yEqIZWL1zwUPAr915RpR/40Mecr3ydfKZyBc4b7Zza4v3Fz3/GFeVFqGpGcAbn4PT196+aYkIivf9d1wNXPXgNCpw+r9qTHiRprmwvaPp7IP9ZecsVODV/5/vt1AoSndUe1J51/S3VLnz9yr0G+P27EsFZqm3quqb7Pp37Sn7EQFjgLNcG//DkrjvvsFHH7W35r9/9PjfHq//dR+C0D00mzTATJs8wRHH6Vt8zr6fMPdc+QBpl1q5eZjaub3/41DM14aiVIIDAWQmKlAEBCEAgJgT8zX0hgdN3XiTKaHVyTd6viey9wCkz1MGQCKo5stTJUodZK5n+9q473RydGrKp+TDvthPFr1i+zIkEZ51zrhMFomDQjbXm+FQEzGS7CIOGy+/Zvdt1ULS/jvX2d77bRb7ca+fC2rptixtGNdyuNK7IGZ8UbaXVZSW2anj7/n373ZA7DVMtVUffsdfQxN9ZuxR1d+nlV7ph+eqQ+qQIHi3ycrtdcGLX7p1mZ1OTE0bU2dF8fUrved/73QraGhKr6Brt78vXQky/tosnKPpGEYh+6L8XCKKIU74uaXotJnBKtJYYooUwFDGpzqt8o+QFTg0ZlI/V8dR8aUufe9byPc0KUQdcNF7UNlSIaVjgVD5/bv3uN7+2wuv9ToTVAlwS0ySQDGocbFd+v9AtEqUIzlJ1LNVGdEx1pBVJqHNNHUZNIeHng4zShhQdrXlJGxoGmHfe+F63iJUidlRmcBXlQu1cdVAnX0lCghb38mKNFncSZ3Wk49DOJYqI18aN63MLoqnePvpWcwprgRctQLZi+VI3DFPR3iPsdcULnMqv65MeRNz+85+6BWbE3TPX93FnGuX8kR1KEoj04EURfnqgoDahtlsq+bZXSOD0kY46TzSUW6s16zqv89VHcPr2X+garIccxc6vUnXsqsCp8vVbqKlMdM7v27fHRge/zgldGmIrgbyUDX66FLWvBQ894KaX0FDnHdu3u6hRnVtaZEe/hfvs+XTxpVe43zStCIVJCQAANDhJREFUGO4Xz9OwXjHcuGGDXaRomvnzv3xLh6hSiZPyh66TEpU1T7UiRLUgkRaLKSUi+WudrqGKlr/6muucwNhTAqfmT9ZDSi04qPNV56jObS9wyq/Dh480ixcvMjX23+v/4k1u0UONxpDd/jpdCYFTbcA/XNN7L9iXahfKq1TuddVPUVBM4Czl91JtUyNKGgcNdlMTaPGs6yx33TuFBc5ybdDURZr+Q21Q90+jxowxV1z5Cndf5+dSL9U22ymm/y9RnD3r41FjJpiTZ57mRqU9baM3jx17eXqsnq0ZRy+XAAJnueTYDwIQgEAMCfhFM4IRSMFqKuroXTe+z0VqartWD+/Xv8F2are6CE5taxw0yC0kJOHTp2BHVqLGG998g+ln51XzSeUoMjFKkoCgDouSVm5daaPgFInnh4Rq+3l2kSFN7O/zaVtQhNDnIXa4tzofijpV0sqnEgyVotRRQ1F9Z077qPP91S9/3q02r89KWoxBwo7EKiW/Crofyu82hv746ATVXwKsT4qQUuSPOi9eIAhG6uSLkPP7pu319X/+JivYzTOeVdg+ddQ1xE3+l2j8/KqVdgjnzJzAqfyTp0x10yl43yifOsWKAlaK0oZcxjx/fKf/G1/7khMjfBbNl1dnh4h/5pZPuqint9zwdreysv9ec+1965vfyM3xV6qOxdqIytTce4qSVHs5sH+/a6O2T+8ig6O0IT9M3tfPvwYfKGhboXau7zREMV/SQxJF2BWzIUod85Vdzja/uFh4Drlx405yoqZfvVfDTrUAlJKm1NACLBJ9JaYr+SGxeq8htOqgHz9+LDdEPQlMo5w/sk9JgttVV1/rIlLD7aI9x4l/vV/9fLMn5jDm+re+w60aru90bdf8lyPtAwEvcGp7sWuwBJxS55fKKJS8wFnoYZ/fT79HekCRL0pf4vfb7MM2DR1X0rX7xz/SkPeXp6UoZoOuX2ovEt18UpvS752Gxav89/7tB3O/cypfU8doNINPH/nYTe4hmz7rGicxWgKRfq+UNBRZCxmFk8rXVDISkTRPsY/49JGeEgS1IJse1mm6DV2r3LX2eXutnT7T2bl82dJwsV36LPFdgnrwfiJcoKYGuP6Gd5qBjY3uK02nowc7vr4axqyh1BLnlXR+3nv373NRgjmBMzB6QhGceoj7o//8ntun0B8vCganJZD49x4rBip50TRKu1D+rlxXtX9O4AwsgKXtSqX8rjzF2qamgdDvsP/91PQ/WogrLHB2xQZFJGsKJH8ft3/fPvOdb/+ze6Ct+pVqm8qTheSjOGXrw/fdkQWTY2Nj334NZs5p55s+9mHwi88/ZzZvfDE2daMi5RNA4CyfHXtCAAIQSCwBDXVrbWntEMUVNkY3vork1MreiowIJ3VAB1kxtMlGNfr5wsJ5uvJZHRhFz6gzrSifoAAatdxSddQxho8Y4TpLTTt25J0TLOqx8uVT51FRSIpYVUeMFJ2AOkVipw59vrnafEmKpB1oo2wVhRtuI5VoQ/44hV779OlrhYoRZp+Nftu3t30V5nDeYnWM0kYkDEj8UITi5s0bO0Qoho/VE5+j2NAT9Sp0TEW1KjK7ULSi7BlhH/Bss8JQsbZXqPxKbO8q06jnTyXqWqgMnRuNVqgKLuoTzlvqGhzl/AqXWenPeoimaEJFXkoEDKdSNuj81bVMIx/0expuU5oqpo8tX3NJ5kv+d0zf6zpQjaT2ItsuvuRyc+XV15jww51qHLNYmVrFfNfOnXntFU+N6Dj2Es9i5VTzu1LtoprHjlp2qbYpQXnP7j0dFsKKWnaUfDq+HmwcPnyo4O9jlHLSnseLnAxV715PTz/lDNs+TzJNO7aYFc890b0H52hVI4DAWTW0FAwBCEAAAhCAAATKJ6AVwNUx3LZ1qxuCqggjLZajiEMSBCAAga4SGKXhyXZV9WefWWwfWA42F1x0iTliH8Z94bZbu1o0+0MAAp0gwFD1TsCqQNbRYyeaaTPmuQclS55eYA4d3F+BUikiDgQQOOPgBeoAAQhAAAIQgAAEQgQ0f+QZZ57josc0ncOChx/osMJtKDsfIQABCHSKgKZ6ueFtGhI+KDcEXgubaboCEgQg0H0EfBSnjshQ9epy799/gJl9+gX23qqPWb3qWbNl09rqHpDSu5UAAme34uZgEIAABCBQDQJjx002Y06a7IpetXyxXXCIzlk1OFNm1wmMHT/VjLGRA+vXrjI7tm3seoGUAIGYEAheh7dsXGMXn1oTk5pRDQhAoBwCwXPa78+57UlU/tWLnAxVrzzbYIkzTz3LDB851t6DbTIrlz0Z/Ir3KSCAwJkCJ2ICBCAAgSwT8DeEYrBk8UK7AnJTlnFge8wJTJwyy4yfeLKNGlhiowYQgGLuLqrXSQLB6zGd9E7CIzsEYkogeF77KnJ+exKVfWWoemV5hksbYwMipk6fY44eaTZLnl5oDh86EM7C54QTQOBMuAOpPgQgAIEsEwjedCNuZrklJMd2BM7k+Iqalkdg0ODhZs7p57uduS6Xx5C9IBBHArrnUpowuf1V7yV0ute17a/uA3/KJhC8r2WoetkY8+7YMKDRrZreq763eX7F02bblvV587Ex2QQQOJPtP2oPAQhAINMEeNKdafcn0ngEzkS6jUp3kkCwk47I2Ul4ZIdAAggEz3FfXaI6PYmuvXq28Owax/Des2afY4aNGG22b91gNJ0VKZ0EEDjT6VesggAEIJB6AtwApt7FqTQQgTOVbsWoPAT8NXrv7iY3FDBPFjZBAAIJJ+DP86AZRHUGaZT3ngf45XErtNfU6XPNmHGT7JD0g2bpM4+Y5uZDhbKyPeEEEDgT7kCqDwEIQCCLBII31AzhyWILSK7NCJzJ9R017zyBOaedbwYNGW4QOTvPjj0gkCQCmppi0OBhHYavq/5EIZbnxeBUHzAsj6Hfa+LkmWb8pOmmtbXVLHv2MbNn9w7/Fa8pJIDAmUKnYhIEIACBtBPgyXbaPZxe+xA40+tbLMtPwF+vGaqenw9bIZA2AnoILbFTDzd8IqrTk4j+isgZnVWhnGNPmmymnDzHfc28m4UopWs7Ame6/Ik1EIAABFJPwEdvEhGUelen0kAEzlS6FaOKEOCaXQQOX0Eg5QT8+R80U2Ln3j077f+m4Gbe5yEQ5MdDojyAimwaPHSEmT1vvsuxYe0qs27NiiK5+SotBBA40+JJ7IAABCCQEQL+Zo8hOxlxeMrMROBMmUMxJxIBH8XJlCKRcJEJAqkjoHs3peAK7PrMvZwoFE/+vle5uIYWZ+W/rbcrpZ81/ypTV1fHokIeSkZeETgz4mjMhAAEIJAWAnSU0+LJbNqBwJlNv2fdaj8XJ2JG1lsC9kPAipxW7AwLnRqVo6jO9WtXgigPAc+M0Ut54OTZdLYVN/v07efa1JLFC/LkYFNaCSBwptWz2AUBCEAghQT8DR6d5BQ6NyMmIXBmxNGY2YFAcC45IpA6oOEDBDJLoNjCRIKC2NmxafgHRYicHbmEP80782IzsHGwWyl90SN3h7/mc8oJIHCm3MGYBwEIQCBNBPzNHfMQpcmr2bIFgTNb/sbalwlw/X6ZBe8gAIGOBPQAWykc2akH2kqInQ6D8ddRHvS38wj/nTZjnhk9dqIxbcYseOBO09bWGs7C55QTQOBMuYMxDwIQgECaCDA8PU3ezKYtCJzZ9DtWm1zHnAdUtAYIQKAYgWJiZ9YXJwpGwyNydmxFEyfPNOMnTXcbn3z0HnP48MGOGfiUCQIInJlwM0ZCAAIQSAcBBM50+DHLViBwZtn72badKUay7X+sh0A5BHTdGDR4mBk0ZHiH3SXuZVXsROTs0BTch8lTTzHjJkxz7zXnptoGKZsEEDiz6XeshgAEIBBrAg0DGk197z4n1HH2vPnm4IG9Zs3qZR2+a2trM5qTiASBOBFQp6ymtrZDlUaNnmBGjBpntmxcY3bu3Nrhu+PHjpoD+/d22MYHCCSVwOChIzpUvaFhkJk87ZS813Bl3LNrR4f8fIAABCAQJIDY+TINRM6XWUw5eY4Ze9Jkt2HxE/fb35h9L3/Ju8wRQODMnMsxGAIQgEAyCMy/+DpTV1dXsrISNx9b8Ftz/NixknnJAIHuJFBX18ucd9G1pqampuRhW1tazMIHf10yHxkgkBQCPuI+an1ZfCgqKfJBAAKIncZGtg43c04/3zWGrA5Xz825aSloQaHm5kOcHBkngMCZ8QaA+RCAAATiSqAznWM6xnH1IvWiHdMGskpg7hkX2pVsh5QU+I8dPWq2bFrDIiJZbSjYDYEuEsiy2BkUObO2uvr0WaebkaPHu9bz6MMKdDjaxZbE7mkggMCZBi9iAwQgAIEUEtAN65hxk+1Q9d4FrVP05v59u82zTz1cMA9fQKAnCUyaMsuMHT/V1IaGqgfrpOjNjetfQOAJQuF94gkEO96ljOEhVSlCfA8BCJQioGuOpoYJr8Su/dI8Z6fsnmAX19E8pVkROWeceqYZMXKcXSW9zSx0q6XbZdNJELAEEDhpBhCAAAQgEFsCUaLfWJE3tu6jYi8RiNKOEXhoLmkkUCqKk+jNNHodmyDQ8wRKiZ2q4fq1K3u+ohWswZzTzs+EyDlrzjlm2PDRLmJTkZskCAQJIHAGafAeAhCAAARiRaBYFCfRm7FyFZUpQqBYFCfRm0XA8VXiCUSJ4kTcT7ybMQACsSbgxc5Cq7Gr8mkRO9Mucp469zwzZNhI03z4kFn06N2xbndUrmcIIHD2DHeOCgEIQAACEQkUi34jejMiRLL1OIFi7RiBp8fdQwWqSKBQFCfRm1WETtEQgEBBAsXm7NROSRc7gyLn+rWrzN49TQVZJOkLb5dWSddq6SQI5COAwJmPCtsgAAEIQCA2BPJFcRK9GRv3UJGIBPJFcRK9GREe2RJNoFgUJ+J+ol1L5SGQeAK6x1QKz9upuSz37tmZWLHTi4GyLQ3BAKeffalpGNDofLJk8QKZRYJAXgIInHmxsBECEIAABOJEIF/0Wxpu2OLEmLpUn0C+dozAU33uHKHnCYSjOIne7HmfUAMIQKAjgVJipwTPJEVDyh4v3Cb1nrm+vo8545xL7YKjfczWzevMCyuf6eg0PkEgRACBMwSEjxCAAAQgED8CwShOojfj5x9qFI1AMIqT6M1ozMiVDgL5ojgR99PhW6yAQBoJFBI7ZatWZHevCVikKChyqt5JGn4/YOAgc9pZlzjWq1ctMVs2rXHv+QOBYgQQOIvR4TsIQAACEIgNgWD0W1KfRMcGJhXpMQLBdozA02Nu4MA9QMBHcR4/dsx1VJPU0e4BXBwSAhCICYGkL1KURJFzqF0l/RS7WrrSiqVPmqbtm2LSGqhG3AkgcMbdQ9QPAhCAQAECNTUFvkjp5nHjpxr9379/j1m+5PGUWlnYrLa2wt/F9ZustdEofhg/4WQz5qTJZtOG1e5/lH2ylCeJ7by7/JP086mxcaiZOfssh+vxhb/vLmxVOw5ttWpoKRgCsSZQKLrTz9sZp6Hs/nfD30MLbNzvP0aNnmAmTplpNGJr1Yqnzd7dO1x74Job69MiNpVD4IyNK6gIBCAAgc4R6NfHmIxpnJ0DlKLch48ae6OXPIPqao3pU5+8elPjniHQbNt5awLbeXfR4nzqLtKlj5PUa3Jpy8gBAQh0hkAhsVNlxGEouwTOfr07Y1E883J/EE+/xLFWCJxx9Ap1ggAEIBCBgBc4xw+eECE3WZJIoNWqmpv2bjBJ7Ux7QYY2msTW17113rBnvaEDU5w551NxPt31rdpqUq/J3cWI40AgiwTiOJTdC5yjJo5MrEu2rdvO/UFivdf9FUfg7H7mHBECEIBARQh4gfOe9yywkZzEclYEaswKefOP3pAKgfPCKZeYW6+9LWZ0qU5cCLz7Z283K7YtowNTwiFe4Lxy+tXm41fdUiI3X1eDwI0/fZtZuX05Amc14FImBFJGoFB0Z3cOZfcC5/gZJ5mP/fADiSP8xRu+btYuXcf9QeI813MVRuDsOfYcGQIQgECXCCBwdglfInZG4EyEm6hkFwkgcEYDiMAZjVM1cyFwVpMuZUMgvQQKiZ2yuCtD2edf9Epz6OB+88xTD+WFh8CZFwsbU0wAgTPFzsU0CEAg3QQQONPtX1mHwJl+H2OhMQic0VoBAmc0TtXMhcBZTbqUDYFsECg2lL0z0Z0SN+t69TKtLS3moETOJx88ASAC5wlI2JByAgicKXcw5kEAAuklgMCZXt96yxA4PQle00wAgTOadxE4o3GqZi4EzmrSpWwIZJNAudGdF172mhywFityHj50wDy96IHcNr1B4OyAgw8ZIIDAmQEnYyIEIJBOAgic6fRr0CoEziAN3qeVAAJnNM8icEbjVM1cCJzVpEvZEIBAlOjO9WtXOlBBgVMb2lrbTE1tjVmyeKHZu6fJ5UHgdBj4kyECCJwZcjamQgAC6SKAwJkuf+azBoEzHxW2pY0AAmc0jyJwRuNUzVwInNWkS9kQgECYQLHoznDe4GcvciJwBqnwPgsEEDiz4GVshAAEUkkAgTOVbu1gFAJnBxx8SCkBBM5ojkXgjMapmrkQOKtJl7IhAIFiBDordkrk3Le3yfTrbQyrqBcjy3dpIoDAmSZvYgsEIJApAgic6Xc3Amf6fYyFLDIUtQ0gcEYlVb18CJzVY0vJEIBAdALh4emF9lzz/HNm944XETgLAWJ76gggcKbOpRgEAQhkhQACZ/o9jcCZfh9jIQJn1DaAwBmVVPXyIXBWjy0lQwAC0QhEFTdV2pHmg2bpU/cgcEZDS64UEEDgTIETMQECEMgmAQTO9PsdgTP9PsZCBM6obQCBMyqp6uVD4KweW0qGAASiEZh/8XWmrq6uaGatqq48CJxFMfFlCgkgcKbQqZgEAQhkg0AUgbPVtJljtcdOAFLbVmvq23qdsL3SG9rs8Y++dHwdT8dNenqx/wbT0NLPjDoyvOqmZEXgPF7TYlrs/3Dq1VZn6uz/aqfWmlZzrOa4O0x3nRvVtEn2rGxYY8Y3jzYDjjeUdajubOfMwRnNRVEEzuA1V6X2abWTr1UxbevTZA7VNZvJh06q6FF6+ppQyBgEzkJk2A4BCHQXgWAEZ1tbm2k5ftz0qq93hz+wf4+RuLl+TftK61Hn4GxpNqbWFlHjb7najGk5YrfZn5CaHrx1/+INXzdrl64zzUeNsYvEkyBQkgACZ0lEZIAABCAQTwJRBM4tfXaY5wauOsGAfi19zYW7zzxhe6U37O213zw++NlcsXVW4DzJii4nH5xkauy/zqQl1g4JXrMOTO3MbpHz7ut1wCwZuNKcvu8U098KmIXSfcMeNUOODTKn7ZtVKEvFtmdF4HzWcpdQEk5qK9Xyd/BYa/pvNC/0X5fbJDF++NEhZsaBKd3yICB34Aq90UOFB4Y+bk45MM2Max7VodQ4tnMEzg4uKvghisB5sO6wWTjkqVwZEuyHHG800w5ONI3HB+S2R3mzcMhiM+nwODO2eWTB7Isbl5m99fvNpTvPLZinnC96+ppQqM4InIXIsB0CEOguAhI4Dx7YZ1qtkLl713azd89Od+i9e068j4qyivrxQ8Zsua/FNE6rMYNmtKuZzU1tZsdjrWbovFrTcFLn7tcryQGBs5I0s1EWAmc2/IyVEIBACgl0RuCcemiCGXysMUehtxVwyo3syhUS4Y0XOMc3j7HHH2i2WhFrR+9dZuTRYWbevpkRSng5y4IhT7povvP2nPbyxgq+29l7t3nKdtbP3TOvqBCwp36fqW+td1GcFTx83qKyJnCeuXd2Bw79rRDft7VPh23V+OAFztn7T7Yiei+zue92s733TitkN5qz9s6pxiGrWqai+Hb23uPacW/bVoMpju0cgTPoocLvOyNwSpQce2Skbce7zIZ+m130/OU75xcuPM83fxi+wEVmTjs0Mc+37ZskqGqUQPD3pWDmTnzhBc6euiYUqioCZyEybIcABOJIAIEzjl6hTtUkgMBZTbqUDQEIQKCKBDojcCoqURFp4aRhgC80rDO76vea43aIrgSlyYdPMsNCeRX1pXzqzGrIsKLCJh4emytuS5/tthO9xRyxHV1FCSnqTsKKFzhnHJxiJhwe4/I/Oeg5d7yLdp1txav24ZMq//mGtW6oY9+WPmbGwck5kfF5e9x9NhJUwqJpqzGDjw905Si6zw8Tl6DzQsN6J562mVYz4ujQE6JEC9kgm1YMWO3qfrDukBN+JQAr8kncfFI99tcddB9H2vJ1/GA6ZMtZPuBFa8NhNyx06sEJZtixwS6L6vfUoKWW22gr8u6wHA85hhOaxxYdtp81gfOqpguCSHPvD1heGjK937YTsRzQ0mDbyBTTz7aVYFLEstphc+0RJ4xOPTQ+15Y1BF1+Vpuss/6daNn7yDQvcM7ffbotu78rUpG6muLhioAoVKid+zqobqvVDut3meO1LWagHR4+3bZlnVdKEvfXWDt0ngw43t+dJ0EBd7c9D1fZ80Dn4tgjo9z5NvToICdURW1DTzcud/XW8aYcHu8eLOh9nNs5Aqc8VDp1RuCUKOmHjevBjYTtC3afkYtOL3bNVVSmpjnQ70Jve40e8FJE+ywbEezbsq5jm+1/pX72IUQw0jpKW9W5sN4Krxrersh+CaQz7TntpzHxAmc1rwmqZ6nfjbBXEDjDRPgMAQjEmUAlBU5FdR5c32aO7Gkztb1qTP9xNaZx6svRna12GPnupa3m6O42U1NfYwZOqjEN41/+XpyaFrWa/mNqzLGDbebQZpvPfj34lFrTd0THfJ4pEZyeBK9RCSBwRiVFPghAAAIxI9AZgVMRlMHhiUOPDnbi4v5eB+0Q8mecCCRBssl2go/UHjVnWGHPi5y76veYJ604p1uP4VbYU6dwtxUbL995niOyuv96Jz5prjcJOoocU1kXWwEzn8Apkei5gc+buftnOIFSZS0atMQJpxIEdTzNx3iJHfKoocLrbCdY9dzeu8kNax9hoz+Vxtg5MH0dH7M2qMMuGzX0XccdY6OXFJGnVMyGw7aDvdqKTs21zc4u1UGdenW6g512CWwS2rb32enE4uAQdYlnDwx73B6pzUb9DbZi7F4nMin6T1GALVYsuHfYI64umh5AQ+1lkyJrp1gRrlDKmsB56oF2f3keY5pHOH+qjUm4HGbbraZgarLiSGtNmxsWK5ZKEsjX9tvk2pEihA9YMVo+PHvvXCsYtpgH7ZBtiTZqMxKYD9cdybXBsMCpNn7v8EdcO7ho11mu/GLt3GWwfx4Z/LQ5YP0q0VLCZJM9FzQPpnwsQUfio+o0yIr0Eo8k5ly661y3zQ8rV/vVFAi77XkgW307jtqGNJWDBFKdy8Eh6nFu5wicvgUVfy1X4NT1UQ8HLrPXbD2gKnXNXTbgBXd+6Vqt6TrUXpWm2Yc2XpBXhLMi8nfZNq4UHKIepa1q6hK1UwmbOhfV3nWs860Iq+QFzmpdE3SMUr8byhNOCJxhInyGAATiTKBSAufxw3YY+70tppedwanvyBrTYj9LpBxzafs9WJudxnzT3S2mrdV+P7zGHD/QZrTPsDNqnaDpGW24q8XN6dlmp13vPajG2ClETW87wExD4fMlBM58VNhWjAACZzE6fAcBCEAgxgQ6I3CGzVCnUdFrEnKU/HyY6pjeZ4W4kUeGWfGnfQj5w0MWmWbbAfWdY+WXGCMRU4KRhLuBVljU0G4lRaEtslGaGkreav+pIxuM4PTfe3FvgZ0vrtmKjJc1zTe1tibtZT7qoo+Ux6dCQ9R32o6xoiMVreSHUmqBlY1WELvclinbitngy486dDffHJyKultnxTUNpxxqxSkJtPfaCEANy5fA5jv8DTY68HwbJaikORL7tfY15+yZ66twwmvWBM4wALU5CZhqEz6yS3kk3inKTAK2BEAJmPdb3kGBRPl8O11hI2s39N1iWc+zYs0AfWXnKVxsy65127zAqYjgWvtvZ/1uN+xWEWuKVi7VziXsewFTDxNm2rk7ffJ1eGTwYnOw1yHbJs937VwC0TONK1ybVdtV/VRPCaoSkSSkPzNwxQkCZ5Q25MXSoMDp6xPHdo7A6b1T/LUzAqfapIRJXW8VveuFch0h6jU3yhD1fHNwRrnehc9piaqb+m5zvzM6573AGSZSqWtClN+N8LH1GYEzHxW2QQACcSVQKYFz/5o2s2dZqxl1Ya0TJsP2KnLzwNo2M+oC+/3g9mjMrQ9YMdNGemqbTxI41fUYe4VdRLJ9cIv7bG/V8yYEzrxY2FiEAAJnETh8BQEIQCDOBDojcBYaoi77NN/gNhsdqYUiJEiqcyqRzs99dredh02RkRKHwslHaOq+pPalSDrlkcCnIdwSUQsJnH4I5d3DFzqhNbhatvYPL4RUSODU0PG1/TY6AcwLtW3WBg0v9nYXs8Hb1BXhRxGuikC6wopXvg4PDn3C2XXJrnNyAudEu2DHdLvAkpJEWUWdBiOf3BeBP1kTOAsNR1V7WG8FwB19drkoWt0Nq51q+LemSvARaV40DyB0bx+1kZWKmA22sVZbpuT9K63P1vbf5BYZ8mKq2o7ETkUZK5Vq54r0XWVFdUUbz7fCfr75bSV4K8pZw4SVvAikhwnz7MMEPRRQe/CR0RJtJaZ7Ycrnj9KGqiVwVqudI3C6JlHyT2cETj0Q0LVI547anSIjfbRz1GtuVwXOYm1VQ9M32nNaDys0pYQisvVPi9/p2u8FzmpdE6L8buRzCAJnPipsgwAE4kqgUgKnVlTfbCM0a3rZaUnscPL+Y2tMv9Evq5JbH2o1x/bZIef2e58UpakbrfGvtFGeL2WVwFnfYMzoS9ojP33eQq8InIXIsL0QAQTOQmTYDgEIQCDmBCohcPpV1jWMeuTR4W7YulYSH2QjDzW8Wh1OdYa9CBNG4kVBRbn5+SZ9ngY7x6A612GBU4Lq0gHPO1FH5aoTLQFVq/UGkxbykdDqUyGBc7mdV3Fj361uOK7vwPt9NNS3vrVXURt8Xm9LqUWG8kVwykbNzxmcr1ERez7y1YtTXpDTMRX5pHlFFZFUKCFwtpPxYseYIyNsmxhsWuw/RTuebFeGnmTnjPXRk6faiE4trBJOajsS/RTRGE4SMn0Ep5+D04uVPkLUt41C7VzzdqpNq237CLPwce6x51HjsQEuotd/J+Fd9pyx91Q3vP2onR5CgriSP/fCAmeUNlQtgbNa7RyB07eI4q+dETj9AyQ/PceoQFR+1GtuVwXOQm1VbVvXUSWdU4PsKu86hzWvp58n1J/zhQRO/32514RSvxsaoZAvIXDmo8I2CEAgrgSiCJwtzVa8vCf/KurDTrNDzO1cm0pH97aZvSvsHJy77FXcDkWvb6wxoy9qj87ccr+9M7Mi6NC5L0dreiaac9MnCZyal3PonBPz+TzBVwTOIA3eRyGAwBmFEnkgAAEIxJBAJQRORbZpURy/uq6iaiQGBVePVuSZbk3yCXGar1ORilrUJzgnpcflI9+CQ9Q156ci1S62Qo46keroKmKn1OroGlKsjrGPgPPH8EN78w3H9XmK2eDz+ChAiU1hsdbn0Ws+gVOisOaj88OLlU+ClhZMusBGJCFwXmJuvfY2YcmbvFhRSMyQyK65+s56aZV1TQegaQG8wKk5/DQNgRbSCi4M5Q8mMVlzBfopC/x2/xoWOLX9AduuJdBfZueClWBYrJ0rv6I3JYwqmjO8AFWwPB+hqYhSnX/Kq338HJ/6XpGmEr+fsHPTVlrgjGM7R+BUCymdyhE4Vao/v7yAH/WaKwH+pNCUC+FaFhuiXkjg9G1f0eyK8lRSBLOG00cVOLt6TYjyuxG2VZ8ROPNRYRsEIBBXAlEETs2fufF3dmHESXYhz1PbhcfDW9tM05N20c6z7QJAds7NcNr1dKs5uMnOwXl5nZuXc8fjrebIzjYz7po6t3BQOL//LIFzwAQ71/hsBE7PhNfKEkDgrCxPSoMABCDQbQQqIXD6uSMlTvayC/ooqkULsAQFTs1nqdVuJWJqCLBERg0J93N0SqQ5YOcWnHRonBNrmuuO2uHEm93CKj6Cc7SNvNOccNusCChxU1E7PprODxWUkDPJDjeusUMrNRdbg11wQvl8knikemheREWYatilFiHSUF7NZ1lnZzacZiP6VE8JqyrDi12lbNAxZJeLsrPz1qnjrQhS1UFJ88VJzFXSQjKN1ha/+IXEWS0Yo9XhFYmqFeA32IhSRSP5IdMInF0TOBUNe8S2K02bIHFkZcOLzu9e4JRfFtq5XCXWj7dtSKvTa5EhiXnypRcL5R/5REPId9g5MDU3oVZuzidw+ujmk+3+ii4u1s4Vwena4bDH3FQJOoYiQ9UGJOKrbfs2qDatKNNlL51rPmJYdZENWl1d9ZfgqTbXGYFTi7Ycqz1ujtYcc5HTqoci3DRcWeeLUhzbOQKnc03JP+UKnP5BlL+uR73mPmIfKmlfRUbrOqc5bjXwXUmLVikpclnnpH9A1cc+1Gmzw801N3MhgVNTQGgRL52PipLWuaZF3JSiCpxdvSZE+d1wFQr9QeAMAeEjBCAQawJRBE4ZsOkP7QsEDT/TzkRuA9h3PtXqFgkad5W9u7afteL58YPG9D/J/gbYYec7F9vV0m1E57gr7ff29kJRndsfaXXzcw6aUWPqB9aYw9vazDG72NCQl0RTHQeBUxRI1SSAwFlNupQNAQhAoIoEogicEli0qrKfizJcHUWmPT7oGbeKrb7rbzuxEkgksmiIupIEEZUhcdIndXR9JKU6wE/ZCDmtHu2TItAk3KgTqYhNJXWL663IIhHTR+1ou8pfaldVVyfXJ80dp6i2oMCpDvWTjc/l6qq5F9WBVpKApRWqtZq5T7JF0ZNKpWzw+7SLqFtcftX3yqYL3Fd+CLTPF3z1UYdewPLfaXi9okFliwTSe2yHX+LnBFtvpXyRT35f/5qVIeo+Ataz9Pb7Vw0RVxSa2pOSpjbQIjxBgbNZ7dDOayqB3qegkK5V2OUjtQWfvHjoBU7NU+hFbeW53wqWEmMUVVmsnft9FIGmdujrqTY0287jOdqKnRK5JYJLfPdJq6tLhPRJwpOiU1VHRaxqXlzNY6uHAVHakB8m78vzr/2s6HTh7rP8Rxdput7y0HHi0M4ROHOuKfqmXIFThapd6jqm67bEyijXXC2EpXy+Pes3QSKpkoav50t6WKYI+FLXOwma+u/b4DAbfa35OL3A2R3XhFK/G/nsQ+DMR4VtEIBAXAlEFTiP7G4zisJUNKdL9uZAw8g1nFzpwLo2o4WE7EXbpVo712bj9FozcHL79y7PWpvHLkTk82hbgxVEgyukI3A6fPypIgEEzirCpWgIQAAC1SQQReCMenwt8iAhzkd55dtPQo9ETEWkaZXncFInWFFoKqPvS9Fi4TzFPqujq0ggzaOpDrjq09kkEUpCV4PdXxGp4VTKhnD+zn6WCHXACmwSgMPzgXa2LOXPisAZlY3Y9rNtL7hYUHhf3w4lcCvCN5wU5SmxUaJkcGX2cL5Cn335xdq52qH+K7IzfAyJ8BLrFUXqo+HCx9K5oOkiFNHp51IM5+nJz5Vu5wic0bwZReCMVlJ7rkpccztzvHBeHV/R/3qgVs71XuVV4ppQ6ncjWG8EziAN3kMAAnEnEFXg9HYoSrOtpc1FYIZvwzXv5vGD9sFoXY3p1d/vceKrL6NXg72yR1tL6MRCXtrCHJwF0fBFAQIInAXAsBkCEIBA3AlUUuCMu61ZrR8CZ7Y8/8SgZ+0UC8OsgFvrIjm1SNVFu84u+uAhDYQQOKN5sdICZ7SjkitIAIEzSIP3EIBA3Al0VuCMmz0InHHzSPzrg8AZfx9RQwhAAAJ5CSBw5sWSqo0InKlyZ0ljJHAqillzGGouQ03TUGzBq5IFJiQDAmc0RyFwRuNUzVwInNWkS9kQgEClCSBwVpoo5cWdAAJn3D1E/SAAAQgUIIDAWQBMijYjcKbImZhSkAACZ0E0Hb5A4OyAo0c+IHD2CHYOCgEIlEkAgbNMcOyWWAIInIl1HRWHAASyTgCBM/0tAIEz/T7GQmMQOKO1AgTOaJyqmQuBs5p0KRsCEKg0AQTOShOlvLgTQOCMu4eoHwQgAIECBBA4C4BJ0WYEzhQ5E1MKEkDgLIimwxcInB1w9MgHBM4ewc5BIQCBMgkgcJYJjt0SSwCBM7Guo+IQgEDWCSBwpr8FIHCm38dYSARn1DaAwBmVVPXyIXBWjy0lQwAClSeAwFl5ppQYbwIInPH2D7WDAAQgUJAAAmdBNKn5AoEzNa7EkCIEiOAsAifwFQJnAEYPvUXg7CHwHBYCECiLAAJnWdjYKcEEEDgT7DyqDgEIZJsAAmf6/Y/AmX4fYyERnFHbAAJnVFLVy4fAWT22lAwBCFSeAAJn5ZlSYrwJIHDG2z/UDgIQgEBBAgicBdGk5gsEztS4EkOKECCCswicwFcInAEYPfQWgbOHwHNYCECgLAIInGVhY6cEE0DgTLDzqDoEIJBtAgic6fc/Amf6fYyFRHBGbQMInFFJVS8fAmf12FIyBCBQeQIInJVnSonxJoDAGW//UDsIQAACBQl4gfMn1/+yYB6+SDaB99/+XrNp7wZz+KgxbW3Js8ULMhdOucS87+IPJM8AatwtBG76zcfMim3LTLNt560JbOfdAskexJ9PV06/2rzz/Pd012E5ToDAp+76qFm5fXlir8kBU3gLAQhkgEBQ4LzxK29LnMXf+fD3zdql67g/SJzneq7CCJw9x54jQwACEOgSAS9wdqkQdk4EgaQLnImATCV7nAACZ3EXeIGzeC6+7Q4CSb0mdwcbjgEBCMSHgBc441Oj8mrC/UF53LK4FwJnFr2OzRCAQCoI9O2dCjMwIgKBI8eSG8FZ3yuCgWSBgCVw1LZzIjgLNwUJnJxPhfl05zdJvSZ3JyOOBQEI9DwBCZx96nu+Hl2tAfcHXSWYnf0ROLPjayyFAAQgAAEIQAACEIAABCAAAQhAAAIQgEDqCCBwps6lGAQBCEAAAhCAAAQgAAEIQAACEIAABCAAgewQQODMjq+xFAIQgAAEIAABCEAAAhCAAAQgAAEIQAACqSOAwJk6l2IQBCAAAQhAAAIQgAAEIAABCEAAAhCAAASyQwCBMzu+xlIIQAACEIAABCAAAQhAAAIQgAAEIAABCKSOAAJn6lyKQRCAAAQgAAEIQAACEIAABCAAAQhAAAIQyA4BBM7s+BpLIQABCEAAAhCAAAQgAAEIQAACEIAABCCQOgIInKlzKQZBAAIQgAAEIAABCEAAAhCAAAQgAAEIQCA7BBA4s+NrLIUABCAAAQhAAAIQgAAEIAABCEAAAhCAQOoIIHCmzqUYBAEIQAACEIAABCAAAQhAAAIQgAAEIACB7BBA4MyOr7EUAhCAAAQgAAEIQAACEIAABCAAAQhAAAKpI4DAmTqXYhAEIAABCEAAAhCAAAQgAAEIQAACEIAABLJDAIEzO77GUghAAAIQgAAEIAABCEAAAhCAAAQgAAEIpI4AAmfqXIpBEIAABCAAAQhAAAIQgAAEIAABCEAAAhDIDgEEzuz4GkshAAEIQAACEIAABCAAAQhAAAIQgAAEIJA6AgicqXMpBkEAAhCAAAQgAAEIQAACEIAABCAAAQhAIDsEEDiz42sshQAEIAABCEAAAhCAAAQgAAEIQAACEIBA6gggcKbOpRgEAQhAAAIQgAAEIAABCEAAAhCAAAQgAIHsEEDgzI6vsRQCEIAABCAAAQhAAAIQgAAEIAABCEAAAqkjgMCZOpdiEAQgAAEIQAACEIAABCAAAQhAAAIQgAAEskMAgTM7vsZSCEAAAhCAAAQgAAEIQAACEIAABCAAAQikjgACZ+pcikEQgAAEIAABCEAAAhCAAAQgAAEIQAACEMgOAQTO7PgaSyEAAQhAAAIQgAAEIAABCEAAAhCAAAQgkDoCCJypcykGQQACEIAABCAAAQhAAAIQgAAEIAABCEAgOwQQOLPjayyFAAQgAAEIQAACEIAABCAAAQhAAAIQgEDqCCBwps6lGAQBCEAAAhCAAAQgAAEIQAACEIAABCAAgewQQODMjq+xFAIQgAAEIAABCEAAAhCAAAQgAAEIQAACqSOAwJk6l2IQBCAAAQhAAAIQgAAEIAABCEAAAhCAAASyQwCBMzu+xlIIQAACEIAABCAAAQhAAAIQgAAEIAABCKSOAAJn6lyKQRCAAAQgAAEIQAACEIAABCAAAQhAAAIQyA4BBM7s+BpLIQABCEAAAhCAAAQgAAEIQAACEIAABCCQOgIInKlzKQZBAAIQgAAEIAABCEAAAhCAAAQgAAEIQCA7BBA4s+NrLIUABCAAAQhAAAIQgAAEIAABCEAAAhCAQOoIIHCmzqUYBAEIQAACEIAABCAAAQhAAAIQgAAEIACB7BBA4MyOr7EUAhCAAAQgAAEIQAACEIAABCAAAQhAAAKpI4DAmTqXYhAEIAABCEAAAhCAAAQgAAEIQAACEIAABLJDAIEzO77GUghAAAIQgAAEIAABCEAAAhCAAAQgAAEIpI4AAmfqXIpBEIAABCAAAQhAAAIQgAAEIAABCEAAAhDIDgEEzuz4GkshAAEIQAACEIAABCAAAQhAAAIQgAAEIJA6AgicqXMpBkEAAhCAAAQgAAEIQAACEIAABCAAAQhAIDsEEDiz42sshQAEIAABCEAAAhCAAAQgAAEIQAACEIBA6gggcKbOpRgEAQhAAAIQgAAEIAABCEAAAhCAAAQgAIHsEEDgzI6vsRQCEIAABCAAAQhAAAIQgAAEIAABCEAAAqkjgMCZOpdiEAQgAAEIQAACEIAABCAAAQhAAAIQgAAEskMAgTM7vsZSCEAAAhCAAAQgAAEIQAACEIAABCAAAQikjgACZ+pcikEQgAAEIAABCEAAAhCAAAQgAAEIQAACEMgOAQTO7PgaSyEAAQhAAAIQgAAEIAABCEAAAhCAAAQgkDoCCJypcykGQQACEIAABCAAAQhAAAIQgAAEIAABCEAgOwQQOLPjayyFAAQgAAEIQAACEIAABCAAAQhAAAIQgEDqCCBwps6lGAQBCEAAAhCAAAQgAAEIQAACEIAABCAAgewQQODMjq+xFAIQgAAEIAABCEAAAhCAAAQgAAEIQAACqSOAwJk6l2IQBCAAAQhAAAIQgAAEIAABCEAAAhCAAASyQwCBMzu+xlIIQAACEIAABCAAAQhAAAIQgAAEIAABCKSOAAJn6lyKQRCAAAQgAAEIQAACEIAABCAAAQhAAAIQyA4BBM7s+BpLIQABCEAAAhCAAAQgAAEIQAACEIAABCCQOgIInKlzKQZBAAIQgAAEIAABCEAAAhCAAAQgAAEIQCA7BBA4s+NrLIUABCAAAQhAAAIQgAAEIAABCEAAAhCAQOoIIHCmzqUYBAEIQAACEIAABCAAAQhAAAIQgAAEIACB7BBA4MyOr7EUAhCAAAQgAAEIQAACEIAABCAAAQhAAAKpI4DAmTqXYhAEIAABCEAAAhCAAAQgAAEIQAACEIAABLJDAIEzO77GUghAAAIQgAAEIAABCEAAAhCAAAQgAAEIpI4AAmfqXIpBEIAABCAAAQhAAAIQgAAEIAABCEAAAhDIDgEEzuz4GkshAAEIQAACEIAABCAAAQhAAAIQgAAEIJA6AgicqXMpBkEAAhCAAAQgAAEIQAACEIAABCAAAQhAIDsEEDiz42sshQAEIAABCEAAAhCAAAQgAAEIQAACEIBA6gggcKbOpRgEAQhAAAIQgAAEIAABCEAAAhCAAAQgAIHsEEDgzI6vsRQCEIAABCAAAQhAAAIQgAAEIAABCEAAAqkjgMCZOpdiEAQgAAEIQAACEIAABCAAAQhAAAIQgAAEskPg/wHhNy9bZZbQ6QAAAABJRU5ErkJggg==;" vertex="1" parent="1">
          <mxGeometry x="-170" y="30" width="594.2" height="410" as="geometry" />
        </mxCell>
        <mxCell id="JzWSMjGw9r-YvIYQEvcD-2" value="" style="rounded=0;whiteSpace=wrap;html=1;" vertex="1" parent="1">
          <mxGeometry x="-640" y="555" width="180" height="235" as="geometry" />
        </mxCell>
        <mxCell id="JzWSMjGw9r-YvIYQEvcD-5" value="FastAPI&lt;div&gt;(BackEnd)&lt;/div&gt;" style="strokeWidth=2;html=1;shape=mxgraph.flowchart.database;whiteSpace=wrap;" vertex="1" parent="1">
          <mxGeometry x="-230" y="640" width="90" height="90" as="geometry" />
        </mxCell>
        <mxCell id="JzWSMjGw9r-YvIYQEvcD-9" value="WebBrowser" style="shape=process;whiteSpace=wrap;html=1;backgroundOutline=1;" vertex="1" parent="1">
          <mxGeometry x="-602" y="700" width="120" height="60" as="geometry" />
        </mxCell>
        <mxCell id="JzWSMjGw9r-YvIYQEvcD-10" value="" style="fontStyle=1;align=center;verticalAlign=top;childLayout=stackLayout;horizontal=1;horizontalStack=0;resizeParent=1;resizeParentMax=0;resizeLast=0;marginBottom=0;strokeColor=default;" vertex="1" parent="1">
          <mxGeometry x="-413" y="610" width="140" height="161" as="geometry" />
        </mxCell>
        <mxCell id="JzWSMjGw9r-YvIYQEvcD-11" value="Login" style="html=1;align=left;spacingLeft=4;verticalAlign=top;strokeColor=none;fillColor=none;whiteSpace=wrap;" vertex="1" parent="JzWSMjGw9r-YvIYQEvcD-10">
          <mxGeometry width="140" height="40" as="geometry" />
        </mxCell>
        <mxCell id="JzWSMjGw9r-YvIYQEvcD-12" value="" style="shape=module;jettyWidth=10;jettyHeight=4;" vertex="1" parent="JzWSMjGw9r-YvIYQEvcD-11">
          <mxGeometry x="1" width="16" height="20" relative="1" as="geometry">
            <mxPoint x="-25" y="9" as="offset" />
          </mxGeometry>
        </mxCell>
        <mxCell id="JzWSMjGw9r-YvIYQEvcD-13" value="" style="line;strokeWidth=1;fillColor=none;align=left;verticalAlign=middle;spacingTop=-1;spacingLeft=3;spacingRight=3;rotatable=0;labelPosition=right;points=[];portConstraint=eastwest;" vertex="1" parent="JzWSMjGw9r-YvIYQEvcD-10">
          <mxGeometry y="40" width="140" height="8" as="geometry" />
        </mxCell>
        <mxCell id="JzWSMjGw9r-YvIYQEvcD-14" value="Main-Cam" style="html=1;align=center;spacingLeft=4;verticalAlign=top;strokeColor=none;fillColor=none;whiteSpace=wrap;" vertex="1" parent="JzWSMjGw9r-YvIYQEvcD-10">
          <mxGeometry y="48" width="140" height="25" as="geometry" />
        </mxCell>
        <mxCell id="JzWSMjGw9r-YvIYQEvcD-16" value="" style="line;strokeWidth=1;fillColor=none;align=left;verticalAlign=middle;spacingTop=-1;spacingLeft=3;spacingRight=3;rotatable=0;labelPosition=right;points=[];portConstraint=eastwest;" vertex="1" parent="JzWSMjGw9r-YvIYQEvcD-10">
          <mxGeometry y="73" width="140" height="8" as="geometry" />
        </mxCell>
        <mxCell id="JzWSMjGw9r-YvIYQEvcD-17" value="Register" style="html=1;align=center;spacingLeft=4;verticalAlign=top;strokeColor=none;fillColor=none;whiteSpace=wrap;shadow=0;" vertex="1" parent="JzWSMjGw9r-YvIYQEvcD-10">
          <mxGeometry y="81" width="140" height="25" as="geometry" />
        </mxCell>
        <mxCell id="JzWSMjGw9r-YvIYQEvcD-42" value="Alter" style="html=1;align=center;spacingLeft=4;verticalAlign=top;strokeColor=none;fillColor=none;whiteSpace=wrap;fontFamily=Helvetica;fontSize=12;fontColor=default;" vertex="1" parent="JzWSMjGw9r-YvIYQEvcD-10">
          <mxGeometry y="106" width="140" height="25" as="geometry" />
        </mxCell>
        <mxCell id="JzWSMjGw9r-YvIYQEvcD-46" value="&lt;span style=&quot;color: rgb(0, 0, 0); font-family: Helvetica; font-size: 12px; font-style: normal; font-variant-ligatures: normal; font-variant-caps: normal; font-weight: 400; letter-spacing: normal; orphans: 2; text-indent: 0px; text-transform: none; widows: 2; word-spacing: 0px; -webkit-text-stroke-width: 0px; white-space: normal; background-color: rgb(251, 251, 251); text-decoration-thickness: initial; text-decoration-style: initial; text-decoration-color: initial; float: none; display: inline !important;&quot;&gt;Map&lt;/span&gt;" style="html=1;align=center;spacingLeft=4;verticalAlign=top;strokeColor=none;fillColor=none;whiteSpace=wrap;fontFamily=Helvetica;fontSize=12;fontColor=default;" vertex="1" parent="JzWSMjGw9r-YvIYQEvcD-10">
          <mxGeometry y="131" width="140" height="30" as="geometry" />
        </mxCell>
        <mxCell id="JzWSMjGw9r-YvIYQEvcD-19" value="User" style="shape=image;editableCssRules=.*;verticalLabelPosition=bottom;labelBackgroundColor=none;verticalAlign=top;aspect=fixed;imageAspect=0;image=data:image/svg+xml,PHN2ZyB4bWxucz0iaHR0cDovL3d3dy53My5vcmcvMjAwMC9zdmciIHZpZXdCb3g9Ii0wLjUgLTAuNSAyOCAyOCIgaGVpZ2h0PSIyOCIgd2lkdGg9IjI4Ij4mI3hhOwkgIDxzdHlsZSB0eXBlPSJ0ZXh0L2NzcyI+LnN0MCB7IHN0b3AtY29sb3I6IHJnYig5MSwgMTE1LCAxMzkpOyB9IC5zdDEgeyBzdG9wLWNvbG9yOiByZ2IoMzQsIDUzLCA3Mik7IH0gPC9zdHlsZT4mI3hhOwk8ZGVmcz4mI3hhOwkJPGxpbmVhckdyYWRpZW50IGdyYWRpZW50VW5pdHM9InVzZXJTcGFjZU9uVXNlIiB5Mj0iMjUuMzA5IiB4Mj0iMjMuNDU0IiB5MT0iMy40NzQiIHgxPSIyLjAzOSIgaWQ9IkEiPiYjeGE7CQkJPHN0b3AgY2xhc3M9InN0MCIvPiYjeGE7CQkJPHN0b3AgY2xhc3M9InN0MSIgb2Zmc2V0PSIxIi8+JiN4YTsJCTwvbGluZWFyR3JhZGllbnQ+JiN4YTsJPC9kZWZzPiYjeGE7CTxwYXRoIGZpbGw9InVybCgjQSkiIGQ9Ik0tLjUgMTMuNDcyYzAtMS45My4zNzEtMy43MyAxLjExMy01LjQuNzQyLTEuNzA3IDEuNzQ0LTMuMTkyIDMuMDA2LTQuNDUzUzYuMzY1IDEuMzU2IDguMDczLjYxMyAxMS41OTgtLjUgMTMuNTI4LS41czMuNzMuMzcxIDUuNCAxLjExM2MxLjcwNy43NDIgMy4xOTIgMS43NDQgNC40NTMgMy4wMDZzMi4yNjQgMi43NDYgMy4wMDYgNC40NTNjLjc0MiAxLjY3IDEuMTEzIDMuNDcgMS4xMTMgNS40cy0uMzcxIDMuNzQ4LTEuMTEzIDUuNDU1LTEuNzQ0IDMuMTkyLTMuMDA2IDQuNDUzYTE0LjI4IDE0LjI4IDAgMCAxLTQuNDUzIDMuMDA2Yy0xLjY3Ljc0Mi0zLjQ3IDEuMTEzLTUuNCAxLjExM3MtMy43NDgtLjM3MS01LjQ1NS0xLjExM2ExNC4yOCAxNC4yOCAwIDAgMS00LjQ1My0zLjAwNiAxNC4yOCAxNC4yOCAwIDAgMS0zLjAwNi00LjQ1M0MtLjEyOSAxNy4yMi0uNSAxNS40MDItLjUgMTMuNDcyem0xNi44MTEgNC4yMzFhNi42NSA2LjY1IDAgMCAxIDMuMjg0LjgzNWMxLjAwMi41MiAxLjgxOCAxLjI0MyAyLjQ0OSAyLjE3MWExMC4xNCAxMC4xNCAwIDAgMCAxLjk0OC0zLjI4NGMuNDgyLTEuMjI1LjcyNC0yLjU0Mi43MjQtMy45NTIgMC0xLjU1OS0uMjk3LTMuMDA2LS44OTEtNC4zNDItLjU5NC0xLjM3My0xLjM5Mi0yLjU2MS0yLjM5NC0zLjU2M3MtMi4xOS0xLjgtMy41NjMtMi4zOTRjLTEuMzM2LS41OTQtMi43ODMtLjg5MS00LjM0Mi0uODkxcy0zLjAyNC4yOTctNC4zOTguODkxYy0xLjMzNi41OTQtMi41MjQgMS4zOTItMy41NjMgMi4zOTRBMTEuMzUgMTEuMzUgMCAwIDAgMy4xNzQgOS4xM2MtLjU5NCAxLjMzNi0uODkxIDIuNzgzLS44OTEgNC4zNDIgMCAxLjQxLjIyMyAyLjcyOC42NjggMy45NTIuNDgyIDEuMjI1IDEuMTUgMi4zMTkgMi4wMDQgMy4yODQuNjMxLS45MjggMS40NDctMS42NTEgMi40NDktMi4xNzFhNi42NSA2LjY1IDAgMCAxIDMuMjg0LS44MzV6bTIuNzgzLTcuMDE0YTUuNjggNS42OCAwIDAgMS0uNDQ1IDIuMjI3IDUuODcgNS44NyAwIDAgMS0xLjIyNSAxLjc4MWMtLjQ4Mi40ODItMS4wNTguODcyLTEuNzI2IDEuMTY5cy0xLjM5Mi40NDUtMi4xNzEuNDQ1YTUuNjggNS42OCAwIDAgMS0yLjIyNy0uNDQ1IDYuNDQgNi40NCAwIDAgMS0xLjc4MS0xLjE2OSA2LjQ0IDYuNDQgMCAwIDEtMS4xNjktMS43ODEgNS42OCA1LjY4IDAgMCAxLS40NDUtMi4yMjdjMC0uNzc5LjE0OC0xLjUwMy40NDUtMi4xNzFBNi40NCA2LjQ0IDAgMCAxIDkuNTIgNi43MzdhNS44NyA1Ljg3IDAgMCAxIDEuNzgxLTEuMjI1IDUuNjggNS42OCAwIDAgMSAyLjIyNy0uNDQ1Yy43NzkgMCAxLjUwMy4xNDggMi4xNzEuNDQ1czEuMjQzLjcwNSAxLjcyNiAxLjIyNWE1Ljg3IDUuODcgMCAwIDEgMS4yMjUgMS43ODFjLjI5Ny42NjguNDQ1IDEuMzkyLjQ0NSAyLjE3MXptLTIuNzgzIDBjMC0uNzc5LS4yNzgtMS40MjktLjgzNS0xLjk0OC0uNTU3LS41NTctMS4yMDYtLjgzNS0xLjk0OC0uODM1YTIuNzMgMi43MyAwIDAgMC0yLjAwNC44MzVjLS41NTcuNTItLjgzNSAxLjE2OS0uODM1IDEuOTQ4YTIuNzMgMi43MyAwIDAgMCAuODM1IDIuMDA0Yy41NTcuNTIgMS4yMjUuNzc5IDIuMDA0Ljc3OS43NDIgMCAxLjM5Mi0uMjYgMS45NDgtLjc3OWEyLjczIDIuNzMgMCAwIDAgLjgzNS0yLjAwNHpNNy4wNzEgMjIuNjU3Yy44OTEuNjMxIDEuODc0IDEuMTMyIDIuOTUgMS41MDMgMS4xMTMuMzcxIDIuMjgyLjU1NyAzLjUwNy41NTcgMS4xODggMCAyLjMxOS0uMTg2IDMuMzk2LS41NTcgMS4xMTMtLjM3MSAyLjExNS0uODcyIDMuMDA2LTEuNTAzLS4zNzEtLjY2OC0uODkxLTEuMTg4LTEuNTU5LTEuNTU5LS42MzEtLjQwOC0xLjMxNy0uNjEyLTIuMDYtLjYxMmgtNS42MjJjLS43NDIgMC0xLjQ0Ny4yMDQtMi4xMTUuNjEyLS42MzEuMzcxLTEuMTMyLjg5MS0xLjUwMyAxLjU1OXoiLz4mI3hhOzwvc3ZnPg==;fontSize=14;fontStyle=1;fontColor=#1D2D3E;" vertex="1" parent="1">
          <mxGeometry x="-566" y="590" width="48" height="48" as="geometry" />
        </mxCell>
        <mxCell id="JzWSMjGw9r-YvIYQEvcD-21" value="Register" style="rounded=1;whiteSpace=wrap;html=1;" vertex="1" parent="1">
          <mxGeometry x="100" y="611.75" width="120" height="60" as="geometry" />
        </mxCell>
        <mxCell id="JzWSMjGw9r-YvIYQEvcD-22" value="Alter" style="rounded=1;whiteSpace=wrap;html=1;" vertex="1" parent="1">
          <mxGeometry x="100" y="693.25" width="120" height="60" as="geometry" />
        </mxCell>
        <mxCell id="JzWSMjGw9r-YvIYQEvcD-85" style="edgeStyle=orthogonalEdgeStyle;rounded=0;orthogonalLoop=1;jettySize=auto;html=1;fontFamily=Helvetica;fontSize=12;fontColor=default;entryX=0.504;entryY=0.125;entryDx=0;entryDy=0;entryPerimeter=0;" edge="1" parent="1" source="JzWSMjGw9r-YvIYQEvcD-23" target="JzWSMjGw9r-YvIYQEvcD-78">
          <mxGeometry relative="1" as="geometry">
            <Array as="points">
              <mxPoint x="160" y="940" />
              <mxPoint x="-475" y="940" />
            </Array>
          </mxGeometry>
        </mxCell>
        <mxCell id="JzWSMjGw9r-YvIYQEvcD-23" value="Face Detection" style="rounded=1;whiteSpace=wrap;html=1;" vertex="1" parent="1">
          <mxGeometry x="100" y="780.25" width="120" height="60" as="geometry" />
        </mxCell>
        <mxCell id="JzWSMjGw9r-YvIYQEvcD-54" value="" style="group" vertex="1" connectable="0" parent="1">
          <mxGeometry x="-95" y="597.5" width="130" height="150" as="geometry" />
        </mxCell>
        <mxCell id="JzWSMjGw9r-YvIYQEvcD-53" value="" style="shape=datastore;whiteSpace=wrap;html=1;" vertex="1" parent="JzWSMjGw9r-YvIYQEvcD-54">
          <mxGeometry y="3" width="130" height="150" as="geometry" />
        </mxCell>
        <mxCell id="JzWSMjGw9r-YvIYQEvcD-49" value="MongoDB" style="swimlane;fontStyle=0;childLayout=stackLayout;horizontal=1;startSize=30;horizontalStack=0;resizeParent=1;resizeParentMax=0;resizeLast=0;collapsible=1;marginBottom=0;whiteSpace=wrap;html=1;" vertex="1" parent="JzWSMjGw9r-YvIYQEvcD-54">
          <mxGeometry x="14.444444444444445" y="33.333333333333336" width="101.11111111111111" height="105" as="geometry" />
        </mxCell>
        <mxCell id="JzWSMjGw9r-YvIYQEvcD-50" value="User_info" style="text;strokeColor=none;fillColor=none;align=left;verticalAlign=middle;spacingLeft=4;spacingRight=4;overflow=hidden;points=[[0,0.5],[1,0.5]];portConstraint=eastwest;rotatable=0;whiteSpace=wrap;html=1;" vertex="1" parent="JzWSMjGw9r-YvIYQEvcD-49">
          <mxGeometry y="30" width="101.11111111111111" height="25" as="geometry" />
        </mxCell>
        <mxCell id="JzWSMjGw9r-YvIYQEvcD-51" value="Register" style="text;strokeColor=none;fillColor=none;align=left;verticalAlign=middle;spacingLeft=4;spacingRight=4;overflow=hidden;points=[[0,0.5],[1,0.5]];portConstraint=eastwest;rotatable=0;whiteSpace=wrap;html=1;" vertex="1" parent="JzWSMjGw9r-YvIYQEvcD-49">
          <mxGeometry y="55" width="101.11111111111111" height="25" as="geometry" />
        </mxCell>
        <mxCell id="JzWSMjGw9r-YvIYQEvcD-52" value="Alter" style="text;strokeColor=none;fillColor=none;align=left;verticalAlign=middle;spacingLeft=4;spacingRight=4;overflow=hidden;points=[[0,0.5],[1,0.5]];portConstraint=eastwest;rotatable=0;whiteSpace=wrap;html=1;" vertex="1" parent="JzWSMjGw9r-YvIYQEvcD-49">
          <mxGeometry y="80" width="101.11111111111111" height="25" as="geometry" />
        </mxCell>
        <mxCell id="JzWSMjGw9r-YvIYQEvcD-86" style="edgeStyle=orthogonalEdgeStyle;rounded=0;orthogonalLoop=1;jettySize=auto;html=1;entryX=0;entryY=0.25;entryDx=0;entryDy=0;fontFamily=Helvetica;fontSize=12;fontColor=default;" edge="1" parent="1" source="JzWSMjGw9r-YvIYQEvcD-58" target="JzWSMjGw9r-YvIYQEvcD-81">
          <mxGeometry relative="1" as="geometry" />
        </mxCell>
        <mxCell id="JzWSMjGw9r-YvIYQEvcD-58" value="" style="sketch=0;outlineConnect=0;fontColor=#232F3E;gradientColor=none;fillColor=#01A88D;strokeColor=none;dashed=0;verticalLabelPosition=bottom;verticalAlign=top;align=center;html=1;fontSize=12;fontStyle=0;aspect=fixed;pointerEvents=1;shape=mxgraph.aws4.rekognition_video;spacingLeft=4;fontFamily=Helvetica;" vertex="1" parent="1">
          <mxGeometry x="-602" y="1080" width="77" height="78" as="geometry" />
        </mxCell>
        <mxCell id="JzWSMjGw9r-YvIYQEvcD-62" style="edgeStyle=orthogonalEdgeStyle;rounded=0;orthogonalLoop=1;jettySize=auto;html=1;entryX=0.008;entryY=0.566;entryDx=0;entryDy=0;entryPerimeter=0;fontFamily=Helvetica;fontSize=12;fontColor=default;" edge="1" parent="1" source="JzWSMjGw9r-YvIYQEvcD-5" target="JzWSMjGw9r-YvIYQEvcD-53">
          <mxGeometry relative="1" as="geometry" />
        </mxCell>
        <mxCell id="JzWSMjGw9r-YvIYQEvcD-63" style="edgeStyle=orthogonalEdgeStyle;rounded=0;orthogonalLoop=1;jettySize=auto;html=1;entryX=0;entryY=0.5;entryDx=0;entryDy=0;fontFamily=Helvetica;fontSize=12;fontColor=default;" edge="1" parent="1" source="JzWSMjGw9r-YvIYQEvcD-51" target="JzWSMjGw9r-YvIYQEvcD-21">
          <mxGeometry relative="1" as="geometry" />
        </mxCell>
        <mxCell id="JzWSMjGw9r-YvIYQEvcD-64" style="edgeStyle=orthogonalEdgeStyle;rounded=0;orthogonalLoop=1;jettySize=auto;html=1;exitX=1;exitY=0.5;exitDx=0;exitDy=0;entryX=0;entryY=0.5;entryDx=0;entryDy=0;fontFamily=Helvetica;fontSize=12;fontColor=default;" edge="1" parent="1" source="JzWSMjGw9r-YvIYQEvcD-52" target="JzWSMjGw9r-YvIYQEvcD-22">
          <mxGeometry relative="1" as="geometry" />
        </mxCell>
        <mxCell id="JzWSMjGw9r-YvIYQEvcD-66" value="&lt;font style=&quot;font-size: 24px;&quot;&gt;Server&lt;/font&gt;" style="points=[[0,0],[0.25,0],[0.5,0],[0.75,0],[1,0],[1,0.25],[1,0.5],[1,0.75],[1,1],[0.75,1],[0.5,1],[0.25,1],[0,1],[0,0.75],[0,0.5],[0,0.25]];outlineConnect=0;gradientColor=none;html=1;whiteSpace=wrap;fontSize=12;fontStyle=0;container=1;pointerEvents=0;collapsible=0;recursiveResize=0;shape=mxgraph.aws4.group;grIcon=mxgraph.aws4.group_on_premise;strokeColor=#7D8998;fillColor=none;verticalAlign=top;align=left;spacingLeft=30;fontColor=#5A6C86;dashed=0;fontFamily=Helvetica;" vertex="1" parent="1">
          <mxGeometry x="-250" y="530" width="510" height="370" as="geometry" />
        </mxCell>
        <mxCell id="JzWSMjGw9r-YvIYQEvcD-68" style="edgeStyle=orthogonalEdgeStyle;rounded=0;orthogonalLoop=1;jettySize=auto;html=1;fontFamily=Helvetica;fontSize=12;fontColor=default;entryX=0;entryY=0;entryDx=55;entryDy=0;entryPerimeter=0;" edge="1" parent="1" source="JzWSMjGw9r-YvIYQEvcD-21" target="JzWSMjGw9r-YvIYQEvcD-70">
          <mxGeometry relative="1" as="geometry">
            <mxPoint x="224" y="480" as="sourcePoint" />
            <mxPoint x="-80" y="910" as="targetPoint" />
            <Array as="points">
              <mxPoint x="294" y="640" />
              <mxPoint x="294" y="918" />
              <mxPoint x="-85" y="918" />
            </Array>
          </mxGeometry>
        </mxCell>
        <mxCell id="JzWSMjGw9r-YvIYQEvcD-73" value="" style="endArrow=classic;startArrow=classic;html=1;rounded=0;fontFamily=Helvetica;fontSize=12;fontColor=default;exitX=1;exitY=0.5;exitDx=0;exitDy=0;entryX=0;entryY=0.5;entryDx=0;entryDy=0;entryPerimeter=0;edgeStyle=orthogonalEdgeStyle;" edge="1" parent="1" source="JzWSMjGw9r-YvIYQEvcD-11" target="JzWSMjGw9r-YvIYQEvcD-5">
          <mxGeometry width="50" height="50" relative="1" as="geometry">
            <mxPoint x="-300" y="530" as="sourcePoint" />
            <mxPoint x="-150" y="680" as="targetPoint" />
          </mxGeometry>
        </mxCell>
        <mxCell id="JzWSMjGw9r-YvIYQEvcD-74" value="" style="endArrow=classic;startArrow=classic;html=1;rounded=0;fontFamily=Helvetica;fontSize=12;fontColor=default;exitX=0;exitY=0.5;exitDx=0;exitDy=0;entryX=1;entryY=0.5;entryDx=0;entryDy=0;edgeStyle=orthogonalEdgeStyle;" edge="1" parent="1" source="JzWSMjGw9r-YvIYQEvcD-11" target="JzWSMjGw9r-YvIYQEvcD-2">
          <mxGeometry width="50" height="50" relative="1" as="geometry">
            <mxPoint x="-200" y="730" as="sourcePoint" />
            <mxPoint x="-150" y="680" as="targetPoint" />
          </mxGeometry>
        </mxCell>
        <mxCell id="JzWSMjGw9r-YvIYQEvcD-77" value="" style="group" vertex="1" connectable="0" parent="1">
          <mxGeometry x="-140" y="979" width="318" height="190" as="geometry" />
        </mxCell>
        <mxCell id="JzWSMjGw9r-YvIYQEvcD-70" value="Face Recognition Model" style="shape=folder;fontStyle=1;tabWidth=110;tabHeight=30;tabPosition=left;html=1;boundedLbl=1;folderSymbol=triangle;whiteSpace=wrap;align=center;verticalAlign=top;spacingLeft=4;fontFamily=Helvetica;fontSize=12;fontColor=default;fillColor=none;" vertex="1" parent="JzWSMjGw9r-YvIYQEvcD-77">
          <mxGeometry width="318" height="190" as="geometry" />
        </mxCell>
        <mxCell id="JzWSMjGw9r-YvIYQEvcD-20" value="user.pickle" style="whiteSpace=wrap;html=1;shape=mxgraph.basic.document;" vertex="1" parent="JzWSMjGw9r-YvIYQEvcD-77">
          <mxGeometry x="178" y="62.5" width="70" height="77" as="geometry" />
        </mxCell>
        <mxCell id="JzWSMjGw9r-YvIYQEvcD-57" value="" style="sketch=0;points=[[0,0,0],[0.25,0,0],[0.5,0,0],[0.75,0,0],[1,0,0],[0,1,0],[0.25,1,0],[0.5,1,0],[0.75,1,0],[1,1,0],[0,0.25,0],[0,0.5,0],[0,0.75,0],[1,0.25,0],[1,0.5,0],[1,0.75,0]];outlineConnect=0;fontColor=#232F3E;fillColor=#01A88D;strokeColor=#ffffff;dashed=0;verticalLabelPosition=bottom;verticalAlign=top;align=center;html=1;fontSize=12;fontStyle=0;aspect=fixed;shape=mxgraph.aws4.resourceIcon;resIcon=mxgraph.aws4.machine_learning;spacingLeft=4;fontFamily=Helvetica;" vertex="1" parent="JzWSMjGw9r-YvIYQEvcD-77">
          <mxGeometry x="58" y="61.5" width="78" height="78" as="geometry" />
        </mxCell>
        <mxCell id="JzWSMjGw9r-YvIYQEvcD-76" style="edgeStyle=orthogonalEdgeStyle;rounded=0;orthogonalLoop=1;jettySize=auto;html=1;exitX=1;exitY=0.5;exitDx=0;exitDy=0;exitPerimeter=0;entryX=0;entryY=0.5;entryDx=0;entryDy=0;entryPerimeter=0;fontFamily=Helvetica;fontSize=12;fontColor=default;" edge="1" parent="JzWSMjGw9r-YvIYQEvcD-77" source="JzWSMjGw9r-YvIYQEvcD-57" target="JzWSMjGw9r-YvIYQEvcD-20">
          <mxGeometry relative="1" as="geometry" />
        </mxCell>
        <mxCell id="JzWSMjGw9r-YvIYQEvcD-80" value="" style="endArrow=classic;html=1;rounded=0;fontFamily=Helvetica;fontSize=12;fontColor=default;entryX=0.5;entryY=1;entryDx=0;entryDy=0;entryPerimeter=0;exitX=-0.014;exitY=0.537;exitDx=0;exitDy=0;exitPerimeter=0;edgeStyle=orthogonalEdgeStyle;" edge="1" parent="1" source="JzWSMjGw9r-YvIYQEvcD-70" target="JzWSMjGw9r-YvIYQEvcD-5">
          <mxGeometry width="50" height="50" relative="1" as="geometry">
            <mxPoint x="-190" y="1080" as="sourcePoint" />
            <mxPoint y="880" as="targetPoint" />
            <Array as="points">
              <mxPoint x="-185" y="1081" />
            </Array>
          </mxGeometry>
        </mxCell>
        <mxCell id="JzWSMjGw9r-YvIYQEvcD-81" value="Face-List" style="swimlane;fontStyle=0;childLayout=stackLayout;horizontal=1;startSize=30;horizontalStack=0;resizeParent=1;resizeParentMax=0;resizeLast=0;collapsible=1;marginBottom=0;whiteSpace=wrap;html=1;align=center;verticalAlign=top;spacingLeft=4;fontFamily=Helvetica;fontSize=12;fontColor=default;fillColor=none;" vertex="1" parent="1">
          <mxGeometry x="-483" y="1060" width="140" height="120" as="geometry" />
        </mxCell>
        <mxCell id="JzWSMjGw9r-YvIYQEvcD-82" value="Unknown" style="text;strokeColor=none;fillColor=none;align=left;verticalAlign=middle;spacingLeft=4;spacingRight=4;overflow=hidden;points=[[0,0.5],[1,0.5]];portConstraint=eastwest;rotatable=0;whiteSpace=wrap;html=1;fontFamily=Helvetica;fontSize=12;fontColor=default;" vertex="1" parent="JzWSMjGw9r-YvIYQEvcD-81">
          <mxGeometry y="30" width="140" height="30" as="geometry" />
        </mxCell>
        <mxCell id="JzWSMjGw9r-YvIYQEvcD-83" value="Unknown" style="text;strokeColor=none;fillColor=none;align=left;verticalAlign=middle;spacingLeft=4;spacingRight=4;overflow=hidden;points=[[0,0.5],[1,0.5]];portConstraint=eastwest;rotatable=0;whiteSpace=wrap;html=1;fontFamily=Helvetica;fontSize=12;fontColor=default;" vertex="1" parent="JzWSMjGw9r-YvIYQEvcD-81">
          <mxGeometry y="60" width="140" height="30" as="geometry" />
        </mxCell>
        <mxCell id="JzWSMjGw9r-YvIYQEvcD-84" value="Unknown" style="text;strokeColor=none;fillColor=none;align=left;verticalAlign=middle;spacingLeft=4;spacingRight=4;overflow=hidden;points=[[0,0.5],[1,0.5]];portConstraint=eastwest;rotatable=0;whiteSpace=wrap;html=1;fontFamily=Helvetica;fontSize=12;fontColor=default;" vertex="1" parent="JzWSMjGw9r-YvIYQEvcD-81">
          <mxGeometry y="90" width="140" height="30" as="geometry" />
        </mxCell>
      </root>
    </mxGraphModel>
  </diagram>
</mxfile>
